<svg version="1.1" x="0" y="0" width="100%" height="100%" viewBox="0 0 33792 64972.8" xmlns="http://www.w3.org/2000/svg">
  <path d="M 29769.05 42170.4 L 24335 42170.4 L 24335 50534.4 L 19847 50534.4 L 19847 42170.4 L 2637.05 42170.4 L 2637.05 38113.35 L 19541 13049.4 L 24335 13049.4 L 24335 37937.4 L 29769.05 37937.4 L 29769.05 42170.4 Z M 19847 37937.4 L 19847 28859.4 Q 19847 27431.4 19885.25 25863.15 Q 19923.5 24294.9 19974.5 22803.15 Q 20025.5 21311.4 20089.25 20010.9 Q 20153 18710.4 20181.05 17843.4 L 19949 17843.4 Q 19773.05 18353.4 19505.3 18978.15 Q 19237.55 19602.9 18918.8 20227.65 Q 18600.05 20852.4 18268.55 21438.9 Q 17937.05 22025.4 17654 22433.4 L 7176.05 37937.4 L 19847 37937.4 Z " fill-rule="nonzero" style="fill:#000000;;fill-opacity:1;"/>
</svg>