<svg version="1.1" x="0" y="0" width="100%" height="100%" viewBox="0 0 159539.2 40550.4" xmlns="http://www.w3.org/2000/svg">
  <path d="M 4702.4 26489.6 L 4702.4 19091.6 L 2711.6 19091.6 L 2711.6 17396 L 4799.6 17274.8 L 5069.6 13539.2 L 6938 13539.2 L 6938 17274.8 L 10551.2 17274.8 L 10551.2 19092.8 L 6938 19092.8 L 6938 26538.8 Q 6938 29120 9002 29120 Q 9640.4 29120 10524.8 28775.6 L 10967.6 30446 Q 9442.4 30939.2 8510 30939.2 Q 4700 30939.2 4700 26490.8 L 4702.4 26489.6 Z M 14385.2 29094.8 Q 12516.8 27152 12516.8 23956.4 Q 12516.8 20836.4 14360 18820.4 Q 16106 16928 18539.6 16928 Q 21045.2 16928 22470.8 18623.6 Q 23847.2 20295.2 23847.2 23194.4 Q 23847.2 23834 23750 24472.4 L 14754.8 24472.4 Q 14854.4 26609.6 16083.2 27863.6 Q 17286.8 29140.4 19179.2 29140.4 Q 20949.2 29140.4 22522.4 28084.4 L 23333.6 29559.2 Q 21194 30935.6 18909.2 30935.6 Q 16157.6 30935.6 14387.6 29092.4 L 14385.2 29094.8 Z M 21881.6 22876.4 Q 21881.6 18723.2 18563.6 18723.2 Q 17088.8 18723.2 16032.8 19804.4 Q 14927.6 20960 14730.8 22876.4 L 21882.8 22876.4 L 21881.6 22876.4 Z M 25594 29094.8 L 26699.2 27620 Q 28642 29193.2 30656.8 29193.2 Q 31934.8 29193.2 32646.4 28578.8 Q 33286 28013.6 33286 27105.2 Q 33286 25752.8 30238 24572 Q 28394.8 23884.4 27559.6 23222 Q 26257.6 22214 26257.6 20715.2 Q 26257.6 19068.8 27462.4 18036.8 Q 28739.2 16929.2 30852.4 16929.2 Q 33065.2 16929.2 35005.6 18428 L 33924.4 19878.8 Q 32327.2 18698 30852.4 18698 Q 29672.8 18698 29009.2 19264.4 Q 28420 19779.2 28420 20614.4 Q 28420 21450.8 29328.4 22040 Q 29795.2 22336.4 31368.4 22925.6 Q 33383.2 23687.6 34145.2 24278 Q 35449.6 25310 35449.6 26981.6 Q 35449.6 28677.2 34195.6 29757.2 Q 32869.6 30938 30583.6 30938 Q 27832 30938 25595.2 29094.8 L 25594 29094.8 Z M 38904 26489.6 L 38904 19091.6 L 36913.2 19091.6 L 36913.2 17396 L 39001.2 17274.8 L 39271.2 13539.2 L 41139.6 13539.2 L 41139.6 17274.8 L 44752.8 17274.8 L 44752.8 19092.8 L 41139.6 19092.8 L 41139.6 26538.8 Q 41139.6 29120 43203.6 29120 Q 43842 29120 44726.4 28775.6 L 45169.2 30446 Q 43644 30939.2 42711.6 30939.2 Q 38901.6 30939.2 38901.6 26490.8 L 38904 26489.6 Z M 53256 17273.6 L 55492.8 17273.6 L 55492.8 30617.6 L 53256 30617.6 L 53256 17273.6 Z M 53280 14102 Q 52838.4 13684.4 52838.4 13070 Q 52838.4 11620.4 54387.6 11620.4 Q 55934.4 11620.4 55934.4 13070 Q 55934.4 13684.4 55492.8 14102 Q 55050 14519.6 54387.6 14519.6 Q 53724 14519.6 53281.2 14102 L 53280 14102 Z M 60825.6 29094.8 Q 59006.4 27202.4 59006.4 23957.6 Q 59006.4 20738 60949.2 18771.2 Q 62767.2 16928 65446.8 16928 Q 67560 16928 69354 18502.4 L 68198.4 20000 Q 66872.4 18796.4 65520 18796.4 Q 63700.8 18796.4 62521.2 20222 Q 61341.6 21671.6 61341.6 23956.4 Q 61341.6 26266.4 62494.8 27668 Q 63626.4 29068.4 65469.6 29068.4 Q 67165.2 29068.4 68614.8 27742.4 L 69573.6 29241.2 Q 67730.4 30936.8 65272.8 30936.8 Q 62545.2 30936.8 60825.6 29093.6 L 60825.6 29094.8 Z M 72456 17273.6 L 74692.8 17273.6 L 74692.8 30617.6 L 72456 30617.6 L 72456 17273.6 Z M 72480 14102 Q 72038.4 13684.4 72038.4 13070 Q 72038.4 11620.4 73587.6 11620.4 Q 75134.4 11620.4 75134.4 13070 Q 75134.4 13684.4 74692.8 14102 Q 74250 14519.6 73587.6 14519.6 Q 72924 14519.6 72481.2 14102 L 72480 14102 Z " fill-rule="nonzero" style="fill:#333333;;fill-opacity:1;"/>
</svg>