<svg version="1.1" x="0" y="0" width="100%" height="100%" viewBox="0 0 158566.4 40550.4" xmlns="http://www.w3.org/2000/svg">
  <path d="M 4578.8 29954 Q 3473.6 28922 3473.6 27152 Q 3473.6 24990.8 5440.4 23810 Q 7380.8 22654.4 11681.6 22163.6 Q 11681.6 18797.6 8930 18797.6 Q 7037.6 18797.6 4924.4 20223.2 L 4040 18674 Q 6767.6 16928 9298.4 16928 Q 13919.6 16928 13919.6 22409.6 L 13919.6 30617.6 L 12076.4 30617.6 L 11879.6 29020.4 L 11806.4 29020.4 Q 9496.4 30936.8 7383.2 30936.8 Q 5663.6 30936.8 4582.4 29952.8 L 4578.8 29954 Z M 11681.6 27372.8 L 11681.6 23638.4 Q 5661.2 24350 5661.2 27004.4 Q 5661.2 29141.6 8019.2 29141.6 Q 9690.8 29141.6 11681.6 27371.6 L 11681.6 27372.8 Z M 18674 29118.8 Q 17175.2 27251.6 17175.2 23957.6 Q 17175.2 20812.4 18921.2 18821.6 Q 20567.6 16929.2 22952 16929.2 Q 24819.2 16929.2 26711.6 18503.6 L 26588 16193.6 L 26588 11056.4 L 28824.8 11056.4 L 28824.8 30620 L 27005.6 30620 L 26784.8 29046.8 L 26735.6 29046.8 Q 24795.2 30939.2 22682 30939.2 Q 20151.2 30939.2 18676.4 29120 L 18674 29118.8 Z M 26586.8 27225.2 L 26586.8 20222 Q 25013.6 18820.4 23342 18820.4 Q 21695.6 18820.4 20614.4 20222 Q 19485.2 21671.6 19485.2 23932.4 Q 19485.2 26366 20444 27718.4 Q 21402.8 29068.4 23172.8 29068.4 Q 24942.8 29068.4 26589.2 27225.2 L 26586.8 27225.2 Z M 33880.4 29118.8 Q 32381.6 27251.6 32381.6 23957.6 Q 32381.6 20812.4 34127.6 18821.6 Q 35774 16929.2 38158.4 16929.2 Q 40025.6 16929.2 41918 18503.6 L 41794.4 16193.6 L 41794.4 11056.4 L 44031.2 11056.4 L 44031.2 30620 L 42212 30620 L 41991.2 29046.8 L 41942 29046.8 Q 40001.6 30939.2 37888.4 30939.2 Q 35357.6 30939.2 33882.8 29120 L 33880.4 29118.8 Z M 41793.2 27225.2 L 41793.2 20222 Q 40220 18820.4 38548.4 18820.4 Q 36902 18820.4 35820.8 20222 Q 34691.6 21671.6 34691.6 23932.4 Q 34691.6 26366 35650.4 27718.4 Q 36609.2 29068.4 38379.2 29068.4 Q 40149.2 29068.4 41795.6 27225.2 L 41793.2 27225.2 Z M 54468.8 26489.6 L 54468.8 19091.6 L 52478 19091.6 L 52478 17396 L 54566 17274.8 L 54836 13539.2 L 56704.4 13539.2 L 56704.4 17274.8 L 60317.6 17274.8 L 60317.6 19092.8 L 56704.4 19092.8 L 56704.4 26538.8 Q 56704.4 29120 58768.4 29120 Q 59406.8 29120 60291.2 28775.6 L 60734 30446 Q 59208.8 30939.2 58276.4 30939.2 Q 54466.4 30939.2 54466.4 26490.8 L 54468.8 26489.6 Z M 63291.2 17273.6 L 65528 17273.6 L 65528 30617.6 L 63291.2 30617.6 L 63291.2 17273.6 Z M 63315.2 14102 Q 62873.6 13684.4 62873.6 13070 Q 62873.6 11620.4 64422.8 11620.4 Q 65969.6 11620.4 65969.6 13070 Q 65969.6 13684.4 65528 14102 Q 65085.2 14519.6 64422.8 14519.6 Q 63759.2 14519.6 63316.4 14102 L 63315.2 14102 Z M 70443.2 26489.6 L 70443.2 19091.6 L 68452.4 19091.6 L 68452.4 17396 L 70540.4 17274.8 L 70810.4 13539.2 L 72678.8 13539.2 L 72678.8 17274.8 L 76292 17274.8 L 76292 19092.8 L 72678.8 19092.8 L 72678.8 26538.8 Q 72678.8 29120 74742.8 29120 Q 75381.2 29120 76265.6 28775.6 L 76708.4 30446 Q 75183.2 30939.2 74250.8 30939.2 Q 70440.8 30939.2 70440.8 26490.8 L 70443.2 26489.6 Z M 79265.6 27963.2 L 79265.6 11054 L 81502.4 11054 L 81502.4 28109.6 Q 81502.4 29068.4 82140.8 29068.4 Q 82361.6 29068.4 82607.6 29020.4 L 82928 30740 Q 82410.8 30936.8 81624.8 30936.8 Q 79264.4 30936.8 79264.4 27962 L 79265.6 27963.2 Z M 87038 29094.8 Q 85169.6 27152 85169.6 23956.4 Q 85169.6 20836.4 87012.8 18820.4 Q 88758.8 16928 91192.4 16928 Q 93698 16928 95123.6 18623.6 Q 96500 20295.2 96500 23194.4 Q 96500 23834 96402.8 24472.4 L 87407.6 24472.4 Q 87507.2 26609.6 88736 27863.6 Q 89939.6 29140.4 91832 29140.4 Q 93602 29140.4 95175.2 28084.4 L 95986.4 29559.2 Q 93846.8 30935.6 91562 30935.6 Q 88810.4 30935.6 87040.4 29092.4 L 87038 29094.8 Z M 94534.4 22876.4 Q 94534.4 18723.2 91216.4 18723.2 Q 89741.6 18723.2 88685.6 19804.4 Q 87580.4 20960 87383.6 22876.4 L 94535.6 22876.4 L 94534.4 22876.4 Z M 105275.2 11054 L 107512 11054 L 107512 16412 L 107438.8 19163.6 Q 109675.6 16926.8 111863.2 16926.8 Q 115942 16926.8 115942 22162.4 L 115942 30616.4 L 113706.4 30616.4 L 113706.4 22456.4 Q 113706.4 18893.6 111175.6 18893.6 Q 109553.2 18893.6 107513.2 20933.6 L 107513.2 30616.4 L 105276.4 30616.4 L 105276.4 11052.8 L 105275.2 11054 Z M 121034.8 29094.8 Q 119166.4 27152 119166.4 23956.4 Q 119166.4 20836.4 121009.6 18820.4 Q 122755.6 16928 125189.2 16928 Q 127694.8 16928 129120.4 18623.6 Q 130496.8 20295.2 130496.8 23194.4 Q 130496.8 23834 130399.6 24472.4 L 121404.4 24472.4 Q 121504 26609.6 122732.8 27863.6 Q 123936.4 29140.4 125828.8 29140.4 Q 127598.8 29140.4 129172 28084.4 L 129983.2 29559.2 Q 127843.6 30935.6 125558.8 30935.6 Q 122807.2 30935.6 121037.2 29092.4 L 121034.8 29094.8 Z M 128531.2 22876.4 Q 128531.2 18723.2 125213.2 18723.2 Q 123738.4 18723.2 122682.4 19804.4 Q 121577.2 20960 121380.4 22876.4 L 128532.4 22876.4 L 128531.2 22876.4 Z M 133742.4 17273.6 L 135585.6 17273.6 L 135782.4 19706 L 135855.6 19706 Q 137378.4 16928 139640.4 16928 Q 140499.6 16928 141064.8 17224.4 L 140647.2 19191.2 Q 140082 18969.2 139344 18969.2 Q 137156.4 18969.2 135976.8 22041.2 L 135976.8 30618.8 L 133740 30618.8 L 133740 17274.8 L 133742.4 17273.6 Z M 144126 29094.8 Q 142257.6 27152 142257.6 23956.4 Q 142257.6 20836.4 144100.8 18820.4 Q 145846.8 16928 148280.4 16928 Q 150786 16928 152211.6 18623.6 Q 153588 20295.2 153588 23194.4 Q 153588 23834 153490.8 24472.4 L 144495.6 24472.4 Q 144595.2 26609.6 145824 27863.6 Q 147027.6 29140.4 148920 29140.4 Q 150690 29140.4 152263.2 28084.4 L 153074.4 29559.2 Q 150934.8 30935.6 148650 30935.6 Q 145898.4 30935.6 144128.4 29092.4 L 144126 29094.8 Z M 151622.4 22876.4 Q 151622.4 18723.2 148304.4 18723.2 Q 146829.6 18723.2 145773.6 19804.4 Q 144668.4 20960 144471.6 22876.4 L 151623.6 22876.4 L 151622.4 22876.4 Z " fill-rule="nonzero" style="fill:#333333;;fill-opacity:1;"/>
</svg>