<svg version="1.1" x="0" y="0" width="100%" height="100%" viewBox="0 0 33740.8 64972.8" xmlns="http://www.w3.org/2000/svg">
  <path d="M 27752 50534.4 L 4496 50534.4 L 4496 46556.4 L 13421 36838.35 Q 15336.05 34775.4 16840.55 33066.9 Q 18345.05 31358.4 19403.3 29726.4 Q 20461.55 28094.4 21022.55 26449.65 Q 21583.55 24804.9 21583.55 22866.9 Q 21583.55 21364.95 21150.05 20217.45 Q 20716.55 19069.95 19913.3 18266.7 Q 19110.05 17463.45 18013.55 17055.45 Q 16917.05 16647.45 15563 16647.45 Q 13143.05 16647.45 11192.3 17629.2 Q 9241.55 18610.95 7484.6 20140.95 L 4883.6 17103.9 Q 5903.6 16185.9 7076.6 15382.65 Q 8249.6 14579.4 9601.1 13992.9 Q 10952.6 13406.4 12457.1 13062.15 Q 13961.6 12717.9 15616.55 12717.9 Q 18064.55 12717.9 20040.8 13406.4 Q 22017.05 14094.9 23394.05 15382.65 Q 24771.05 16670.4 25523.3 18519.15 Q 26275.55 20367.9 26275.55 22690.95 Q 26275.55 24855.9 25599.8 26819.4 Q 24924.05 28782.9 23738.3 30682.65 Q 22552.55 32582.4 20907.8 34494.9 Q 19263.05 36407.4 17348 38470.35 L 10185.05 46097.4 L 10185.05 46301.4 L 27752 46301.4 L 27752 50534.4 Z " fill-rule="nonzero" style="fill:#000000;;fill-opacity:1;"/>
</svg>