<svg version="1.1" x="0" y="0" width="100%" height="100%" viewBox="0 0 1171558.4 190412.8" xmlns="http://www.w3.org/2000/svg">
  <path d="M 195040.2 150425.6 L 182560.2 115083.8 L 140042.4 115083.8 L 127406.4 150425.6 L 112742.4 150425.6 L 154636.2 35921.6 L 167896.2 35921.6 L 209860.2 150425.6 L 195040.2 150425.6 Z M 177950.4 102221.6 L 166406.4 69149.6 Q 165938.4 67745.6 165275.4 65717.6 Q 164612.4 63689.6 163910.4 61349.6 Q 163208.4 59009.6 162506.4 56474.6 Q 161804.4 53939.6 161180.4 51529.4 Q 160626.6 53939.6 159924.6 56513.6 Q 159222.6 59087.6 158520.6 61466.6 Q 157818.6 63845.6 157155.6 65834.6 Q 156492.6 67823.6 156024.6 69157.4 L 144706.8 102229.4 L 177934.8 102229.4 L 177950.4 102221.6 Z M 276324.8 138951.8 L 275700.8 138951.8 Q 273984.8 141603.8 271683.8 143982.8 Q 269382.8 146361.8 266379.8 148155.8 Q 263376.8 149949.8 259632.8 150963.8 Q 255888.8 151977.8 251208.8 151977.8 Q 243962.6 151977.8 237956.6 149169.8 Q 231950.6 146361.8 227660.6 140784.8 Q 223370.6 135207.8 221030.6 126939.8 Q 218690.6 118671.8 218690.6 107751.8 Q 218690.6 96761.6 221030.6 88454.6 Q 223370.6 80147.6 227660.6 74531.6 Q 231950.6 68915.6 237956.6 66068.6 Q 243962.6 63221.6 251208.8 63221.6 Q 255818.6 63221.6 259562.6 64235.6 Q 263306.6 65249.6 266309.6 66965.6 Q 269312.6 68681.6 271652.6 70943.6 Q 273992.6 73205.6 275708.6 75701.6 L 276644.6 75701.6 Q 276418.4 73049.6 276176.6 70623.8 Q 276020.6 68595.8 275864.6 66450.8 Q 275708.6 64305.8 275708.6 63057.8 L 275708.6 29049.8 L 289904.6 29049.8 L 289904.6 150417.8 L 278446.4 150417.8 L 276332.6 138944 L 276324.8 138951.8 Z M 253946.6 140199.8 Q 259874.6 140199.8 263969.6 138405.8 Q 268064.6 136611.8 270599.6 132945.8 Q 273134.6 129279.8 274343.6 123780.8 Q 275552.6 118281.8 275708.6 110949.8 L 275708.6 107744 Q 275708.6 99873.8 274655.6 93750.8 Q 273602.6 87627.8 271067.6 83454.8 Q 268532.6 79281.8 264320.6 77136.8 Q 260108.6 74991.8 253798.4 74991.8 Q 243260.6 74991.8 238307.6 83493.8 Q 233354.6 91995.8 233354.6 107907.8 Q 233354.6 124217.6 238307.6 132212.6 Q 243260.6 140207.6 253954.4 140207.6 L 253946.6 140199.8 Z M 370174.4 138951.8 L 369550.4 138951.8 Q 367834.4 141603.8 365533.4 143982.8 Q 363232.4 146361.8 360229.4 148155.8 Q 357226.4 149949.8 353482.4 150963.8 Q 349738.4 151977.8 345058.4 151977.8 Q 337812.2 151977.8 331806.2 149169.8 Q 325800.2 146361.8 321510.2 140784.8 Q 317220.2 135207.8 314880.2 126939.8 Q 312540.2 118671.8 312540.2 107751.8 Q 312540.2 96761.6 314880.2 88454.6 Q 317220.2 80147.6 321510.2 74531.6 Q 325800.2 68915.6 331806.2 66068.6 Q 337812.2 63221.6 345058.4 63221.6 Q 349668.2 63221.6 353412.2 64235.6 Q 357156.2 65249.6 360159.2 66965.6 Q 363162.2 68681.6 365502.2 70943.6 Q 367842.2 73205.6 369558.2 75701.6 L 370494.2 75701.6 Q 370268 73049.6 370026.2 70623.8 Q 369870.2 68595.8 369714.2 66450.8 Q 369558.2 64305.8 369558.2 63057.8 L 369558.2 29049.8 L 383754.2 29049.8 L 383754.2 150417.8 L 372296 150417.8 L 370182.2 138944 L 370174.4 138951.8 Z M 347796.2 140199.8 Q 353724.2 140199.8 357819.2 138405.8 Q 361914.2 136611.8 364449.2 132945.8 Q 366984.2 129279.8 368193.2 123780.8 Q 369402.2 118281.8 369558.2 110949.8 L 369558.2 107744 Q 369558.2 99873.8 368505.2 93750.8 Q 367452.2 87627.8 364917.2 83454.8 Q 362382.2 79281.8 358170.2 77136.8 Q 353958.2 74991.8 347648 74991.8 Q 337110.2 74991.8 332157.2 83493.8 Q 327204.2 91995.8 327204.2 107907.8 Q 327204.2 124217.6 332157.2 132212.6 Q 337110.2 140207.6 347804 140207.6 L 347796.2 140199.8 Z M 519468 140355.8 Q 520872 140355.8 522627 140199.8 Q 524382 140043.8 526020 139809.8 Q 527658 139575.8 529023 139263.8 Q 530388 138951.8 531097.8 138725.6 L 531097.8 149489.6 Q 530076 149957.6 528516 150425.6 Q 526956 150893.6 525084 151244.6 Q 523212 151595.6 521184 151790.6 Q 519156 151985.6 517213.8 151985.6 Q 512377.8 151985.6 508243.8 150737.6 Q 504109.8 149489.6 501106.8 146447.6 Q 498103.8 143405.6 496387.8 138218.6 Q 494671.8 133031.6 494671.8 125161.4 L 494671.8 75467.6 L 482589.6 75467.6 L 482589.6 69157.4 L 494671.8 63073.4 L 500755.8 45133.4 L 508953.6 45133.4 L 508953.6 64789.4 L 530481.6 64789.4 L 530481.6 75467.6 L 508953.6 75467.6 L 508953.6 125161.4 Q 508953.6 132719.6 511410.6 136541.6 Q 513867.6 140363.6 519483.6 140363.6 L 519468 140355.8 Z M 600993.6 150425.6 L 600993.6 95271.8 Q 600993.6 85131.8 596898.6 80061.8 Q 592803.6 74991.8 584067.6 74991.8 Q 577741.8 74991.8 573451.8 77019.8 Q 569161.8 79047.8 566548.8 83025.8 Q 563935.8 87003.8 562804.8 92775.8 Q 561673.8 98547.8 561673.8 106035.8 L 561673.8 150425.6 L 547477.8 150425.6 L 547477.8 29057.6 L 561673.8 29057.6 L 561673.8 65093.6 L 561049.8 76325.6 L 561829.8 76325.6 Q 563787.6 72963.8 566478.6 70506.8 Q 569169.6 68049.8 572367.6 66411.8 Q 575565.6 64773.8 579153.6 63993.8 Q 582741.6 63213.8 586485.6 63213.8 Q 600767.4 63213.8 607982.4 70662.8 Q 615197.4 78111.8 615197.4 94491.8 L 615197.4 150425.6 L 601001.4 150425.6 L 600993.6 150425.6 Z M 675187.2 151985.6 Q 666607.2 151985.6 659509.2 149099.6 Q 652411.2 146213.6 647302.2 140675.6 Q 642193.2 135137.6 639385.2 126947.6 Q 636577.2 118757.6 636577.2 108219.8 Q 636577.2 97611.8 639151.2 89265.8 Q 641725.2 80919.8 646405.2 75108.8 Q 651085.2 69297.8 657598.2 66255.8 Q 664111.2 63213.8 671997 63213.8 Q 679711.2 63213.8 685873.2 65982.8 Q 692035.2 68751.8 696325.2 73782.8 Q 700615.2 78813.8 702916.2 85872.8 Q 705217.2 92931.8 705217.2 101511.8 L 705217.2 110333.6 L 651241.2 110333.6 Q 651623.4 125379.8 657590.4 132477.8 Q 663557.4 139575.8 675327.6 139575.8 Q 679313.4 139575.8 682706.4 139185.8 Q 686099.4 138795.8 689258.4 138054.8 Q 692417.4 137313.8 695381.4 136182.8 Q 698345.4 135051.8 701379.6 133647.8 L 701379.6 146283.8 Q 698259.6 147773.6 695256.6 148865.6 Q 692253.6 149957.6 689094.6 150659.6 Q 685935.6 151361.6 682542.6 151673.6 Q 679149.6 151985.6 675163.8 151985.6 L 675187.2 151985.6 Z M 671685 74991.8 Q 662793 74991.8 657606 81075.8 Q 652419 87159.8 651568.8 98789.6 L 689944.8 98789.6 Q 689944.8 93485.6 688891.8 89078.6 Q 687838.8 84671.6 685615.8 81551.6 Q 683392.8 78431.6 679960.8 76715.6 Q 676528.8 74999.6 671692.8 74999.6 L 671685 74991.8 Z M 802882.6 150425.6 L 788288.8 150425.6 L 788288.8 49181.6 L 755684.8 49181.6 L 755684.8 36389.6 L 835400.8 36389.6 L 835400.8 49181.6 L 802882.6 49181.6 L 802882.6 150425.6 Z M 865041.6 150425.6 L 850845.6 150425.6 L 850845.6 64781.6 L 865041.6 64781.6 L 865041.6 150425.6 Z M 849753.6 41607.8 Q 849753.6 36927.8 852132.6 34821.8 Q 854511.6 32715.8 858013.8 32715.8 Q 859729.8 32715.8 861250.8 33222.8 Q 862771.8 33729.8 863902.8 34821.8 Q 865033.8 35913.8 865696.8 37590.8 Q 866359.8 39267.8 866359.8 41607.8 Q 866359.8 46131.8 863902.8 48354.8 Q 861445.8 50577.8 858013.8 50577.8 Q 854511.6 50577.8 852132.6 48393.8 Q 849753.6 46209.8 849753.6 41600 L 849753.6 41607.8 Z M 917957.6 140355.8 Q 919361.6 140355.8 921116.6 140199.8 Q 922871.6 140043.8 924509.6 139809.8 Q 926147.6 139575.8 927512.6 139263.8 Q 928877.6 138951.8 929587.4 138725.6 L 929587.4 149489.6 Q 928565.6 149957.6 927005.6 150425.6 Q 925445.6 150893.6 923573.6 151244.6 Q 921701.6 151595.6 919673.6 151790.6 Q 917645.6 151985.6 915703.4 151985.6 Q 910867.4 151985.6 906733.4 150737.6 Q 902599.4 149489.6 899596.4 146447.6 Q 896593.4 143405.6 894877.4 138218.6 Q 893161.4 133031.6 893161.4 125161.4 L 893161.4 75467.6 L 881079.2 75467.6 L 881079.2 69157.4 L 893161.4 63073.4 L 899245.4 45133.4 L 907443.2 45133.4 L 907443.2 64789.4 L 928971.2 64789.4 L 928971.2 75467.6 L 907443.2 75467.6 L 907443.2 125161.4 Q 907443.2 132719.6 909900.2 136541.6 Q 912357.2 140363.6 917973.2 140363.6 L 917957.6 140355.8 Z M 960171.2 150425.6 L 945975.2 150425.6 L 945975.2 29057.6 L 960171.2 29057.6 L 960171.2 150425.6 Z M 1021043.2 151985.6 Q 1012463.2 151985.6 1005365.2 149099.6 Q 998267.2 146213.6 993158.2 140675.6 Q 988049.2 135137.6 985241.2 126947.6 Q 982433.2 118757.6 982433.2 108219.8 Q 982433.2 97611.8 985007.2 89265.8 Q 987581.2 80919.8 992261.2 75108.8 Q 996941.2 69297.8 1003454.2 66255.8 Q 1009967.2 63213.8 1017853 63213.8 Q 1025567.2 63213.8 1031729.2 65982.8 Q 1037891.2 68751.8 1042181.2 73782.8 Q 1046471.2 78813.8 1048772.2 85872.8 Q 1051073.2 92931.8 1051073.2 101511.8 L 1051073.2 110333.6 L 997097.2 110333.6 Q 997479.4 125379.8 1003446.4 132477.8 Q 1009413.4 139575.8 1021183.6 139575.8 Q 1025169.4 139575.8 1028562.4 139185.8 Q 1031955.4 138795.8 1035114.4 138054.8 Q 1038273.4 137313.8 1041237.4 136182.8 Q 1044201.4 135051.8 1047235.6 133647.8 L 1047235.6 146283.8 Q 1044115.6 147773.6 1041112.6 148865.6 Q 1038109.6 149957.6 1034950.6 150659.6 Q 1031791.6 151361.6 1028398.6 151673.6 Q 1025005.6 151985.6 1021019.8 151985.6 L 1021043.2 151985.6 Z M 1017541 74991.8 Q 1008649 74991.8 1003462 81075.8 Q 998275 87159.8 997424.8 98789.6 L 1035800.8 98789.6 Q 1035800.8 93485.6 1034747.8 89078.6 Q 1033694.8 84671.6 1031471.8 81551.6 Q 1029248.8 78431.6 1025816.8 76715.6 Q 1022384.8 74999.6 1017548.8 74999.6 L 1017541 74991.8 Z " fill-rule="nonzero" style="fill:#000000;;fill-opacity:1;"/>
</svg>