<svg version="1.1" x="0" y="0" width="100%" height="100%" viewBox="0 0 300748.8 142336" xmlns="http://www.w3.org/2000/svg">
  <path d="M 85776.4 29593.6 L 78091.4 29593.6 L 78091.4 28114.6 L 80585.4 27518.65 L 80585.4 10466.65 L 78091.4 9873.6 L 78091.4 8394.6 L 85776.4 8394.6 L 85776.4 9873.6 L 83282.4 10466.65 L 83282.4 27518.65 L 85776.4 28114.6 L 85776.4 29593.6 Z M 99356.4 29593.6 L 99356.4 19340.65 Q 99356.4 17455.65 98595.15 16513.15 Q 97833.9 15570.65 96209.9 15570.65 Q 95033.95 15570.65 94236.45 15947.65 Q 93438.95 16324.65 92953.2 17064.15 Q 92467.45 17803.65 92257.2 18876.65 Q 92046.95 19949.65 92046.95 21341.65 L 92046.95 29593.6 L 89407.95 29593.6 L 89407.95 13672.6 L 91553.95 13672.6 L 91930.95 15818.6 L 92075.95 15818.6 Q 92439.9 15193.65 92940.15 14736.9 Q 93440.4 14280.15 94034.9 13975.65 Q 94629.4 13671.15 95296.4 13526.15 Q 95963.4 13381.15 96659.4 13381.15 Q 99314.35 13381.15 100655.6 14765.9 Q 101996.85 16150.65 101996.85 19195.65 L 101996.85 29593.6 L 99357.85 29593.6 L 99356.4 29593.6 Z M 116345.35 25227.65 Q 116345.35 26387.65 115924.85 27257.65 Q 115504.35 28127.65 114714.1 28714.9 Q 113923.85 29302.15 112807.35 29592.15 Q 111690.85 29882.15 110298.85 29882.15 Q 108719.8 29882.15 107588.8 29628.4 Q 106457.8 29374.65 105600.85 28881.65 L 105600.85 26474.65 Q 106051.8 26706.65 106602.8 26931.4 Q 107153.8 27156.15 107762.8 27330.15 Q 108371.8 27504.15 109017.05 27612.9 Q 109662.3 27721.65 110300.3 27721.65 Q 111244.25 27721.65 111904 27562.15 Q 112563.75 27402.65 112977 27105.4 Q 113390.25 26808.15 113578.75 26380.4 Q 113767.25 25952.65 113767.25 25430.65 Q 113767.25 24982.6 113622.25 24620.1 Q 113477.25 24257.6 113093 23902.35 Q 112708.75 23547.1 112041.75 23184.6 Q 111374.75 22822.1 110330.75 22374.05 Q 109286.75 21923.1 108453 21488.1 Q 107619.25 21053.1 107039.25 20516.6 Q 106459.25 19980.1 106147.5 19276.85 Q 105835.75 18573.6 105835.75 17600.65 Q 105835.75 16585.65 106234.5 15795.4 Q 106633.25 15005.15 107358.25 14468.65 Q 108083.25 13932.15 109098.25 13656.65 Q 110113.25 13381.15 111360.25 13381.15 Q 112765.3 13381.15 113932.55 13685.65 Q 115099.8 13990.15 116143.8 14483.15 L 115228.85 16613.2 Q 114287.8 16194.15 113294.55 15882.4 Q 112301.3 15570.65 111273.25 15570.65 Q 109794.25 15570.65 109083.75 16056.4 Q 108373.25 16542.15 108373.25 17441.15 Q 108373.25 17947.2 108540 18324.2 Q 108706.75 18701.2 109112.75 19034.7 Q 109518.75 19368.2 110200.25 19708.95 Q 110881.75 20049.7 111896.75 20468.75 Q 112940.75 20903.75 113760 21338.75 Q 114579.25 21773.75 115159.25 22317.5 Q 115739.25 22861.25 116043.75 23557.25 Q 116348.25 24253.25 116348.25 25223.3 L 116345.35 25227.65 Z M 126473.6 29883.6 Q 124878.6 29883.6 123559.1 29347.1 Q 122239.6 28810.6 121289.85 27781.1 Q 120340.1 26751.6 119818.1 25229.1 Q 119296.1 23706.6 119296.1 21747.65 Q 119296.1 19775.65 119774.6 18224.15 Q 120253.1 16672.65 121123.1 15592.4 Q 121993.1 14512.15 123203.85 13946.65 Q 124414.6 13381.15 125880.55 13381.15 Q 127314.6 13381.15 128460.1 13895.9 Q 129605.6 14410.65 130403.1 15345.9 Q 131200.6 16281.15 131628.35 17593.4 Q 132056.1 18905.65 132056.1 20500.65 L 132056.1 22140.6 L 122022.1 22140.6 Q 122093.15 24937.65 123202.4 26257.15 Q 124311.65 27576.65 126499.7 27576.65 Q 127240.65 27576.65 127871.4 27504.15 Q 128502.15 27431.65 129089.4 27293.9 Q 129676.65 27156.15 130227.65 26945.9 Q 130778.65 26735.65 131342.7 26474.65 L 131342.7 28823.65 Q 130762.7 29100.6 130204.45 29303.6 Q 129646.2 29506.6 129058.95 29637.1 Q 128471.7 29767.6 127840.95 29825.6 Q 127210.2 29883.6 126469.25 29883.6 L 126473.6 29883.6 Z M 125822.55 15570.65 Q 124169.55 15570.65 123205.3 16701.65 Q 122241.05 17832.65 122083 19994.6 L 129217 19994.6 Q 129217 19008.6 129021.25 18189.35 Q 128825.5 17370.1 128412.25 16790.1 Q 127999 16210.1 127361 15891.1 Q 126723 15572.1 125824 15572.1 L 125822.55 15570.65 Z M 142890.35 13382.6 Q 143309.4 13382.6 143831.4 13418.85 Q 144353.4 13455.1 144730.4 13529.05 L 144382.4 15965.05 Q 143976.4 15891.1 143548.65 15840.35 Q 143120.9 15789.6 142743.9 15789.6 Q 141828.95 15789.6 141074.95 16159.35 Q 140320.95 16529.1 139777.2 17217.85 Q 139233.45 17906.6 138936.2 18870.85 Q 138638.95 19835.1 138638.95 21011.05 L 138638.95 29595.05 L 135999.95 29595.05 L 135999.95 13674.05 L 138145.95 13674.05 L 138464.95 16587.1 L 138580.95 16587.1 Q 138944.9 15965.05 139358.15 15385.05 Q 139771.4 14805.05 140286.15 14362.8 Q 140800.9 13920.55 141438.9 13652.3 Q 142076.9 13384.05 142888.9 13384.05 L 142890.35 13382.6 Z M 152693.8 27721.65 Q 152954.8 27721.65 153281.05 27692.65 Q 153607.3 27663.65 153911.8 27620.15 Q 154216.3 27576.65 154470.05 27518.65 Q 154723.8 27460.65 154855.75 27418.6 L 154855.75 29419.6 Q 154665.8 29506.6 154375.8 29593.6 Q 154085.8 29680.6 153737.8 29745.85 Q 153389.8 29811.1 153012.8 29847.35 Q 152635.8 29883.6 152274.75 29883.6 Q 151375.75 29883.6 150607.25 29651.6 Q 149838.75 29419.6 149280.5 28854.1 Q 148722.25 28288.6 148403.25 27324.35 Q 148084.25 26360.1 148084.25 24897.05 L 148084.25 15659.1 L 145838.2 15659.1 L 145838.2 14486.05 L 148084.25 13355.05 L 149215.25 10020.05 L 150739.2 10020.05 L 150739.2 13674.05 L 154741.2 13674.05 L 154741.2 15659.1 L 150739.2 15659.1 L 150739.2 24897.05 Q 150739.2 26302.1 151195.95 27012.6 Q 151652.7 27723.1 152696.7 27723.1 L 152693.8 27721.65 Z M 163114.6 13672.6 L 165856.55 13672.6 L 168972.6 22559.65 Q 169175.6 23139.65 169385.85 23777.65 Q 169596.1 24415.65 169777.35 25053.65 Q 169958.6 25691.65 170089.1 26286.15 Q 170219.6 26880.65 170277.6 27389.6 L 170364.6 27389.6 Q 170438.55 27025.65 170598.05 26402.15 Q 170757.55 25778.65 170953.3 25075.4 Q 171149.05 24372.15 171359.3 23690.65 Q 171569.55 23009.15 171727.6 22529.2 L 174614.55 13671.15 L 177340.55 13671.15 L 171047.55 31667.1 Q 170641.55 32840.15 170170.3 33775.4 Q 169699.05 34710.65 169075.55 35363.15 Q 168452.05 36015.65 167611.05 36370.9 Q 166770.05 36726.15 165610.05 36726.15 Q 164856.05 36726.15 164305.05 36646.4 Q 163754.05 36566.65 163364 36479.65 L 163364 34375.7 Q 163667.05 34449.65 164131.05 34500.4 Q 164595.05 34551.15 165104 34551.15 Q 165800 34551.15 166307.5 34384.4 Q 166815 34217.65 167192 33898.65 Q 167569 33579.65 167837.25 33115.65 Q 168105.5 32651.65 168324.45 32055.7 L 169149.5 29735.7 L 163117.5 13669.7 L 163114.6 13672.6 Z M 192909.95 21602.65 Q 192909.95 23590.6 192424.2 25134.85 Q 191938.45 26679.1 191032.2 27730.35 Q 190125.95 28781.6 188835.45 29332.6 Q 187544.95 29883.6 185934 29883.6 Q 184441.95 29883.6 183180.45 29332.6 Q 181918.95 28781.6 180998.2 27730.35 Q 180077.45 26679.1 179562.7 25134.85 Q 179047.95 23590.6 179047.95 21602.65 Q 179047.95 19630.65 179533.7 18100.9 Q 180019.45 16571.15 180918.45 15519.9 Q 181817.45 14468.65 183115.2 13924.9 Q 184412.95 13381.15 186021 13381.15 Q 187515.95 13381.15 188777.45 13924.9 Q 190038.95 14468.65 190959.7 15519.9 Q 191880.45 16571.15 192395.2 18100.9 Q 192909.95 19630.65 192909.95 21602.65  Z M 181773.95 21602.65 Q 181773.95 24634.6 182767.2 26164.35 Q 183760.45 27694.1 185993.45 27694.1 Q 188226.45 27694.1 189205.2 26164.35 Q 190183.95 24634.6 190183.95 21602.65 Q 190183.95 18573.6 189190.7 17072.85 Q 188197.45 15572.1 185964.45 15572.1 Q 183731.45 15572.1 182752.7 17072.85 Q 181773.95 18573.6 181773.95 21602.65  Z M 207393.95 29593.6 L 207001 27460.65 L 206856 27460.65 Q 206494.95 28085.6 205994.7 28542.35 Q 205494.45 28999.1 204899.95 29296.35 Q 204305.45 29593.6 203638.45 29738.6 Q 202971.45 29883.6 202275.45 29883.6 Q 200957.4 29883.6 199956.9 29550.1 Q 198956.4 29216.6 198289.4 28506.1 Q 197622.4 27795.6 197281.65 26693.6 Q 196940.9 25591.6 196940.9 24067.65 L 196940.9 13672.6 L 199579.9 13672.6 L 199579.9 23922.65 Q 199579.9 25807.65 200348.4 26750.15 Q 201116.9 27692.65 202727.85 27692.65 Q 203900.9 27692.65 204698.4 27315.65 Q 205495.9 26938.65 205981.65 26206.4 Q 206467.4 25474.15 206677.65 24401.15 Q 206887.9 23328.15 206887.9 21936.15 L 206887.9 13671.15 L 209526.9 13671.15 L 209526.9 29592.15 L 207396.85 29592.15 L 207393.95 29593.6 Z M 221379.95 13382.6 Q 221799 13382.6 222321 13418.85 Q 222843 13455.1 223220 13529.05 L 222872 15965.05 Q 222466 15891.1 222038.25 15840.35 Q 221610.5 15789.6 221233.5 15789.6 Q 220318.55 15789.6 219564.55 16159.35 Q 218810.55 16529.1 218266.8 17217.85 Q 217723.05 17906.6 217425.8 18870.85 Q 217128.55 19835.1 217128.55 21011.05 L 217128.55 29595.05 L 214489.55 29595.05 L 214489.55 13674.05 L 216635.55 13674.05 L 216954.55 16587.1 L 217070.55 16587.1 Q 217434.5 15965.05 217847.75 15385.05 Q 218261 14805.05 218775.75 14362.8 Q 219290.5 13920.55 219928.5 13652.3 Q 220566.5 13384.05 221378.5 13384.05 L 221379.95 13382.6 Z M 20440.2 64443.6 Q 18977.15 64443.6 17701.15 63986.85 Q 16425.15 63530.1 15482.65 62536.85 Q 14540.15 61543.6 14003.65 59999.35 Q 13467.15 58455.1 13467.15 56280.1 Q 13467.15 54005.05 14018.15 52417.3 Q 14569.15 50829.55 15533.4 49836.3 Q 16497.65 48843.05 17788.15 48393.55 Q 19078.65 47944.05 20557.65 47944.05 Q 21688.65 47944.05 22768.9 48190.55 Q 23849.15 48437.05 24574.15 48798.1 L 23791.15 51031.1 Q 23456.2 50886.1 23050.2 50748.35 Q 22644.2 50610.6 22209.2 50501.85 Q 21774.2 50393.1 21353.7 50327.85 Q 20933.2 50262.6 20556.2 50262.6 Q 18281.15 50262.6 17237.15 51719.85 Q 16193.15 53177.1 16193.15 56251.1 Q 16193.15 59312.05 17244.4 60725.8 Q 18295.65 62139.55 20441.65 62139.55 Q 21617.6 62139.55 22567.35 61871.3 Q 23517.1 61603.05 24300.1 61239.1 L 24300.1 63588.1 Q 23517.1 64010.05 22625.35 64227.55 Q 21733.6 64445.05 20441.65 64445.05 L 20440.2 64443.6 Z M 41050.75 56162.65 Q 41050.75 58150.6 40565 59694.85 Q 40079.25 61239.1 39173 62290.35 Q 38266.75 63341.6 36976.25 63892.6 Q 35685.75 64443.6 34074.8 64443.6 Q 32582.75 64443.6 31321.25 63892.6 Q 30059.75 63341.6 29139 62290.35 Q 28218.25 61239.1 27703.5 59694.85 Q 27188.75 58150.6 27188.75 56162.65 Q 27188.75 54190.65 27674.5 52660.9 Q 28160.25 51131.15 29059.25 50079.9 Q 29958.25 49028.65 31256 48484.9 Q 32553.75 47941.15 34161.8 47941.15 Q 35656.75 47941.15 36918.25 48484.9 Q 38179.75 49028.65 39100.5 50079.9 Q 40021.25 51131.15 40536 52660.9 Q 41050.75 54190.65 41050.75 56162.65  Z M 29914.75 56162.65 Q 29914.75 59194.6 30908 60724.35 Q 31901.25 62254.1 34134.25 62254.1 Q 36367.25 62254.1 37346 60724.35 Q 38324.75 59194.6 38324.75 56162.65 Q 38324.75 53133.6 37331.5 51632.85 Q 36338.25 50132.1 34105.25 50132.1 Q 31872.25 50132.1 30893.5 51632.85 Q 29914.75 53133.6 29914.75 56162.65  Z M 55170.8 64153.6 L 55170.8 53900.65 Q 55170.8 52015.65 54409.55 51073.15 Q 53648.3 50130.65 52024.3 50130.65 Q 50848.35 50130.65 50050.85 50507.65 Q 49253.35 50884.65 48767.6 51624.15 Q 48281.85 52363.65 48071.6 53436.65 Q 47861.35 54509.65 47861.35 55901.65 L 47861.35 64153.6 L 45222.35 64153.6 L 45222.35 48232.6 L 47368.35 48232.6 L 47745.35 50378.6 L 47890.35 50378.6 Q 48254.3 49753.65 48754.55 49296.9 Q 49254.8 48840.15 49849.3 48535.65 Q 50443.8 48231.15 51110.8 48086.15 Q 51777.8 47941.15 52473.8 47941.15 Q 55128.75 47941.15 56470 49325.9 Q 57811.25 50710.65 57811.25 53755.65 L 57811.25 64153.6 L 55172.25 64153.6 L 55170.8 64153.6 Z M 67445.8 62281.65 Q 67706.8 62281.65 68033.05 62252.65 Q 68359.3 62223.65 68663.8 62180.15 Q 68968.3 62136.65 69222.05 62078.65 Q 69475.8 62020.65 69607.75 61978.6 L 69607.75 63979.6 Q 69417.8 64066.6 69127.8 64153.6 Q 68837.8 64240.6 68489.8 64305.85 Q 68141.8 64371.1 67764.8 64407.35 Q 67387.8 64443.6 67026.75 64443.6 Q 66127.75 64443.6 65359.25 64211.6 Q 64590.75 63979.6 64032.5 63414.1 Q 63474.25 62848.6 63155.25 61884.35 Q 62836.25 60920.1 62836.25 59457.05 L 62836.25 50219.1 L 60590.2 50219.1 L 60590.2 49046.05 L 62836.25 47915.05 L 63967.25 44580.05 L 65491.2 44580.05 L 65491.2 48234.05 L 69493.2 48234.05 L 69493.2 50219.1 L 65491.2 50219.1 L 65491.2 59457.05 Q 65491.2 60862.1 65947.95 61572.6 Q 66404.7 62283.1 67448.7 62283.1 L 67445.8 62281.65 Z M 78908.8 64443.6 Q 77313.8 64443.6 75994.3 63907.1 Q 74674.8 63370.6 73725.05 62341.1 Q 72775.3 61311.6 72253.3 59789.1 Q 71731.3 58266.6 71731.3 56307.65 Q 71731.3 54335.65 72209.8 52784.15 Q 72688.3 51232.65 73558.3 50152.4 Q 74428.3 49072.15 75639.05 48506.65 Q 76849.8 47941.15 78315.75 47941.15 Q 79749.8 47941.15 80895.3 48455.9 Q 82040.8 48970.65 82838.3 49905.9 Q 83635.8 50841.15 84063.55 52153.4 Q 84491.3 53465.65 84491.3 55060.65 L 84491.3 56700.6 L 74457.3 56700.6 Q 74528.35 59497.65 75637.6 60817.15 Q 76746.85 62136.65 78934.9 62136.65 Q 79675.85 62136.65 80306.6 62064.15 Q 80937.35 61991.65 81524.6 61853.9 Q 82111.85 61716.15 82662.85 61505.9 Q 83213.85 61295.65 83777.9 61034.65 L 83777.9 63383.65 Q 83197.9 63660.6 82639.65 63863.6 Q 82081.4 64066.6 81494.15 64197.1 Q 80906.9 64327.6 80276.15 64385.6 Q 79645.4 64443.6 78904.45 64443.6 L 78908.8 64443.6 Z M 78257.75 50130.65 Q 76604.75 50130.65 75640.5 51261.65 Q 74676.25 52392.65 74518.2 54554.6 L 81652.2 54554.6 Q 81652.2 53568.6 81456.45 52749.35 Q 81260.7 51930.1 80847.45 51350.1 Q 80434.2 50770.1 79796.2 50451.1 Q 79158.2 50132.1 78259.2 50132.1 L 78257.75 50130.65 Z M 98383.6 64153.6 L 98383.6 53900.65 Q 98383.6 52015.65 97622.35 51073.15 Q 96861.1 50130.65 95237.1 50130.65 Q 94061.15 50130.65 93263.65 50507.65 Q 92466.15 50884.65 91980.4 51624.15 Q 91494.65 52363.65 91284.4 53436.65 Q 91074.15 54509.65 91074.15 55901.65 L 91074.15 64153.6 L 88435.15 64153.6 L 88435.15 48232.6 L 90581.15 48232.6 L 90958.15 50378.6 L 91103.15 50378.6 Q 91467.1 49753.65 91967.35 49296.9 Q 92467.6 48840.15 93062.1 48535.65 Q 93656.6 48231.15 94323.6 48086.15 Q 94990.6 47941.15 95686.6 47941.15 Q 98341.55 47941.15 99682.8 49325.9 Q 101024.05 50710.65 101024.05 53755.65 L 101024.05 64153.6 L 98385.05 64153.6 L 98383.6 64153.6 Z M 110658.6 62281.65 Q 110919.6 62281.65 111245.85 62252.65 Q 111572.1 62223.65 111876.6 62180.15 Q 112181.1 62136.65 112434.85 62078.65 Q 112688.6 62020.65 112820.55 61978.6 L 112820.55 63979.6 Q 112630.6 64066.6 112340.6 64153.6 Q 112050.6 64240.6 111702.6 64305.85 Q 111354.6 64371.1 110977.6 64407.35 Q 110600.6 64443.6 110239.55 64443.6 Q 109340.55 64443.6 108572.05 64211.6 Q 107803.55 63979.6 107245.3 63414.1 Q 106687.05 62848.6 106368.05 61884.35 Q 106049.05 60920.1 106049.05 59457.05 L 106049.05 50219.1 L 103803 50219.1 L 103803 49046.05 L 106049.05 47915.05 L 107180.05 44580.05 L 108704 44580.05 L 108704 48234.05 L 112706 48234.05 L 112706 50219.1 L 108704 50219.1 L 108704 59457.05 Q 108704 60862.1 109160.75 61572.6 Q 109617.5 62283.1 110661.5 62283.1 L 110658.6 62281.65 Z M 118554.6 60702.6 L 118773.55 61034.65 Q 118570.55 61817.65 118287.8 62702.15 Q 118005.05 63586.65 117664.3 64487.1 Q 117323.55 65387.55 116953.8 66279.3 Q 116584.05 67171.05 116223 67983.05 L 114222 67983.05 Q 114438.05 67100 114648.3 66143 Q 114858.55 65186 115054.3 64236.25 Q 115250.05 63286.5 115409.55 62380.25 Q 115569.05 61474 115685.05 60706.95 L 118556.05 60706.95 L 118554.6 60702.6 Z M 139858.35 64153.6 L 139320.4 61949.6 L 139204.4 61949.6 Q 138727.35 62600.65 138248.85 63071.9 Q 137770.35 63543.15 137204.85 63847.65 Q 136639.35 64152.15 135943.35 64297.15 Q 135247.35 64442.15 134332.4 64442.15 Q 133333.35 64442.15 132492.35 64159.4 Q 131651.35 63876.65 131035.1 63289.4 Q 130418.85 62702.15 130070.85 61810.4 Q 129722.85 60918.65 129722.85 59700.65 Q 129722.85 57322.65 131397.6 56046.65 Q 133072.35 54770.65 136494.35 54654.65 L 139162.35 54554.6 L 139162.35 53552.65 Q 139162.35 52582.6 138952.1 51930.1 Q 138741.85 51277.6 138343.1 50878.85 Q 137944.35 50480.1 137357.1 50306.1 Q 136769.85 50132.1 136015.85 50132.1 Q 134813.8 50132.1 133777.05 50480.1 Q 132740.3 50828.1 131783.3 51321.1 L 130855.3 49336.05 Q 131928.3 48756.05 133247.8 48350.05 Q 134567.3 47944.05 136017.3 47944.05 Q 137496.3 47944.05 138576.55 48241.3 Q 139656.8 48538.55 140360.05 49183.8 Q 141063.3 49829.05 141411.3 50829.55 Q 141759.3 51830.05 141759.3 53251.05 L 141759.3 64155.05 L 139861.25 64155.05 L 139858.35 64153.6 Z M 135015.35 62310.65 Q 135898.4 62310.65 136652.4 62035.15 Q 137406.4 61759.65 137957.4 61201.4 Q 138508.4 60643.15 138820.15 59794.9 Q 139131.9 58946.65 139131.9 57802.6 L 139131.9 56365.65 L 137056.95 56468.6 Q 135751.95 56526.6 134867.45 56758.6 Q 133982.95 56990.6 133453.7 57403.85 Q 132924.45 57817.1 132692.45 58404.35 Q 132460.45 58991.6 132460.45 59729.65 Q 132460.45 61063.65 133163.7 61687.15 Q 133866.95 62310.65 135013.9 62310.65 L 135015.35 62310.65 Z M 156495.6 64153.6 L 156495.6 53900.65 Q 156495.6 52015.65 155734.35 51073.15 Q 154973.1 50130.65 153349.1 50130.65 Q 152173.15 50130.65 151375.65 50507.65 Q 150578.15 50884.65 150092.4 51624.15 Q 149606.65 52363.65 149396.4 53436.65 Q 149186.15 54509.65 149186.15 55901.65 L 149186.15 64153.6 L 146547.15 64153.6 L 146547.15 48232.6 L 148693.15 48232.6 L 149070.15 50378.6 L 149215.15 50378.6 Q 149579.1 49753.65 150079.35 49296.9 Q 150579.6 48840.15 151174.1 48535.65 Q 151768.6 48231.15 152435.6 48086.15 Q 153102.6 47941.15 153798.6 47941.15 Q 156453.55 47941.15 157794.8 49325.9 Q 159136.05 50710.65 159136.05 53755.65 L 159136.05 64153.6 L 156497.05 64153.6 L 156495.6 64153.6 Z M 177878.4 64443.6 Q 176283.4 64443.6 174963.9 63907.1 Q 173644.4 63370.6 172694.65 62341.1 Q 171744.9 61311.6 171222.9 59789.1 Q 170700.9 58266.6 170700.9 56307.65 Q 170700.9 54335.65 171179.4 52784.15 Q 171657.9 51232.65 172527.9 50152.4 Q 173397.9 49072.15 174608.65 48506.65 Q 175819.4 47941.15 177285.35 47941.15 Q 178719.4 47941.15 179864.9 48455.9 Q 181010.4 48970.65 181807.9 49905.9 Q 182605.4 50841.15 183033.15 52153.4 Q 183460.9 53465.65 183460.9 55060.65 L 183460.9 56700.6 L 173426.9 56700.6 Q 173497.95 59497.65 174607.2 60817.15 Q 175716.45 62136.65 177904.5 62136.65 Q 178645.45 62136.65 179276.2 62064.15 Q 179906.95 61991.65 180494.2 61853.9 Q 181081.45 61716.15 181632.45 61505.9 Q 182183.45 61295.65 182747.5 61034.65 L 182747.5 63383.65 Q 182167.5 63660.6 181609.25 63863.6 Q 181051 64066.6 180463.75 64197.1 Q 179876.5 64327.6 179245.75 64385.6 Q 178615 64443.6 177874.05 64443.6 L 177878.4 64443.6 Z M 177227.35 50130.65 Q 175574.35 50130.65 174610.1 51261.65 Q 173645.85 52392.65 173487.8 54554.6 L 180621.8 54554.6 Q 180621.8 53568.6 180426.05 52749.35 Q 180230.3 51930.1 179817.05 51350.1 Q 179403.8 50770.1 178765.8 50451.1 Q 178127.8 50132.1 177228.8 50132.1 L 177227.35 50130.65 Z M 197353.2 64153.6 L 197353.2 53900.65 Q 197353.2 52015.65 196591.95 51073.15 Q 195830.7 50130.65 194206.7 50130.65 Q 193030.75 50130.65 192233.25 50507.65 Q 191435.75 50884.65 190950 51624.15 Q 190464.25 52363.65 190254 53436.65 Q 190043.75 54509.65 190043.75 55901.65 L 190043.75 64153.6 L 187404.75 64153.6 L 187404.75 48232.6 L 189550.75 48232.6 L 189927.75 50378.6 L 190072.75 50378.6 Q 190436.7 49753.65 190936.95 49296.9 Q 191437.2 48840.15 192031.7 48535.65 Q 192626.2 48231.15 193293.2 48086.15 Q 193960.2 47941.15 194656.2 47941.15 Q 197311.15 47941.15 198652.4 49325.9 Q 199993.65 50710.65 199993.65 53755.65 L 199993.65 64153.6 L 197354.65 64153.6 L 197353.2 64153.6 Z M 217081.2 48232.6 L 217081.2 49869.65 L 214226.15 50262.6 Q 214632.15 50768.65 214907.65 51558.9 Q 215183.15 52349.15 215183.15 53348.2 Q 215183.15 54450.2 214842.4 55385.45 Q 214501.65 56320.7 213812.9 57002.2 Q 213124.15 57683.7 212109.15 58067.95 Q 211094.15 58452.2 209744.2 58452.2 Q 209425.2 58452.2 209106.2 58444.95 Q 208787.2 58437.7 208584.2 58392.75 Q 208339.15 58537.75 208099.9 58719 Q 207860.65 58900.25 207664.9 59132.25 Q 207469.15 59364.25 207345.9 59654.25 Q 207222.65 59944.25 207222.65 60292.25 Q 207222.65 60682.3 207396.65 60921.55 Q 207570.65 61160.8 207867.9 61291.3 Q 208165.15 61421.8 208571.15 61465.3 Q 208977.15 61508.8 209425.2 61508.8 L 211977.2 61508.8 Q 213327.15 61508.8 214255.15 61849.55 Q 215183.15 62190.3 215770.4 62770.3 Q 216357.65 63350.3 216618.65 64140.55 Q 216879.65 64930.8 216879.65 65816.75 Q 216879.65 67092.75 216408.4 68107.75 Q 215937.15 69122.75 214965.65 69826 Q 213994.15 70529.25 212507.9 70906.25 Q 211021.65 71283.25 209007.6 71283.25 Q 207454.65 71283.25 206294.65 70978.75 Q 205134.65 70674.25 204366.15 70094.25 Q 203597.65 69514.25 203213.4 68695 Q 202829.15 67875.75 202829.15 66844.8 Q 202829.15 65974.8 203111.9 65315.05 Q 203394.65 64655.3 203873.15 64175.35 Q 204351.65 63695.4 204982.4 63390.9 Q 205613.15 63086.4 206293.2 62928.35 Q 205684.2 62651.4 205292.7 62056.9 Q 204901.2 61462.4 204901.2 60695.35 Q 204901.2 59809.4 205365.2 59164.15 Q 205829.2 58518.9 206831.15 57909.9 Q 206206.2 57648.9 205691.45 57192.15 Q 205176.7 56735.4 204821.45 56148.15 Q 204466.2 55560.9 204270.45 54864.9 Q 204074.7 54168.9 204074.7 53427.95 Q 204074.7 52138.9 204437.2 51123.9 Q 204799.7 50108.9 205510.2 49398.4 Q 206220.7 48687.9 207279.2 48310.9 Q 208337.7 47933.9 209742.75 47933.9 Q 210280.7 47933.9 210853.45 48013.65 Q 211426.2 48093.4 211819.15 48225.35 L 217081.2 48225.35 L 217081.2 48232.6 Z M 205323.15 66763.6 Q 205323.15 67301.55 205511.65 67765.55 Q 205700.15 68229.55 206127.9 68563.05 Q 206555.65 68896.55 207258.9 69092.3 Q 207962.15 69288.05 209006.15 69288.05 Q 211703.15 69288.05 213044.4 68454.3 Q 214385.65 67620.55 214385.65 66054.55 Q 214385.65 65387.55 214211.65 64967.05 Q 214037.65 64546.55 213638.9 64307.3 Q 213240.15 64068.05 212587.65 63981.05 Q 211935.15 63894.05 210991.2 63894.05 L 208439.2 63894.05 Q 207933.15 63894.05 207382.15 64010.05 Q 206831.15 64126.05 206374.4 64445.05 Q 205917.65 64764.05 205620.4 65322.3 Q 205323.15 65880.55 205323.15 66763.6  Z M 206657.15 53349.65 Q 206657.15 55018.6 207440.15 55830.6 Q 208223.15 56642.6 209657.2 56642.6 Q 211107.2 56642.6 211853.95 55837.85 Q 212600.7 55033.1 212600.7 53309.05 Q 212600.7 51524.1 211839.45 50683.1 Q 211078.2 49842.1 209628.2 49842.1 Q 208194.15 49842.1 207425.65 50712.1 Q 206657.15 51582.1 206657.15 53351.1 L 206657.15 53349.65 Z M 229099.95 64153.6 L 228562 61949.6 L 228446 61949.6 Q 227968.95 62600.65 227490.45 63071.9 Q 227011.95 63543.15 226446.45 63847.65 Q 225880.95 64152.15 225184.95 64297.15 Q 224488.95 64442.15 223574 64442.15 Q 222574.95 64442.15 221733.95 64159.4 Q 220892.95 63876.65 220276.7 63289.4 Q 219660.45 62702.15 219312.45 61810.4 Q 218964.45 60918.65 218964.45 59700.65 Q 218964.45 57322.65 220639.2 56046.65 Q 222313.95 54770.65 225735.95 54654.65 L 228403.95 54554.6 L 228403.95 53552.65 Q 228403.95 52582.6 228193.7 51930.1 Q 227983.45 51277.6 227584.7 50878.85 Q 227185.95 50480.1 226598.7 50306.1 Q 226011.45 50132.1 225257.45 50132.1 Q 224055.4 50132.1 223018.65 50480.1 Q 221981.9 50828.1 221024.9 51321.1 L 220096.9 49336.05 Q 221169.9 48756.05 222489.4 48350.05 Q 223808.9 47944.05 225258.9 47944.05 Q 226737.9 47944.05 227818.15 48241.3 Q 228898.4 48538.55 229601.65 49183.8 Q 230304.9 49829.05 230652.9 50829.55 Q 231000.9 51830.05 231000.9 53251.05 L 231000.9 64155.05 L 229102.85 64155.05 L 229099.95 64153.6 Z M 224256.95 62310.65 Q 225140 62310.65 225894 62035.15 Q 226648 61759.65 227199 61201.4 Q 227750 60643.15 228061.75 59794.9 Q 228373.5 58946.65 228373.5 57802.6 L 228373.5 56365.65 L 226298.55 56468.6 Q 224993.55 56526.6 224109.05 56758.6 Q 223224.55 56990.6 222695.3 57403.85 Q 222166.05 57817.1 221934.05 58404.35 Q 221702.05 58991.6 221702.05 59729.65 Q 221702.05 61063.65 222405.3 61687.15 Q 223108.55 62310.65 224255.5 62310.65 L 224256.95 62310.65 Z M 248057.2 48232.6 L 248057.2 49869.65 L 245202.15 50262.6 Q 245608.15 50768.65 245883.65 51558.9 Q 246159.15 52349.15 246159.15 53348.2 Q 246159.15 54450.2 245818.4 55385.45 Q 245477.65 56320.7 244788.9 57002.2 Q 244100.15 57683.7 243085.15 58067.95 Q 242070.15 58452.2 240720.2 58452.2 Q 240401.2 58452.2 240082.2 58444.95 Q 239763.2 58437.7 239560.2 58392.75 Q 239315.15 58537.75 239075.9 58719 Q 238836.65 58900.25 238640.9 59132.25 Q 238445.15 59364.25 238321.9 59654.25 Q 238198.65 59944.25 238198.65 60292.25 Q 238198.65 60682.3 238372.65 60921.55 Q 238546.65 61160.8 238843.9 61291.3 Q 239141.15 61421.8 239547.15 61465.3 Q 239953.15 61508.8 240401.2 61508.8 L 242953.2 61508.8 Q 244303.15 61508.8 245231.15 61849.55 Q 246159.15 62190.3 246746.4 62770.3 Q 247333.65 63350.3 247594.65 64140.55 Q 247855.65 64930.8 247855.65 65816.75 Q 247855.65 67092.75 247384.4 68107.75 Q 246913.15 69122.75 245941.65 69826 Q 244970.15 70529.25 243483.9 70906.25 Q 241997.65 71283.25 239983.6 71283.25 Q 238430.65 71283.25 237270.65 70978.75 Q 236110.65 70674.25 235342.15 70094.25 Q 234573.65 69514.25 234189.4 68695 Q 233805.15 67875.75 233805.15 66844.8 Q 233805.15 65974.8 234087.9 65315.05 Q 234370.65 64655.3 234849.15 64175.35 Q 235327.65 63695.4 235958.4 63390.9 Q 236589.15 63086.4 237269.2 62928.35 Q 236660.2 62651.4 236268.7 62056.9 Q 235877.2 61462.4 235877.2 60695.35 Q 235877.2 59809.4 236341.2 59164.15 Q 236805.2 58518.9 237807.15 57909.9 Q 237182.2 57648.9 236667.45 57192.15 Q 236152.7 56735.4 235797.45 56148.15 Q 235442.2 55560.9 235246.45 54864.9 Q 235050.7 54168.9 235050.7 53427.95 Q 235050.7 52138.9 235413.2 51123.9 Q 235775.7 50108.9 236486.2 49398.4 Q 237196.7 48687.9 238255.2 48310.9 Q 239313.7 47933.9 240718.75 47933.9 Q 241256.7 47933.9 241829.45 48013.65 Q 242402.2 48093.4 242795.15 48225.35 L 248057.2 48225.35 L 248057.2 48232.6 Z M 236299.15 66763.6 Q 236299.15 67301.55 236487.65 67765.55 Q 236676.15 68229.55 237103.9 68563.05 Q 237531.65 68896.55 238234.9 69092.3 Q 238938.15 69288.05 239982.15 69288.05 Q 242679.15 69288.05 244020.4 68454.3 Q 245361.65 67620.55 245361.65 66054.55 Q 245361.65 65387.55 245187.65 64967.05 Q 245013.65 64546.55 244614.9 64307.3 Q 244216.15 64068.05 243563.65 63981.05 Q 242911.15 63894.05 241967.2 63894.05 L 239415.2 63894.05 Q 238909.15 63894.05 238358.15 64010.05 Q 237807.15 64126.05 237350.4 64445.05 Q 236893.65 64764.05 236596.4 65322.3 Q 236299.15 65880.55 236299.15 66763.6  Z M 237633.15 53349.65 Q 237633.15 55018.6 238416.15 55830.6 Q 239199.15 56642.6 240633.2 56642.6 Q 242083.2 56642.6 242829.95 55837.85 Q 243576.7 55033.1 243576.7 53309.05 Q 243576.7 51524.1 242815.45 50683.1 Q 242054.2 49842.1 240604.2 49842.1 Q 239170.15 49842.1 238401.65 50712.1 Q 237633.15 51582.1 237633.15 53351.1 L 237633.15 53349.65 Z M 253738 64153.6 L 251099 64153.6 L 251099 48232.6 L 253738 48232.6 L 253738 64153.6 Z M 250896 43924.65 Q 250896 43054.65 251338.25 42663.15 Q 251780.5 42271.65 252431.55 42271.65 Q 252750.55 42271.65 253033.3 42365.9 Q 253316.05 42460.15 253526.3 42663.15 Q 253736.55 42866.15 253859.8 43177.9 Q 253983.05 43489.65 253983.05 43924.65 Q 253983.05 44765.65 253526.3 45178.9 Q 253069.55 45592.15 252431.55 45592.15 Q 251780.5 45592.15 251338.25 45186.15 Q 250896 44780.15 250896 43923.2 L 250896 43924.65 Z M 268674.8 64153.6 L 268674.8 53900.65 Q 268674.8 52015.65 267913.55 51073.15 Q 267152.3 50130.65 265528.3 50130.65 Q 264352.35 50130.65 263554.85 50507.65 Q 262757.35 50884.65 262271.6 51624.15 Q 261785.85 52363.65 261575.6 53436.65 Q 261365.35 54509.65 261365.35 55901.65 L 261365.35 64153.6 L 258726.35 64153.6 L 258726.35 48232.6 L 260872.35 48232.6 L 261249.35 50378.6 L 261394.35 50378.6 Q 261758.3 49753.65 262258.55 49296.9 Q 262758.8 48840.15 263353.3 48535.65 Q 263947.8 48231.15 264614.8 48086.15 Q 265281.8 47941.15 265977.8 47941.15 Q 268632.75 47941.15 269974 49325.9 Q 271315.25 50710.65 271315.25 53755.65 L 271315.25 64153.6 L 268676.25 64153.6 L 268674.8 64153.6 Z M 288402.8 48232.6 L 288402.8 49869.65 L 285547.75 50262.6 Q 285953.75 50768.65 286229.25 51558.9 Q 286504.75 52349.15 286504.75 53348.2 Q 286504.75 54450.2 286164 55385.45 Q 285823.25 56320.7 285134.5 57002.2 Q 284445.75 57683.7 283430.75 58067.95 Q 282415.75 58452.2 281065.8 58452.2 Q 280746.8 58452.2 280427.8 58444.95 Q 280108.8 58437.7 279905.8 58392.75 Q 279660.75 58537.75 279421.5 58719 Q 279182.25 58900.25 278986.5 59132.25 Q 278790.75 59364.25 278667.5 59654.25 Q 278544.25 59944.25 278544.25 60292.25 Q 278544.25 60682.3 278718.25 60921.55 Q 278892.25 61160.8 279189.5 61291.3 Q 279486.75 61421.8 279892.75 61465.3 Q 280298.75 61508.8 280746.8 61508.8 L 283298.8 61508.8 Q 284648.75 61508.8 285576.75 61849.55 Q 286504.75 62190.3 287092 62770.3 Q 287679.25 63350.3 287940.25 64140.55 Q 288201.25 64930.8 288201.25 65816.75 Q 288201.25 67092.75 287730 68107.75 Q 287258.75 69122.75 286287.25 69826 Q 285315.75 70529.25 283829.5 70906.25 Q 282343.25 71283.25 280329.2 71283.25 Q 278776.25 71283.25 277616.25 70978.75 Q 276456.25 70674.25 275687.75 70094.25 Q 274919.25 69514.25 274535 68695 Q 274150.75 67875.75 274150.75 66844.8 Q 274150.75 65974.8 274433.5 65315.05 Q 274716.25 64655.3 275194.75 64175.35 Q 275673.25 63695.4 276304 63390.9 Q 276934.75 63086.4 277614.8 62928.35 Q 277005.8 62651.4 276614.3 62056.9 Q 276222.8 61462.4 276222.8 60695.35 Q 276222.8 59809.4 276686.8 59164.15 Q 277150.8 58518.9 278152.75 57909.9 Q 277527.8 57648.9 277013.05 57192.15 Q 276498.3 56735.4 276143.05 56148.15 Q 275787.8 55560.9 275592.05 54864.9 Q 275396.3 54168.9 275396.3 53427.95 Q 275396.3 52138.9 275758.8 51123.9 Q 276121.3 50108.9 276831.8 49398.4 Q 277542.3 48687.9 278600.8 48310.9 Q 279659.3 47933.9 281064.35 47933.9 Q 281602.3 47933.9 282175.05 48013.65 Q 282747.8 48093.4 283140.75 48225.35 L 288402.8 48225.35 L 288402.8 48232.6 Z M 276644.75 66763.6 Q 276644.75 67301.55 276833.25 67765.55 Q 277021.75 68229.55 277449.5 68563.05 Q 277877.25 68896.55 278580.5 69092.3 Q 279283.75 69288.05 280327.75 69288.05 Q 283024.75 69288.05 284366 68454.3 Q 285707.25 67620.55 285707.25 66054.55 Q 285707.25 65387.55 285533.25 64967.05 Q 285359.25 64546.55 284960.5 64307.3 Q 284561.75 64068.05 283909.25 63981.05 Q 283256.75 63894.05 282312.8 63894.05 L 279760.8 63894.05 Q 279254.75 63894.05 278703.75 64010.05 Q 278152.75 64126.05 277696 64445.05 Q 277239.25 64764.05 276942 65322.3 Q 276644.75 65880.55 276644.75 66763.6  Z M 277978.75 53349.65 Q 277978.75 55018.6 278761.75 55830.6 Q 279544.75 56642.6 280978.8 56642.6 Q 282428.8 56642.6 283175.55 55837.85 Q 283922.3 55033.1 283922.3 53309.05 Q 283922.3 51524.1 283161.05 50683.1 Q 282399.8 49842.1 280949.8 49842.1 Q 279515.75 49842.1 278747.25 50712.1 Q 277978.75 51582.1 277978.75 53351.1 L 277978.75 53349.65 Z M 33164.6 99003.6 Q 32310.55 99003.6 31614.55 98815.1 Q 30918.55 98626.6 30360.3 98314.85 Q 29802.05 98003.1 29374.3 97582.6 Q 28946.55 97162.1 28611.6 96698.1 L 28437.6 96698.1 Q 28482.55 97191.1 28524.6 97642.05 Q 28553.6 98019.05 28582.6 98417.8 Q 28611.6 98816.55 28611.6 99048.55 L 28611.6 105847.6 L 25972.6 105847.6 L 25972.6 82792.6 L 28118.6 82792.6 L 28495.6 84938.6 L 28611.6 84938.6 Q 28946.55 84429.65 29367.05 83987.4 Q 29787.55 83545.15 30345.8 83218.9 Q 30904.05 82892.65 31600.05 82696.9 Q 32296.05 82501.15 33166.05 82501.15 Q 34529.05 82501.15 35645.55 83023.15 Q 36762.05 83545.15 37552.3 84581.9 Q 38342.55 85618.65 38777.55 87155.65 Q 39212.55 88692.65 39212.55 90722.65 Q 39212.55 92768.6 38777.55 94312.85 Q 38342.55 95857.1 37552.3 96901.1 Q 36762.05 97945.1 35645.55 98474.35 Q 34529.05 99003.6 33166.05 99003.6 L 33164.6 99003.6 Z M 32658.55 84690.65 Q 31556.55 84690.65 30795.3 85024.15 Q 30034.05 85357.65 29562.8 86039.15 Q 29091.55 86720.65 28866.8 87735.65 Q 28642.05 88750.65 28613.05 90129.6 L 28613.05 90722.65 Q 28613.05 92188.6 28808.8 93326.85 Q 29004.55 94465.1 29475.8 95240.85 Q 29947.05 96016.6 30730.05 96415.35 Q 31513.05 96814.1 32689 96814.1 Q 34645.05 96814.1 35565.8 95233.6 Q 36486.55 93653.1 36486.55 90695.1 Q 36486.55 87679.1 35565.8 86185.6 Q 34645.05 84692.1 32660 84692.1 L 32658.55 84690.65 Z M 50269.55 82502.6 Q 50688.6 82502.6 51210.6 82538.85 Q 51732.6 82575.1 52109.6 82649.05 L 51761.6 85085.05 Q 51355.6 85011.1 50927.85 84960.35 Q 50500.1 84909.6 50123.1 84909.6 Q 49208.15 84909.6 48454.15 85279.35 Q 47700.15 85649.1 47156.4 86337.85 Q 46612.65 87026.6 46315.4 87990.85 Q 46018.15 88955.1 46018.15 90131.05 L 46018.15 98715.05 L 43379.15 98715.05 L 43379.15 82794.05 L 45525.15 82794.05 L 45844.15 85707.1 L 45960.15 85707.1 Q 46324.1 85085.05 46737.35 84505.05 Q 47150.6 83925.05 47665.35 83482.8 Q 48180.1 83040.55 48818.1 82772.3 Q 49456.1 82504.05 50268.1 82504.05 L 50269.55 82502.6 Z M 61552 99003.6 Q 59957 99003.6 58637.5 98467.1 Q 57318 97930.6 56368.25 96901.1 Q 55418.5 95871.6 54896.5 94349.1 Q 54374.5 92826.6 54374.5 90867.65 Q 54374.5 88895.65 54853 87344.15 Q 55331.5 85792.65 56201.5 84712.4 Q 57071.5 83632.15 58282.25 83066.65 Q 59493 82501.15 60958.95 82501.15 Q 62393 82501.15 63538.5 83015.9 Q 64684 83530.65 65481.5 84465.9 Q 66279 85401.15 66706.75 86713.4 Q 67134.5 88025.65 67134.5 89620.65 L 67134.5 91260.6 L 57100.5 91260.6 Q 57171.55 94057.65 58280.8 95377.15 Q 59390.05 96696.65 61578.1 96696.65 Q 62319.05 96696.65 62949.8 96624.15 Q 63580.55 96551.65 64167.8 96413.9 Q 64755.05 96276.15 65306.05 96065.9 Q 65857.05 95855.65 66421.1 95594.65 L 66421.1 97943.65 Q 65841.1 98220.6 65282.85 98423.6 Q 64724.6 98626.6 64137.35 98757.1 Q 63550.1 98887.6 62919.35 98945.6 Q 62288.6 99003.6 61547.65 99003.6 L 61552 99003.6 Z M 60900.95 84690.65 Q 59247.95 84690.65 58283.7 85821.65 Q 57319.45 86952.65 57161.4 89114.6 L 64295.4 89114.6 Q 64295.4 88128.6 64099.65 87309.35 Q 63903.9 86490.1 63490.65 85910.1 Q 63077.4 85330.1 62439.4 85011.1 Q 61801.4 84692.1 60902.4 84692.1 L 60900.95 84690.65 Z M 80607.75 94347.65 Q 80607.75 95507.65 80187.25 96377.65 Q 79766.75 97247.65 78976.5 97834.9 Q 78186.25 98422.15 77069.75 98712.15 Q 75953.25 99002.15 74561.25 99002.15 Q 72982.2 99002.15 71851.2 98748.4 Q 70720.2 98494.65 69863.25 98001.65 L 69863.25 95594.65 Q 70314.2 95826.65 70865.2 96051.4 Q 71416.2 96276.15 72025.2 96450.15 Q 72634.2 96624.15 73279.45 96732.9 Q 73924.7 96841.65 74562.7 96841.65 Q 75506.65 96841.65 76166.4 96682.15 Q 76826.15 96522.65 77239.4 96225.4 Q 77652.65 95928.15 77841.15 95500.4 Q 78029.65 95072.65 78029.65 94550.65 Q 78029.65 94102.6 77884.65 93740.1 Q 77739.65 93377.6 77355.4 93022.35 Q 76971.15 92667.1 76304.15 92304.6 Q 75637.15 91942.1 74593.15 91494.05 Q 73549.15 91043.1 72715.4 90608.1 Q 71881.65 90173.1 71301.65 89636.6 Q 70721.65 89100.1 70409.9 88396.85 Q 70098.15 87693.6 70098.15 86720.65 Q 70098.15 85705.65 70496.9 84915.4 Q 70895.65 84125.15 71620.65 83588.65 Q 72345.65 83052.15 73360.65 82776.65 Q 74375.65 82501.15 75622.65 82501.15 Q 77027.7 82501.15 78194.95 82805.65 Q 79362.2 83110.15 80406.2 83603.15 L 79491.25 85733.2 Q 78550.2 85314.15 77556.95 85002.4 Q 76563.7 84690.65 75535.65 84690.65 Q 74056.65 84690.65 73346.15 85176.4 Q 72635.65 85662.15 72635.65 86561.15 Q 72635.65 87067.2 72802.4 87444.2 Q 72969.15 87821.2 73375.15 88154.7 Q 73781.15 88488.2 74462.65 88828.95 Q 75144.15 89169.7 76159.15 89588.75 Q 77203.15 90023.75 78022.4 90458.75 Q 78841.65 90893.75 79421.65 91437.5 Q 80001.65 91981.25 80306.15 92677.25 Q 80610.65 93373.25 80610.65 94343.3 L 80607.75 94347.65 Z M 90736 99003.6 Q 89141 99003.6 87821.5 98467.1 Q 86502 97930.6 85552.25 96901.1 Q 84602.5 95871.6 84080.5 94349.1 Q 83558.5 92826.6 83558.5 90867.65 Q 83558.5 88895.65 84037 87344.15 Q 84515.5 85792.65 85385.5 84712.4 Q 86255.5 83632.15 87466.25 83066.65 Q 88677 82501.15 90142.95 82501.15 Q 91577 82501.15 92722.5 83015.9 Q 93868 83530.65 94665.5 84465.9 Q 95463 85401.15 95890.75 86713.4 Q 96318.5 88025.65 96318.5 89620.65 L 96318.5 91260.6 L 86284.5 91260.6 Q 86355.55 94057.65 87464.8 95377.15 Q 88574.05 96696.65 90762.1 96696.65 Q 91503.05 96696.65 92133.8 96624.15 Q 92764.55 96551.65 93351.8 96413.9 Q 93939.05 96276.15 94490.05 96065.9 Q 95041.05 95855.65 95605.1 95594.65 L 95605.1 97943.65 Q 95025.1 98220.6 94466.85 98423.6 Q 93908.6 98626.6 93321.35 98757.1 Q 92734.1 98887.6 92103.35 98945.6 Q 91472.6 99003.6 90731.65 99003.6 L 90736 99003.6 Z M 90084.95 84690.65 Q 88431.95 84690.65 87467.7 85821.65 Q 86503.45 86952.65 86345.4 89114.6 L 93479.4 89114.6 Q 93479.4 88128.6 93283.65 87309.35 Q 93087.9 86490.1 92674.65 85910.1 Q 92261.4 85330.1 91623.4 85011.1 Q 90985.4 84692.1 90086.4 84692.1 L 90084.95 84690.65 Z M 110210.8 98713.6 L 110210.8 88460.65 Q 110210.8 86575.65 109449.55 85633.15 Q 108688.3 84690.65 107064.3 84690.65 Q 105888.35 84690.65 105090.85 85067.65 Q 104293.35 85444.65 103807.6 86184.15 Q 103321.85 86923.65 103111.6 87996.65 Q 102901.35 89069.65 102901.35 90461.65 L 102901.35 98713.6 L 100262.35 98713.6 L 100262.35 82792.6 L 102408.35 82792.6 L 102785.35 84938.6 L 102930.35 84938.6 Q 103294.3 84313.65 103794.55 83856.9 Q 104294.8 83400.15 104889.3 83095.65 Q 105483.8 82791.15 106150.8 82646.15 Q 106817.8 82501.15 107513.8 82501.15 Q 110168.75 82501.15 111510 83885.9 Q 112851.25 85270.65 112851.25 88315.65 L 112851.25 98713.6 L 110212.25 98713.6 L 110210.8 98713.6 Z M 122485.8 96841.65 Q 122746.8 96841.65 123073.05 96812.65 Q 123399.3 96783.65 123703.8 96740.15 Q 124008.3 96696.65 124262.05 96638.65 Q 124515.8 96580.65 124647.75 96538.6 L 124647.75 98539.6 Q 124457.8 98626.6 124167.8 98713.6 Q 123877.8 98800.6 123529.8 98865.85 Q 123181.8 98931.1 122804.8 98967.35 Q 122427.8 99003.6 122066.75 99003.6 Q 121167.75 99003.6 120399.25 98771.6 Q 119630.75 98539.6 119072.5 97974.1 Q 118514.25 97408.6 118195.25 96444.35 Q 117876.25 95480.1 117876.25 94017.05 L 117876.25 84779.1 L 115630.2 84779.1 L 115630.2 83606.05 L 117876.25 82475.05 L 119007.25 79140.05 L 120531.2 79140.05 L 120531.2 82794.05 L 124533.2 82794.05 L 124533.2 84779.1 L 120531.2 84779.1 L 120531.2 94017.05 Q 120531.2 95422.1 120987.95 96132.6 Q 121444.7 96843.1 122488.7 96843.1 L 122485.8 96841.65 Z M 136632.75 98713.6 L 136094.8 96509.6 L 135978.8 96509.6 Q 135501.75 97160.65 135023.25 97631.9 Q 134544.75 98103.15 133979.25 98407.65 Q 133413.75 98712.15 132717.75 98857.15 Q 132021.75 99002.15 131106.8 99002.15 Q 130107.75 99002.15 129266.75 98719.4 Q 128425.75 98436.65 127809.5 97849.4 Q 127193.25 97262.15 126845.25 96370.4 Q 126497.25 95478.65 126497.25 94260.65 Q 126497.25 91882.65 128172 90606.65 Q 129846.75 89330.65 133268.75 89214.65 L 135936.75 89114.6 L 135936.75 88112.65 Q 135936.75 87142.6 135726.5 86490.1 Q 135516.25 85837.6 135117.5 85438.85 Q 134718.75 85040.1 134131.5 84866.1 Q 133544.25 84692.1 132790.25 84692.1 Q 131588.2 84692.1 130551.45 85040.1 Q 129514.7 85388.1 128557.7 85881.1 L 127629.7 83896.05 Q 128702.7 83316.05 130022.2 82910.05 Q 131341.7 82504.05 132791.7 82504.05 Q 134270.7 82504.05 135350.95 82801.3 Q 136431.2 83098.55 137134.45 83743.8 Q 137837.7 84389.05 138185.7 85389.55 Q 138533.7 86390.05 138533.7 87811.05 L 138533.7 98715.05 L 136635.65 98715.05 L 136632.75 98713.6 Z M 131789.75 96870.65 Q 132672.8 96870.65 133426.8 96595.15 Q 134180.8 96319.65 134731.8 95761.4 Q 135282.8 95203.15 135594.55 94354.9 Q 135906.3 93506.65 135906.3 92362.6 L 135906.3 90925.65 L 133831.35 91028.6 Q 132526.35 91086.6 131641.85 91318.6 Q 130757.35 91550.6 130228.1 91963.85 Q 129698.85 92377.1 129466.85 92964.35 Q 129234.85 93551.6 129234.85 94289.65 Q 129234.85 95623.65 129938.1 96247.15 Q 130641.35 96870.65 131788.3 96870.65 L 131789.75 96870.65 Z M 145962 98713.6 L 143323 98713.6 L 143323 82792.6 L 145962 82792.6 L 145962 98713.6 Z M 143120 78484.65 Q 143120 77614.65 143562.25 77223.15 Q 144004.5 76831.65 144655.55 76831.65 Q 144974.55 76831.65 145257.3 76925.9 Q 145540.05 77020.15 145750.3 77223.15 Q 145960.55 77426.15 146083.8 77737.9 Q 146207.05 78049.65 146207.05 78484.65 Q 146207.05 79325.65 145750.3 79738.9 Q 145293.55 80152.15 144655.55 80152.15 Q 144004.5 80152.15 143562.25 79746.15 Q 143120 79340.15 143120 78483.2 L 143120 78484.65 Z M 163930.75 90722.65 Q 163930.75 92710.6 163445 94254.85 Q 162959.25 95799.1 162053 96850.35 Q 161146.75 97901.6 159856.25 98452.6 Q 158565.75 99003.6 156954.8 99003.6 Q 155462.75 99003.6 154201.25 98452.6 Q 152939.75 97901.6 152019 96850.35 Q 151098.25 95799.1 150583.5 94254.85 Q 150068.75 92710.6 150068.75 90722.65 Q 150068.75 88750.65 150554.5 87220.9 Q 151040.25 85691.15 151939.25 84639.9 Q 152838.25 83588.65 154136 83044.9 Q 155433.75 82501.15 157041.8 82501.15 Q 158536.75 82501.15 159798.25 83044.9 Q 161059.75 83588.65 161980.5 84639.9 Q 162901.25 85691.15 163416 87220.9 Q 163930.75 88750.65 163930.75 90722.65  Z M 152794.75 90722.65 Q 152794.75 93754.6 153788 95284.35 Q 154781.25 96814.1 157014.25 96814.1 Q 159247.25 96814.1 160226 95284.35 Q 161204.75 93754.6 161204.75 90722.65 Q 161204.75 87693.6 160211.5 86192.85 Q 159218.25 84692.1 156985.25 84692.1 Q 154752.25 84692.1 153773.5 86192.85 Q 152794.75 87693.6 152794.75 90722.65  Z M 178050.8 98713.6 L 178050.8 88460.65 Q 178050.8 86575.65 177289.55 85633.15 Q 176528.3 84690.65 174904.3 84690.65 Q 173728.35 84690.65 172930.85 85067.65 Q 172133.35 85444.65 171647.6 86184.15 Q 171161.85 86923.65 170951.6 87996.65 Q 170741.35 89069.65 170741.35 90461.65 L 170741.35 98713.6 L 168102.35 98713.6 L 168102.35 82792.6 L 170248.35 82792.6 L 170625.35 84938.6 L 170770.35 84938.6 Q 171134.3 84313.65 171634.55 83856.9 Q 172134.8 83400.15 172729.3 83095.65 Q 173323.8 82791.15 173990.8 82646.15 Q 174657.8 82501.15 175353.8 82501.15 Q 178008.75 82501.15 179350 83885.9 Q 180691.25 85270.65 180691.25 88315.65 L 180691.25 98713.6 L 178052.25 98713.6 L 178050.8 98713.6 Z M 199230.6 99003.6 Q 197767.55 99003.6 196491.55 98546.85 Q 195215.55 98090.1 194273.05 97096.85 Q 193330.55 96103.6 192794.05 94559.35 Q 192257.55 93015.1 192257.55 90840.1 Q 192257.55 88565.05 192808.55 86977.3 Q 193359.55 85389.55 194323.8 84396.3 Q 195288.05 83403.05 196578.55 82953.55 Q 197869.05 82504.05 199348.05 82504.05 Q 200479.05 82504.05 201559.3 82750.55 Q 202639.55 82997.05 203364.55 83358.1 L 202581.55 85591.1 Q 202246.6 85446.1 201840.6 85308.35 Q 201434.6 85170.6 200999.6 85061.85 Q 200564.6 84953.1 200144.1 84887.85 Q 199723.6 84822.6 199346.6 84822.6 Q 197071.55 84822.6 196027.55 86279.85 Q 194983.55 87737.1 194983.55 90811.1 Q 194983.55 93872.05 196034.8 95285.8 Q 197086.05 96699.55 199232.05 96699.55 Q 200408 96699.55 201357.75 96431.3 Q 202307.5 96163.05 203090.5 95799.1 L 203090.5 98148.1 Q 202307.5 98570.05 201415.75 98787.55 Q 200524 99005.05 199232.05 99005.05 L 199230.6 99003.6 Z M 219841.15 90722.65 Q 219841.15 92710.6 219355.4 94254.85 Q 218869.65 95799.1 217963.4 96850.35 Q 217057.15 97901.6 215766.65 98452.6 Q 214476.15 99003.6 212865.2 99003.6 Q 211373.15 99003.6 210111.65 98452.6 Q 208850.15 97901.6 207929.4 96850.35 Q 207008.65 95799.1 206493.9 94254.85 Q 205979.15 92710.6 205979.15 90722.65 Q 205979.15 88750.65 206464.9 87220.9 Q 206950.65 85691.15 207849.65 84639.9 Q 208748.65 83588.65 210046.4 83044.9 Q 211344.15 82501.15 212952.2 82501.15 Q 214447.15 82501.15 215708.65 83044.9 Q 216970.15 83588.65 217890.9 84639.9 Q 218811.65 85691.15 219326.4 87220.9 Q 219841.15 88750.65 219841.15 90722.65  Z M 208705.15 90722.65 Q 208705.15 93754.6 209698.4 95284.35 Q 210691.65 96814.1 212924.65 96814.1 Q 215157.65 96814.1 216136.4 95284.35 Q 217115.15 93754.6 217115.15 90722.65 Q 217115.15 87693.6 216121.9 86192.85 Q 215128.65 84692.1 212895.65 84692.1 Q 210662.65 84692.1 209683.9 86192.85 Q 208705.15 87693.6 208705.15 90722.65  Z M 243083.15 98713.6 L 243083.15 88460.65 Q 243083.15 86575.65 242358.15 85633.15 Q 241633.15 84690.65 240109.2 84690.65 Q 239052.15 84690.65 238312.65 85031.4 Q 237573.15 85372.15 237101.9 86031.9 Q 236630.65 86691.65 236413.15 87670.4 Q 236195.65 88649.15 236195.65 89925.15 L 236195.65 98712.15 L 233543.6 98712.15 L 233543.6 88459.2 Q 233543.6 86574.2 232825.85 85631.7 Q 232108.1 84689.2 230587.05 84689.2 Q 229469.1 84689.2 228715.1 85066.2 Q 227961.1 85443.2 227504.35 86182.7 Q 227047.6 86922.2 226851.85 87995.2 Q 226656.1 89068.2 226656.1 90460.2 L 226656.1 98712.15 L 224017.1 98712.15 L 224017.1 82791.15 L 226163.1 82791.15 L 226540.1 84937.15 L 226685.1 84937.15 Q 227033.1 84312.2 227511.6 83855.45 Q 227990.1 83398.7 228562.85 83094.2 Q 229135.6 82789.7 229780.85 82644.7 Q 230426.1 82499.7 231093.1 82499.7 Q 232833.1 82499.7 233985.85 83137.7 Q 235138.6 83775.7 235689.6 85138.7 L 235805.6 85138.7 Q 236182.6 84455.75 236711.85 83962.75 Q 237241.1 83469.75 237871.85 83143.5 Q 238502.6 82817.25 239198.6 82657.75 Q 239894.6 82498.25 240619.6 82498.25 Q 243155.65 82498.25 244438.9 83883 Q 245722.15 85267.75 245722.15 88312.75 L 245722.15 98710.7 L 243083.15 98710.7 L 243083.15 98713.6 Z M 256880 99003.6 Q 255285 99003.6 253965.5 98467.1 Q 252646 97930.6 251696.25 96901.1 Q 250746.5 95871.6 250224.5 94349.1 Q 249702.5 92826.6 249702.5 90867.65 Q 249702.5 88895.65 250181 87344.15 Q 250659.5 85792.65 251529.5 84712.4 Q 252399.5 83632.15 253610.25 83066.65 Q 254821 82501.15 256286.95 82501.15 Q 257721 82501.15 258866.5 83015.9 Q 260012 83530.65 260809.5 84465.9 Q 261607 85401.15 262034.75 86713.4 Q 262462.5 88025.65 262462.5 89620.65 L 262462.5 91260.6 L 252428.5 91260.6 Q 252499.55 94057.65 253608.8 95377.15 Q 254718.05 96696.65 256906.1 96696.65 Q 257647.05 96696.65 258277.8 96624.15 Q 258908.55 96551.65 259495.8 96413.9 Q 260083.05 96276.15 260634.05 96065.9 Q 261185.05 95855.65 261749.1 95594.65 L 261749.1 97943.65 Q 261169.1 98220.6 260610.85 98423.6 Q 260052.6 98626.6 259465.35 98757.1 Q 258878.1 98887.6 258247.35 98945.6 Q 257616.6 99003.6 256875.65 99003.6 L 256880 99003.6 Z M 256228.95 84690.65 Q 254575.95 84690.65 253611.7 85821.65 Q 252647.45 86952.65 252489.4 89114.6 L 259623.4 89114.6 Q 259623.4 88128.6 259427.65 87309.35 Q 259231.9 86490.1 258818.65 85910.1 Q 258405.4 85330.1 257767.4 85011.1 Q 257129.4 84692.1 256230.4 84692.1 L 256228.95 84690.65 Z M 275935.75 94347.65 Q 275935.75 95507.65 275515.25 96377.65 Q 275094.75 97247.65 274304.5 97834.9 Q 273514.25 98422.15 272397.75 98712.15 Q 271281.25 99002.15 269889.25 99002.15 Q 268310.2 99002.15 267179.2 98748.4 Q 266048.2 98494.65 265191.25 98001.65 L 265191.25 95594.65 Q 265642.2 95826.65 266193.2 96051.4 Q 266744.2 96276.15 267353.2 96450.15 Q 267962.2 96624.15 268607.45 96732.9 Q 269252.7 96841.65 269890.7 96841.65 Q 270834.65 96841.65 271494.4 96682.15 Q 272154.15 96522.65 272567.4 96225.4 Q 272980.65 95928.15 273169.15 95500.4 Q 273357.65 95072.65 273357.65 94550.65 Q 273357.65 94102.6 273212.65 93740.1 Q 273067.65 93377.6 272683.4 93022.35 Q 272299.15 92667.1 271632.15 92304.6 Q 270965.15 91942.1 269921.15 91494.05 Q 268877.15 91043.1 268043.4 90608.1 Q 267209.65 90173.1 266629.65 89636.6 Q 266049.65 89100.1 265737.9 88396.85 Q 265426.15 87693.6 265426.15 86720.65 Q 265426.15 85705.65 265824.9 84915.4 Q 266223.65 84125.15 266948.65 83588.65 Q 267673.65 83052.15 268688.65 82776.65 Q 269703.65 82501.15 270950.65 82501.15 Q 272355.7 82501.15 273522.95 82805.65 Q 274690.2 83110.15 275734.2 83603.15 L 274819.25 85733.2 Q 273878.2 85314.15 272884.95 85002.4 Q 271891.7 84690.65 270863.65 84690.65 Q 269384.65 84690.65 268674.15 85176.4 Q 267963.65 85662.15 267963.65 86561.15 Q 267963.65 87067.2 268130.4 87444.2 Q 268297.15 87821.2 268703.15 88154.7 Q 269109.15 88488.2 269790.65 88828.95 Q 270472.15 89169.7 271487.15 89588.75 Q 272531.15 90023.75 273350.4 90458.75 Q 274169.65 90893.75 274749.65 91437.5 Q 275329.65 91981.25 275634.15 92677.25 Q 275938.65 93373.25 275938.65 94343.3 L 275935.75 94347.65 Z M 135821.95 125282.65 Q 135821.95 127270.6 135336.2 128814.85 Q 134850.45 130359.1 133944.2 131410.35 Q 133037.95 132461.6 131747.45 133012.6 Q 130456.95 133563.6 128846 133563.6 Q 127353.95 133563.6 126092.45 133012.6 Q 124830.95 132461.6 123910.2 131410.35 Q 122989.45 130359.1 122474.7 128814.85 Q 121959.95 127270.6 121959.95 125282.65 Q 121959.95 123310.65 122445.7 121780.9 Q 122931.45 120251.15 123830.45 119199.9 Q 124729.45 118148.65 126027.2 117604.9 Q 127324.95 117061.15 128933 117061.15 Q 130427.95 117061.15 131689.45 117604.9 Q 132950.95 118148.65 133871.7 119199.9 Q 134792.45 120251.15 135307.2 121780.9 Q 135821.95 123310.65 135821.95 125282.65  Z M 124685.95 125282.65 Q 124685.95 128314.6 125679.2 129844.35 Q 126672.45 131374.1 128905.45 131374.1 Q 131138.45 131374.1 132117.2 129844.35 Q 133095.95 128314.6 133095.95 125282.65 Q 133095.95 122253.6 132102.7 120752.85 Q 131109.45 119252.1 128876.45 119252.1 Q 126643.45 119252.1 125664.7 120752.85 Q 124685.95 122253.6 124685.95 125282.65  Z M 150305.95 133273.6 L 149913 131140.65 L 149768 131140.65 Q 149406.95 131765.6 148906.7 132222.35 Q 148406.45 132679.1 147811.95 132976.35 Q 147217.45 133273.6 146550.45 133418.6 Q 145883.45 133563.6 145187.45 133563.6 Q 143869.4 133563.6 142868.9 133230.1 Q 141868.4 132896.6 141201.4 132186.1 Q 140534.4 131475.6 140193.65 130373.6 Q 139852.9 129271.6 139852.9 127747.65 L 139852.9 117352.6 L 142491.9 117352.6 L 142491.9 127602.65 Q 142491.9 129487.65 143260.4 130430.15 Q 144028.9 131372.65 145639.85 131372.65 Q 146812.9 131372.65 147610.4 130995.65 Q 148407.9 130618.65 148893.65 129886.4 Q 149379.4 129154.15 149589.65 128081.15 Q 149799.9 127008.15 149799.9 125616.15 L 149799.9 117351.15 L 152438.9 117351.15 L 152438.9 133272.15 L 150308.85 133272.15 L 150305.95 133273.6 Z M 162217 131401.65 Q 162478 131401.65 162804.25 131372.65 Q 163130.5 131343.65 163435 131300.15 Q 163739.5 131256.65 163993.25 131198.65 Q 164247 131140.65 164378.95 131098.6 L 164378.95 133099.6 Q 164189 133186.6 163899 133273.6 Q 163609 133360.6 163261 133425.85 Q 162913 133491.1 162536 133527.35 Q 162159 133563.6 161797.95 133563.6 Q 160898.95 133563.6 160130.45 133331.6 Q 159361.95 133099.6 158803.7 132534.1 Q 158245.45 131968.6 157926.45 131004.35 Q 157607.45 130040.1 157607.45 128577.05 L 157607.45 119339.1 L 155361.4 119339.1 L 155361.4 118166.05 L 157607.45 117035.05 L 158738.45 113700.05 L 160262.4 113700.05 L 160262.4 117354.05 L 164264.4 117354.05 L 164264.4 119339.1 L 160262.4 119339.1 L 160262.4 128577.05 Q 160262.4 129982.1 160719.15 130692.6 Q 161175.9 131403.1 162219.9 131403.1 L 162217 131401.65 Z M 174625.75 131662.65 Q 174625.75 131111.65 174770.75 130727.4 Q 174915.75 130343.15 175162.25 130103.9 Q 175408.75 129864.65 175742.25 129755.9 Q 176075.75 129647.15 176465.8 129647.15 Q 176842.8 129647.15 177183.55 129755.9 Q 177524.3 129864.65 177770.8 130103.9 Q 178017.3 130343.15 178162.3 130727.4 Q 178307.3 131111.65 178307.3 131662.65 Q 178307.3 132200.6 178162.3 132584.85 Q 178017.3 132969.1 177770.8 133217.05 Q 177524.3 133465 177183.55 133581 Q 176842.8 133697 176465.8 133697 Q 176075.75 133697 175742.25 133581 Q 175408.75 133465 175162.25 133217.05 Q 174915.75 132969.1 174770.75 132584.85 Q 174625.75 132200.6 174625.75 131662.65  Z " fill-rule="nonzero" style="fill:#000000;;fill-opacity:1;"/>
</svg>