<svg version="1.1" x="0" y="0" width="100%" height="100%" viewBox="0 0 322252.8 107776" xmlns="http://www.w3.org/2000/svg">
  <path d="M 17885.2 29593.6 L 10200.2 29593.6 L 10200.2 28114.6 L 12694.2 27518.65 L 12694.2 10466.65 L 10200.2 9873.6 L 10200.2 8394.6 L 17885.2 8394.6 L 17885.2 9873.6 L 15391.2 10466.65 L 15391.2 27518.65 L 17885.2 28114.6 L 17885.2 29593.6 Z M 31465.2 29593.6 L 31465.2 19340.65 Q 31465.2 17455.65 30703.95 16513.15 Q 29942.7 15570.65 28318.7 15570.65 Q 27142.75 15570.65 26345.25 15947.65 Q 25547.75 16324.65 25062 17064.15 Q 24576.25 17803.65 24366 18876.65 Q 24155.75 19949.65 24155.75 21341.65 L 24155.75 29593.6 L 21516.75 29593.6 L 21516.75 13672.6 L 23662.75 13672.6 L 24039.75 15818.6 L 24184.75 15818.6 Q 24548.7 15193.65 25048.95 14736.9 Q 25549.2 14280.15 26143.7 13975.65 Q 26738.2 13671.15 27405.2 13526.15 Q 28072.2 13381.15 28768.2 13381.15 Q 31423.15 13381.15 32764.4 14765.9 Q 34105.65 16150.65 34105.65 19195.65 L 34105.65 29593.6 L 31466.65 29593.6 L 31465.2 29593.6 Z M 48454.15 25227.65 Q 48454.15 26387.65 48033.65 27257.65 Q 47613.15 28127.65 46822.9 28714.9 Q 46032.65 29302.15 44916.15 29592.15 Q 43799.65 29882.15 42407.65 29882.15 Q 40828.6 29882.15 39697.6 29628.4 Q 38566.6 29374.65 37709.65 28881.65 L 37709.65 26474.65 Q 38160.6 26706.65 38711.6 26931.4 Q 39262.6 27156.15 39871.6 27330.15 Q 40480.6 27504.15 41125.85 27612.9 Q 41771.1 27721.65 42409.1 27721.65 Q 43353.05 27721.65 44012.8 27562.15 Q 44672.55 27402.65 45085.8 27105.4 Q 45499.05 26808.15 45687.55 26380.4 Q 45876.05 25952.65 45876.05 25430.65 Q 45876.05 24982.6 45731.05 24620.1 Q 45586.05 24257.6 45201.8 23902.35 Q 44817.55 23547.1 44150.55 23184.6 Q 43483.55 22822.1 42439.55 22374.05 Q 41395.55 21923.1 40561.8 21488.1 Q 39728.05 21053.1 39148.05 20516.6 Q 38568.05 19980.1 38256.3 19276.85 Q 37944.55 18573.6 37944.55 17600.65 Q 37944.55 16585.65 38343.3 15795.4 Q 38742.05 15005.15 39467.05 14468.65 Q 40192.05 13932.15 41207.05 13656.65 Q 42222.05 13381.15 43469.05 13381.15 Q 44874.1 13381.15 46041.35 13685.65 Q 47208.6 13990.15 48252.6 14483.15 L 47337.65 16613.2 Q 46396.6 16194.15 45403.35 15882.4 Q 44410.1 15570.65 43382.05 15570.65 Q 41903.05 15570.65 41192.55 16056.4 Q 40482.05 16542.15 40482.05 17441.15 Q 40482.05 17947.2 40648.8 18324.2 Q 40815.55 18701.2 41221.55 19034.7 Q 41627.55 19368.2 42309.05 19708.95 Q 42990.55 20049.7 44005.55 20468.75 Q 45049.55 20903.75 45868.8 21338.75 Q 46688.05 21773.75 47268.05 22317.5 Q 47848.05 22861.25 48152.55 23557.25 Q 48457.05 24253.25 48457.05 25223.3 L 48454.15 25227.65 Z M 58582.4 29883.6 Q 56987.4 29883.6 55667.9 29347.1 Q 54348.4 28810.6 53398.65 27781.1 Q 52448.9 26751.6 51926.9 25229.1 Q 51404.9 23706.6 51404.9 21747.65 Q 51404.9 19775.65 51883.4 18224.15 Q 52361.9 16672.65 53231.9 15592.4 Q 54101.9 14512.15 55312.65 13946.65 Q 56523.4 13381.15 57989.35 13381.15 Q 59423.4 13381.15 60568.9 13895.9 Q 61714.4 14410.65 62511.9 15345.9 Q 63309.4 16281.15 63737.15 17593.4 Q 64164.9 18905.65 64164.9 20500.65 L 64164.9 22140.6 L 54130.9 22140.6 Q 54201.95 24937.65 55311.2 26257.15 Q 56420.45 27576.65 58608.5 27576.65 Q 59349.45 27576.65 59980.2 27504.15 Q 60610.95 27431.65 61198.2 27293.9 Q 61785.45 27156.15 62336.45 26945.9 Q 62887.45 26735.65 63451.5 26474.65 L 63451.5 28823.65 Q 62871.5 29100.6 62313.25 29303.6 Q 61755 29506.6 61167.75 29637.1 Q 60580.5 29767.6 59949.75 29825.6 Q 59319 29883.6 58578.05 29883.6 L 58582.4 29883.6 Z M 57931.35 15570.65 Q 56278.35 15570.65 55314.1 16701.65 Q 54349.85 17832.65 54191.8 19994.6 L 61325.8 19994.6 Q 61325.8 19008.6 61130.05 18189.35 Q 60934.3 17370.1 60521.05 16790.1 Q 60107.8 16210.1 59469.8 15891.1 Q 58831.8 15572.1 57932.8 15572.1 L 57931.35 15570.65 Z M 74999.15 13382.6 Q 75418.2 13382.6 75940.2 13418.85 Q 76462.2 13455.1 76839.2 13529.05 L 76491.2 15965.05 Q 76085.2 15891.1 75657.45 15840.35 Q 75229.7 15789.6 74852.7 15789.6 Q 73937.75 15789.6 73183.75 16159.35 Q 72429.75 16529.1 71886 17217.85 Q 71342.25 17906.6 71045 18870.85 Q 70747.75 19835.1 70747.75 21011.05 L 70747.75 29595.05 L 68108.75 29595.05 L 68108.75 13674.05 L 70254.75 13674.05 L 70573.75 16587.1 L 70689.75 16587.1 Q 71053.7 15965.05 71466.95 15385.05 Q 71880.2 14805.05 72394.95 14362.8 Q 72909.7 13920.55 73547.7 13652.3 Q 74185.7 13384.05 74997.7 13384.05 L 74999.15 13382.6 Z M 84802.6 27721.65 Q 85063.6 27721.65 85389.85 27692.65 Q 85716.1 27663.65 86020.6 27620.15 Q 86325.1 27576.65 86578.85 27518.65 Q 86832.6 27460.65 86964.55 27418.6 L 86964.55 29419.6 Q 86774.6 29506.6 86484.6 29593.6 Q 86194.6 29680.6 85846.6 29745.85 Q 85498.6 29811.1 85121.6 29847.35 Q 84744.6 29883.6 84383.55 29883.6 Q 83484.55 29883.6 82716.05 29651.6 Q 81947.55 29419.6 81389.3 28854.1 Q 80831.05 28288.6 80512.05 27324.35 Q 80193.05 26360.1 80193.05 24897.05 L 80193.05 15659.1 L 77947 15659.1 L 77947 14486.05 L 80193.05 13355.05 L 81324.05 10020.05 L 82848 10020.05 L 82848 13674.05 L 86850 13674.05 L 86850 15659.1 L 82848 15659.1 L 82848 24897.05 Q 82848 26302.1 83304.75 27012.6 Q 83761.5 27723.1 84805.5 27723.1 L 84802.6 27721.65 Z M 95223.4 13672.6 L 97965.35 13672.6 L 101081.4 22559.65 Q 101284.4 23139.65 101494.65 23777.65 Q 101704.9 24415.65 101886.15 25053.65 Q 102067.4 25691.65 102197.9 26286.15 Q 102328.4 26880.65 102386.4 27389.6 L 102473.4 27389.6 Q 102547.35 27025.65 102706.85 26402.15 Q 102866.35 25778.65 103062.1 25075.4 Q 103257.85 24372.15 103468.1 23690.65 Q 103678.35 23009.15 103836.4 22529.2 L 106723.35 13671.15 L 109449.35 13671.15 L 103156.35 31667.1 Q 102750.35 32840.15 102279.1 33775.4 Q 101807.85 34710.65 101184.35 35363.15 Q 100560.85 36015.65 99719.85 36370.9 Q 98878.85 36726.15 97718.85 36726.15 Q 96964.85 36726.15 96413.85 36646.4 Q 95862.85 36566.65 95472.8 36479.65 L 95472.8 34375.7 Q 95775.85 34449.65 96239.85 34500.4 Q 96703.85 34551.15 97212.8 34551.15 Q 97908.8 34551.15 98416.3 34384.4 Q 98923.8 34217.65 99300.8 33898.65 Q 99677.8 33579.65 99946.05 33115.65 Q 100214.3 32651.65 100433.25 32055.7 L 101258.3 29735.7 L 95226.3 13669.7 L 95223.4 13672.6 Z M 125018.75 21602.65 Q 125018.75 23590.6 124533 25134.85 Q 124047.25 26679.1 123141 27730.35 Q 122234.75 28781.6 120944.25 29332.6 Q 119653.75 29883.6 118042.8 29883.6 Q 116550.75 29883.6 115289.25 29332.6 Q 114027.75 28781.6 113107 27730.35 Q 112186.25 26679.1 111671.5 25134.85 Q 111156.75 23590.6 111156.75 21602.65 Q 111156.75 19630.65 111642.5 18100.9 Q 112128.25 16571.15 113027.25 15519.9 Q 113926.25 14468.65 115224 13924.9 Q 116521.75 13381.15 118129.8 13381.15 Q 119624.75 13381.15 120886.25 13924.9 Q 122147.75 14468.65 123068.5 15519.9 Q 123989.25 16571.15 124504 18100.9 Q 125018.75 19630.65 125018.75 21602.65  Z M 113882.75 21602.65 Q 113882.75 24634.6 114876 26164.35 Q 115869.25 27694.1 118102.25 27694.1 Q 120335.25 27694.1 121314 26164.35 Q 122292.75 24634.6 122292.75 21602.65 Q 122292.75 18573.6 121299.5 17072.85 Q 120306.25 15572.1 118073.25 15572.1 Q 115840.25 15572.1 114861.5 17072.85 Q 113882.75 18573.6 113882.75 21602.65  Z M 139502.75 29593.6 L 139109.8 27460.65 L 138964.8 27460.65 Q 138603.75 28085.6 138103.5 28542.35 Q 137603.25 28999.1 137008.75 29296.35 Q 136414.25 29593.6 135747.25 29738.6 Q 135080.25 29883.6 134384.25 29883.6 Q 133066.2 29883.6 132065.7 29550.1 Q 131065.2 29216.6 130398.2 28506.1 Q 129731.2 27795.6 129390.45 26693.6 Q 129049.7 25591.6 129049.7 24067.65 L 129049.7 13672.6 L 131688.7 13672.6 L 131688.7 23922.65 Q 131688.7 25807.65 132457.2 26750.15 Q 133225.7 27692.65 134836.65 27692.65 Q 136009.7 27692.65 136807.2 27315.65 Q 137604.7 26938.65 138090.45 26206.4 Q 138576.2 25474.15 138786.45 24401.15 Q 138996.7 23328.15 138996.7 21936.15 L 138996.7 13671.15 L 141635.7 13671.15 L 141635.7 29592.15 L 139505.65 29592.15 L 139502.75 29593.6 Z M 153488.75 13382.6 Q 153907.8 13382.6 154429.8 13418.85 Q 154951.8 13455.1 155328.8 13529.05 L 154980.8 15965.05 Q 154574.8 15891.1 154147.05 15840.35 Q 153719.3 15789.6 153342.3 15789.6 Q 152427.35 15789.6 151673.35 16159.35 Q 150919.35 16529.1 150375.6 17217.85 Q 149831.85 17906.6 149534.6 18870.85 Q 149237.35 19835.1 149237.35 21011.05 L 149237.35 29595.05 L 146598.35 29595.05 L 146598.35 13674.05 L 148744.35 13674.05 L 149063.35 16587.1 L 149179.35 16587.1 Q 149543.3 15965.05 149956.55 15385.05 Q 150369.8 14805.05 150884.55 14362.8 Q 151399.3 13920.55 152037.3 13652.3 Q 152675.3 13384.05 153487.3 13384.05 L 153488.75 13382.6 Z M 172197 29883.6 Q 170733.95 29883.6 169457.95 29426.85 Q 168181.95 28970.1 167239.45 27976.85 Q 166296.95 26983.6 165760.45 25439.35 Q 165223.95 23895.1 165223.95 21720.1 Q 165223.95 19445.05 165774.95 17857.3 Q 166325.95 16269.55 167290.2 15276.3 Q 168254.45 14283.05 169544.95 13833.55 Q 170835.45 13384.05 172314.45 13384.05 Q 173445.45 13384.05 174525.7 13630.55 Q 175605.95 13877.05 176330.95 14238.1 L 175547.95 16471.1 Q 175213 16326.1 174807 16188.35 Q 174401 16050.6 173966 15941.85 Q 173531 15833.1 173110.5 15767.85 Q 172690 15702.6 172313 15702.6 Q 170037.95 15702.6 168993.95 17159.85 Q 167949.95 18617.1 167949.95 21691.1 Q 167949.95 24752.05 169001.2 26165.8 Q 170052.45 27579.55 172198.45 27579.55 Q 173374.4 27579.55 174324.15 27311.3 Q 175273.9 27043.05 176056.9 26679.1 L 176056.9 29028.1 Q 175273.9 29450.05 174382.15 29667.55 Q 173490.4 29885.05 172198.45 29885.05 L 172197 29883.6 Z M 192807.55 21602.65 Q 192807.55 23590.6 192321.8 25134.85 Q 191836.05 26679.1 190929.8 27730.35 Q 190023.55 28781.6 188733.05 29332.6 Q 187442.55 29883.6 185831.6 29883.6 Q 184339.55 29883.6 183078.05 29332.6 Q 181816.55 28781.6 180895.8 27730.35 Q 179975.05 26679.1 179460.3 25134.85 Q 178945.55 23590.6 178945.55 21602.65 Q 178945.55 19630.65 179431.3 18100.9 Q 179917.05 16571.15 180816.05 15519.9 Q 181715.05 14468.65 183012.8 13924.9 Q 184310.55 13381.15 185918.6 13381.15 Q 187413.55 13381.15 188675.05 13924.9 Q 189936.55 14468.65 190857.3 15519.9 Q 191778.05 16571.15 192292.8 18100.9 Q 192807.55 19630.65 192807.55 21602.65  Z M 181671.55 21602.65 Q 181671.55 24634.6 182664.8 26164.35 Q 183658.05 27694.1 185891.05 27694.1 Q 188124.05 27694.1 189102.8 26164.35 Q 190081.55 24634.6 190081.55 21602.65 Q 190081.55 18573.6 189088.3 17072.85 Q 188095.05 15572.1 185862.05 15572.1 Q 183629.05 15572.1 182650.3 17072.85 Q 181671.55 18573.6 181671.55 21602.65  Z M 206927.6 29593.6 L 206927.6 19340.65 Q 206927.6 17455.65 206166.35 16513.15 Q 205405.1 15570.65 203781.1 15570.65 Q 202605.15 15570.65 201807.65 15947.65 Q 201010.15 16324.65 200524.4 17064.15 Q 200038.65 17803.65 199828.4 18876.65 Q 199618.15 19949.65 199618.15 21341.65 L 199618.15 29593.6 L 196979.15 29593.6 L 196979.15 13672.6 L 199125.15 13672.6 L 199502.15 15818.6 L 199647.15 15818.6 Q 200011.1 15193.65 200511.35 14736.9 Q 201011.6 14280.15 201606.1 13975.65 Q 202200.6 13671.15 202867.6 13526.15 Q 203534.6 13381.15 204230.6 13381.15 Q 206885.55 13381.15 208226.8 14765.9 Q 209568.05 16150.65 209568.05 19195.65 L 209568.05 29593.6 L 206929.05 29593.6 L 206927.6 29593.6 Z M 219202.6 27721.65 Q 219463.6 27721.65 219789.85 27692.65 Q 220116.1 27663.65 220420.6 27620.15 Q 220725.1 27576.65 220978.85 27518.65 Q 221232.6 27460.65 221364.55 27418.6 L 221364.55 29419.6 Q 221174.6 29506.6 220884.6 29593.6 Q 220594.6 29680.6 220246.6 29745.85 Q 219898.6 29811.1 219521.6 29847.35 Q 219144.6 29883.6 218783.55 29883.6 Q 217884.55 29883.6 217116.05 29651.6 Q 216347.55 29419.6 215789.3 28854.1 Q 215231.05 28288.6 214912.05 27324.35 Q 214593.05 26360.1 214593.05 24897.05 L 214593.05 15659.1 L 212347 15659.1 L 212347 14486.05 L 214593.05 13355.05 L 215724.05 10020.05 L 217248 10020.05 L 217248 13674.05 L 221250 13674.05 L 221250 15659.1 L 217248 15659.1 L 217248 24897.05 Q 217248 26302.1 217704.75 27012.6 Q 218161.5 27723.1 219205.5 27723.1 L 219202.6 27721.65 Z M 230665.6 29883.6 Q 229070.6 29883.6 227751.1 29347.1 Q 226431.6 28810.6 225481.85 27781.1 Q 224532.1 26751.6 224010.1 25229.1 Q 223488.1 23706.6 223488.1 21747.65 Q 223488.1 19775.65 223966.6 18224.15 Q 224445.1 16672.65 225315.1 15592.4 Q 226185.1 14512.15 227395.85 13946.65 Q 228606.6 13381.15 230072.55 13381.15 Q 231506.6 13381.15 232652.1 13895.9 Q 233797.6 14410.65 234595.1 15345.9 Q 235392.6 16281.15 235820.35 17593.4 Q 236248.1 18905.65 236248.1 20500.65 L 236248.1 22140.6 L 226214.1 22140.6 Q 226285.15 24937.65 227394.4 26257.15 Q 228503.65 27576.65 230691.7 27576.65 Q 231432.65 27576.65 232063.4 27504.15 Q 232694.15 27431.65 233281.4 27293.9 Q 233868.65 27156.15 234419.65 26945.9 Q 234970.65 26735.65 235534.7 26474.65 L 235534.7 28823.65 Q 234954.7 29100.6 234396.45 29303.6 Q 233838.2 29506.6 233250.95 29637.1 Q 232663.7 29767.6 232032.95 29825.6 Q 231402.2 29883.6 230661.25 29883.6 L 230665.6 29883.6 Z M 230014.55 15570.65 Q 228361.55 15570.65 227397.3 16701.65 Q 226433.05 17832.65 226275 19994.6 L 233409 19994.6 Q 233409 19008.6 233213.25 18189.35 Q 233017.5 17370.1 232604.25 16790.1 Q 232191 16210.1 231553 15891.1 Q 230915 15572.1 230016 15572.1 L 230014.55 15570.65 Z M 250140.4 29593.6 L 250140.4 19340.65 Q 250140.4 17455.65 249379.15 16513.15 Q 248617.9 15570.65 246993.9 15570.65 Q 245817.95 15570.65 245020.45 15947.65 Q 244222.95 16324.65 243737.2 17064.15 Q 243251.45 17803.65 243041.2 18876.65 Q 242830.95 19949.65 242830.95 21341.65 L 242830.95 29593.6 L 240191.95 29593.6 L 240191.95 13672.6 L 242337.95 13672.6 L 242714.95 15818.6 L 242859.95 15818.6 Q 243223.9 15193.65 243724.15 14736.9 Q 244224.4 14280.15 244818.9 13975.65 Q 245413.4 13671.15 246080.4 13526.15 Q 246747.4 13381.15 247443.4 13381.15 Q 250098.35 13381.15 251439.6 14765.9 Q 252780.85 16150.65 252780.85 19195.65 L 252780.85 29593.6 L 250141.85 29593.6 L 250140.4 29593.6 Z M 262415.4 27721.65 Q 262676.4 27721.65 263002.65 27692.65 Q 263328.9 27663.65 263633.4 27620.15 Q 263937.9 27576.65 264191.65 27518.65 Q 264445.4 27460.65 264577.35 27418.6 L 264577.35 29419.6 Q 264387.4 29506.6 264097.4 29593.6 Q 263807.4 29680.6 263459.4 29745.85 Q 263111.4 29811.1 262734.4 29847.35 Q 262357.4 29883.6 261996.35 29883.6 Q 261097.35 29883.6 260328.85 29651.6 Q 259560.35 29419.6 259002.1 28854.1 Q 258443.85 28288.6 258124.85 27324.35 Q 257805.85 26360.1 257805.85 24897.05 L 257805.85 15659.1 L 255559.8 15659.1 L 255559.8 14486.05 L 257805.85 13355.05 L 258936.85 10020.05 L 260460.8 10020.05 L 260460.8 13674.05 L 264462.8 13674.05 L 264462.8 15659.1 L 260460.8 15659.1 L 260460.8 24897.05 Q 260460.8 26302.1 260917.55 27012.6 Q 261374.3 27723.1 262418.3 27723.1 L 262415.4 27721.65 Z M 270311.4 26142.6 L 270530.35 26474.65 Q 270327.35 27257.65 270044.6 28142.15 Q 269761.85 29026.65 269421.1 29927.1 Q 269080.35 30827.55 268710.6 31719.3 Q 268340.85 32611.05 267979.8 33423.05 L 265978.8 33423.05 Q 266194.85 32540 266405.1 31583 Q 266615.35 30626 266811.1 29676.25 Q 267006.85 28726.5 267166.35 27820.25 Q 267325.85 26914 267441.85 26146.95 L 270312.85 26146.95 L 270311.4 26142.6 Z M 291615.15 29593.6 L 291077.2 27389.6 L 290961.2 27389.6 Q 290484.15 28040.65 290005.65 28511.9 Q 289527.15 28983.15 288961.65 29287.65 Q 288396.15 29592.15 287700.15 29737.15 Q 287004.15 29882.15 286089.2 29882.15 Q 285090.15 29882.15 284249.15 29599.4 Q 283408.15 29316.65 282791.9 28729.4 Q 282175.65 28142.15 281827.65 27250.4 Q 281479.65 26358.65 281479.65 25140.65 Q 281479.65 22762.65 283154.4 21486.65 Q 284829.15 20210.65 288251.15 20094.65 L 290919.15 19994.6 L 290919.15 18992.65 Q 290919.15 18022.6 290708.9 17370.1 Q 290498.65 16717.6 290099.9 16318.85 Q 289701.15 15920.1 289113.9 15746.1 Q 288526.65 15572.1 287772.65 15572.1 Q 286570.6 15572.1 285533.85 15920.1 Q 284497.1 16268.1 283540.1 16761.1 L 282612.1 14776.05 Q 283685.1 14196.05 285004.6 13790.05 Q 286324.1 13384.05 287774.1 13384.05 Q 289253.1 13384.05 290333.35 13681.3 Q 291413.6 13978.55 292116.85 14623.8 Q 292820.1 15269.05 293168.1 16269.55 Q 293516.1 17270.05 293516.1 18691.05 L 293516.1 29595.05 L 291618.05 29595.05 L 291615.15 29593.6 Z M 286772.15 27750.65 Q 287655.2 27750.65 288409.2 27475.15 Q 289163.2 27199.65 289714.2 26641.4 Q 290265.2 26083.15 290576.95 25234.9 Q 290888.7 24386.65 290888.7 23242.6 L 290888.7 21805.65 L 288813.75 21908.6 Q 287508.75 21966.6 286624.25 22198.6 Q 285739.75 22430.6 285210.5 22843.85 Q 284681.25 23257.1 284449.25 23844.35 Q 284217.25 24431.6 284217.25 25169.65 Q 284217.25 26503.65 284920.5 27127.15 Q 285623.75 27750.65 286770.7 27750.65 L 286772.15 27750.65 Z M 308252.4 29593.6 L 308252.4 19340.65 Q 308252.4 17455.65 307491.15 16513.15 Q 306729.9 15570.65 305105.9 15570.65 Q 303929.95 15570.65 303132.45 15947.65 Q 302334.95 16324.65 301849.2 17064.15 Q 301363.45 17803.65 301153.2 18876.65 Q 300942.95 19949.65 300942.95 21341.65 L 300942.95 29593.6 L 298303.95 29593.6 L 298303.95 13672.6 L 300449.95 13672.6 L 300826.95 15818.6 L 300971.95 15818.6 Q 301335.9 15193.65 301836.15 14736.9 Q 302336.4 14280.15 302930.9 13975.65 Q 303525.4 13671.15 304192.4 13526.15 Q 304859.4 13381.15 305555.4 13381.15 Q 308210.35 13381.15 309551.6 14765.9 Q 310892.85 16150.65 310892.85 19195.65 L 310892.85 29593.6 L 308253.85 29593.6 L 308252.4 29593.6 Z M 26428.8 64443.6 Q 24833.8 64443.6 23514.3 63907.1 Q 22194.8 63370.6 21245.05 62341.1 Q 20295.3 61311.6 19773.3 59789.1 Q 19251.3 58266.6 19251.3 56307.65 Q 19251.3 54335.65 19729.8 52784.15 Q 20208.3 51232.65 21078.3 50152.4 Q 21948.3 49072.15 23159.05 48506.65 Q 24369.8 47941.15 25835.75 47941.15 Q 27269.8 47941.15 28415.3 48455.9 Q 29560.8 48970.65 30358.3 49905.9 Q 31155.8 50841.15 31583.55 52153.4 Q 32011.3 53465.65 32011.3 55060.65 L 32011.3 56700.6 L 21977.3 56700.6 Q 22048.35 59497.65 23157.6 60817.15 Q 24266.85 62136.65 26454.9 62136.65 Q 27195.85 62136.65 27826.6 62064.15 Q 28457.35 61991.65 29044.6 61853.9 Q 29631.85 61716.15 30182.85 61505.9 Q 30733.85 61295.65 31297.9 61034.65 L 31297.9 63383.65 Q 30717.9 63660.6 30159.65 63863.6 Q 29601.4 64066.6 29014.15 64197.1 Q 28426.9 64327.6 27796.15 64385.6 Q 27165.4 64443.6 26424.45 64443.6 L 26428.8 64443.6 Z M 25777.75 50130.65 Q 24124.75 50130.65 23160.5 51261.65 Q 22196.25 52392.65 22038.2 54554.6 L 29172.2 54554.6 Q 29172.2 53568.6 28976.45 52749.35 Q 28780.7 51930.1 28367.45 51350.1 Q 27954.2 50770.1 27316.2 50451.1 Q 26678.2 50132.1 25779.2 50132.1 L 25777.75 50130.65 Z M 45903.6 64153.6 L 45903.6 53900.65 Q 45903.6 52015.65 45142.35 51073.15 Q 44381.1 50130.65 42757.1 50130.65 Q 41581.15 50130.65 40783.65 50507.65 Q 39986.15 50884.65 39500.4 51624.15 Q 39014.65 52363.65 38804.4 53436.65 Q 38594.15 54509.65 38594.15 55901.65 L 38594.15 64153.6 L 35955.15 64153.6 L 35955.15 48232.6 L 38101.15 48232.6 L 38478.15 50378.6 L 38623.15 50378.6 Q 38987.1 49753.65 39487.35 49296.9 Q 39987.6 48840.15 40582.1 48535.65 Q 41176.6 48231.15 41843.6 48086.15 Q 42510.6 47941.15 43206.6 47941.15 Q 45861.55 47941.15 47202.8 49325.9 Q 48544.05 50710.65 48544.05 53755.65 L 48544.05 64153.6 L 45905.05 64153.6 L 45903.6 64153.6 Z M 65631.6 48232.6 L 65631.6 49869.65 L 62776.55 50262.6 Q 63182.55 50768.65 63458.05 51558.9 Q 63733.55 52349.15 63733.55 53348.2 Q 63733.55 54450.2 63392.8 55385.45 Q 63052.05 56320.7 62363.3 57002.2 Q 61674.55 57683.7 60659.55 58067.95 Q 59644.55 58452.2 58294.6 58452.2 Q 57975.6 58452.2 57656.6 58444.95 Q 57337.6 58437.7 57134.6 58392.75 Q 56889.55 58537.75 56650.3 58719 Q 56411.05 58900.25 56215.3 59132.25 Q 56019.55 59364.25 55896.3 59654.25 Q 55773.05 59944.25 55773.05 60292.25 Q 55773.05 60682.3 55947.05 60921.55 Q 56121.05 61160.8 56418.3 61291.3 Q 56715.55 61421.8 57121.55 61465.3 Q 57527.55 61508.8 57975.6 61508.8 L 60527.6 61508.8 Q 61877.55 61508.8 62805.55 61849.55 Q 63733.55 62190.3 64320.8 62770.3 Q 64908.05 63350.3 65169.05 64140.55 Q 65430.05 64930.8 65430.05 65816.75 Q 65430.05 67092.75 64958.8 68107.75 Q 64487.55 69122.75 63516.05 69826 Q 62544.55 70529.25 61058.3 70906.25 Q 59572.05 71283.25 57558 71283.25 Q 56005.05 71283.25 54845.05 70978.75 Q 53685.05 70674.25 52916.55 70094.25 Q 52148.05 69514.25 51763.8 68695 Q 51379.55 67875.75 51379.55 66844.8 Q 51379.55 65974.8 51662.3 65315.05 Q 51945.05 64655.3 52423.55 64175.35 Q 52902.05 63695.4 53532.8 63390.9 Q 54163.55 63086.4 54843.6 62928.35 Q 54234.6 62651.4 53843.1 62056.9 Q 53451.6 61462.4 53451.6 60695.35 Q 53451.6 59809.4 53915.6 59164.15 Q 54379.6 58518.9 55381.55 57909.9 Q 54756.6 57648.9 54241.85 57192.15 Q 53727.1 56735.4 53371.85 56148.15 Q 53016.6 55560.9 52820.85 54864.9 Q 52625.1 54168.9 52625.1 53427.95 Q 52625.1 52138.9 52987.6 51123.9 Q 53350.1 50108.9 54060.6 49398.4 Q 54771.1 48687.9 55829.6 48310.9 Q 56888.1 47933.9 58293.15 47933.9 Q 58831.1 47933.9 59403.85 48013.65 Q 59976.6 48093.4 60369.55 48225.35 L 65631.6 48225.35 L 65631.6 48232.6 Z M 53873.55 66763.6 Q 53873.55 67301.55 54062.05 67765.55 Q 54250.55 68229.55 54678.3 68563.05 Q 55106.05 68896.55 55809.3 69092.3 Q 56512.55 69288.05 57556.55 69288.05 Q 60253.55 69288.05 61594.8 68454.3 Q 62936.05 67620.55 62936.05 66054.55 Q 62936.05 65387.55 62762.05 64967.05 Q 62588.05 64546.55 62189.3 64307.3 Q 61790.55 64068.05 61138.05 63981.05 Q 60485.55 63894.05 59541.6 63894.05 L 56989.6 63894.05 Q 56483.55 63894.05 55932.55 64010.05 Q 55381.55 64126.05 54924.8 64445.05 Q 54468.05 64764.05 54170.8 65322.3 Q 53873.55 65880.55 53873.55 66763.6  Z M 55207.55 53349.65 Q 55207.55 55018.6 55990.55 55830.6 Q 56773.55 56642.6 58207.6 56642.6 Q 59657.6 56642.6 60404.35 55837.85 Q 61151.1 55033.1 61151.1 53309.05 Q 61151.1 51524.1 60389.85 50683.1 Q 59628.6 49842.1 58178.6 49842.1 Q 56744.55 49842.1 55976.05 50712.1 Q 55207.55 51582.1 55207.55 53351.1 L 55207.55 53349.65 Z M 77650.35 64153.6 L 77112.4 61949.6 L 76996.4 61949.6 Q 76519.35 62600.65 76040.85 63071.9 Q 75562.35 63543.15 74996.85 63847.65 Q 74431.35 64152.15 73735.35 64297.15 Q 73039.35 64442.15 72124.4 64442.15 Q 71125.35 64442.15 70284.35 64159.4 Q 69443.35 63876.65 68827.1 63289.4 Q 68210.85 62702.15 67862.85 61810.4 Q 67514.85 60918.65 67514.85 59700.65 Q 67514.85 57322.65 69189.6 56046.65 Q 70864.35 54770.65 74286.35 54654.65 L 76954.35 54554.6 L 76954.35 53552.65 Q 76954.35 52582.6 76744.1 51930.1 Q 76533.85 51277.6 76135.1 50878.85 Q 75736.35 50480.1 75149.1 50306.1 Q 74561.85 50132.1 73807.85 50132.1 Q 72605.8 50132.1 71569.05 50480.1 Q 70532.3 50828.1 69575.3 51321.1 L 68647.3 49336.05 Q 69720.3 48756.05 71039.8 48350.05 Q 72359.3 47944.05 73809.3 47944.05 Q 75288.3 47944.05 76368.55 48241.3 Q 77448.8 48538.55 78152.05 49183.8 Q 78855.3 49829.05 79203.3 50829.55 Q 79551.3 51830.05 79551.3 53251.05 L 79551.3 64155.05 L 77653.25 64155.05 L 77650.35 64153.6 Z M 72807.35 62310.65 Q 73690.4 62310.65 74444.4 62035.15 Q 75198.4 61759.65 75749.4 61201.4 Q 76300.4 60643.15 76612.15 59794.9 Q 76923.9 58946.65 76923.9 57802.6 L 76923.9 56365.65 L 74848.95 56468.6 Q 73543.95 56526.6 72659.45 56758.6 Q 71774.95 56990.6 71245.7 57403.85 Q 70716.45 57817.1 70484.45 58404.35 Q 70252.45 58991.6 70252.45 59729.65 Q 70252.45 61063.65 70955.7 61687.15 Q 71658.95 62310.65 72805.9 62310.65 L 72807.35 62310.65 Z M 96607.6 48232.6 L 96607.6 49869.65 L 93752.55 50262.6 Q 94158.55 50768.65 94434.05 51558.9 Q 94709.55 52349.15 94709.55 53348.2 Q 94709.55 54450.2 94368.8 55385.45 Q 94028.05 56320.7 93339.3 57002.2 Q 92650.55 57683.7 91635.55 58067.95 Q 90620.55 58452.2 89270.6 58452.2 Q 88951.6 58452.2 88632.6 58444.95 Q 88313.6 58437.7 88110.6 58392.75 Q 87865.55 58537.75 87626.3 58719 Q 87387.05 58900.25 87191.3 59132.25 Q 86995.55 59364.25 86872.3 59654.25 Q 86749.05 59944.25 86749.05 60292.25 Q 86749.05 60682.3 86923.05 60921.55 Q 87097.05 61160.8 87394.3 61291.3 Q 87691.55 61421.8 88097.55 61465.3 Q 88503.55 61508.8 88951.6 61508.8 L 91503.6 61508.8 Q 92853.55 61508.8 93781.55 61849.55 Q 94709.55 62190.3 95296.8 62770.3 Q 95884.05 63350.3 96145.05 64140.55 Q 96406.05 64930.8 96406.05 65816.75 Q 96406.05 67092.75 95934.8 68107.75 Q 95463.55 69122.75 94492.05 69826 Q 93520.55 70529.25 92034.3 70906.25 Q 90548.05 71283.25 88534 71283.25 Q 86981.05 71283.25 85821.05 70978.75 Q 84661.05 70674.25 83892.55 70094.25 Q 83124.05 69514.25 82739.8 68695 Q 82355.55 67875.75 82355.55 66844.8 Q 82355.55 65974.8 82638.3 65315.05 Q 82921.05 64655.3 83399.55 64175.35 Q 83878.05 63695.4 84508.8 63390.9 Q 85139.55 63086.4 85819.6 62928.35 Q 85210.6 62651.4 84819.1 62056.9 Q 84427.6 61462.4 84427.6 60695.35 Q 84427.6 59809.4 84891.6 59164.15 Q 85355.6 58518.9 86357.55 57909.9 Q 85732.6 57648.9 85217.85 57192.15 Q 84703.1 56735.4 84347.85 56148.15 Q 83992.6 55560.9 83796.85 54864.9 Q 83601.1 54168.9 83601.1 53427.95 Q 83601.1 52138.9 83963.6 51123.9 Q 84326.1 50108.9 85036.6 49398.4 Q 85747.1 48687.9 86805.6 48310.9 Q 87864.1 47933.9 89269.15 47933.9 Q 89807.1 47933.9 90379.85 48013.65 Q 90952.6 48093.4 91345.55 48225.35 L 96607.6 48225.35 L 96607.6 48232.6 Z M 84849.55 66763.6 Q 84849.55 67301.55 85038.05 67765.55 Q 85226.55 68229.55 85654.3 68563.05 Q 86082.05 68896.55 86785.3 69092.3 Q 87488.55 69288.05 88532.55 69288.05 Q 91229.55 69288.05 92570.8 68454.3 Q 93912.05 67620.55 93912.05 66054.55 Q 93912.05 65387.55 93738.05 64967.05 Q 93564.05 64546.55 93165.3 64307.3 Q 92766.55 64068.05 92114.05 63981.05 Q 91461.55 63894.05 90517.6 63894.05 L 87965.6 63894.05 Q 87459.55 63894.05 86908.55 64010.05 Q 86357.55 64126.05 85900.8 64445.05 Q 85444.05 64764.05 85146.8 65322.3 Q 84849.55 65880.55 84849.55 66763.6  Z M 86183.55 53349.65 Q 86183.55 55018.6 86966.55 55830.6 Q 87749.55 56642.6 89183.6 56642.6 Q 90633.6 56642.6 91380.35 55837.85 Q 92127.1 55033.1 92127.1 53309.05 Q 92127.1 51524.1 91365.85 50683.1 Q 90604.6 49842.1 89154.6 49842.1 Q 87720.55 49842.1 86952.05 50712.1 Q 86183.55 51582.1 86183.55 53351.1 L 86183.55 53349.65 Z M 102288.4 64153.6 L 99649.4 64153.6 L 99649.4 48232.6 L 102288.4 48232.6 L 102288.4 64153.6 Z M 99446.4 43924.65 Q 99446.4 43054.65 99888.65 42663.15 Q 100330.9 42271.65 100981.95 42271.65 Q 101300.95 42271.65 101583.7 42365.9 Q 101866.45 42460.15 102076.7 42663.15 Q 102286.95 42866.15 102410.2 43177.9 Q 102533.45 43489.65 102533.45 43924.65 Q 102533.45 44765.65 102076.7 45178.9 Q 101619.95 45592.15 100981.95 45592.15 Q 100330.9 45592.15 99888.65 45186.15 Q 99446.4 44780.15 99446.4 43923.2 L 99446.4 43924.65 Z M 117225.2 64153.6 L 117225.2 53900.65 Q 117225.2 52015.65 116463.95 51073.15 Q 115702.7 50130.65 114078.7 50130.65 Q 112902.75 50130.65 112105.25 50507.65 Q 111307.75 50884.65 110822 51624.15 Q 110336.25 52363.65 110126 53436.65 Q 109915.75 54509.65 109915.75 55901.65 L 109915.75 64153.6 L 107276.75 64153.6 L 107276.75 48232.6 L 109422.75 48232.6 L 109799.75 50378.6 L 109944.75 50378.6 Q 110308.7 49753.65 110808.95 49296.9 Q 111309.2 48840.15 111903.7 48535.65 Q 112498.2 48231.15 113165.2 48086.15 Q 113832.2 47941.15 114528.2 47941.15 Q 117183.15 47941.15 118524.4 49325.9 Q 119865.65 50710.65 119865.65 53755.65 L 119865.65 64153.6 L 117226.65 64153.6 L 117225.2 64153.6 Z M 136953.2 48232.6 L 136953.2 49869.65 L 134098.15 50262.6 Q 134504.15 50768.65 134779.65 51558.9 Q 135055.15 52349.15 135055.15 53348.2 Q 135055.15 54450.2 134714.4 55385.45 Q 134373.65 56320.7 133684.9 57002.2 Q 132996.15 57683.7 131981.15 58067.95 Q 130966.15 58452.2 129616.2 58452.2 Q 129297.2 58452.2 128978.2 58444.95 Q 128659.2 58437.7 128456.2 58392.75 Q 128211.15 58537.75 127971.9 58719 Q 127732.65 58900.25 127536.9 59132.25 Q 127341.15 59364.25 127217.9 59654.25 Q 127094.65 59944.25 127094.65 60292.25 Q 127094.65 60682.3 127268.65 60921.55 Q 127442.65 61160.8 127739.9 61291.3 Q 128037.15 61421.8 128443.15 61465.3 Q 128849.15 61508.8 129297.2 61508.8 L 131849.2 61508.8 Q 133199.15 61508.8 134127.15 61849.55 Q 135055.15 62190.3 135642.4 62770.3 Q 136229.65 63350.3 136490.65 64140.55 Q 136751.65 64930.8 136751.65 65816.75 Q 136751.65 67092.75 136280.4 68107.75 Q 135809.15 69122.75 134837.65 69826 Q 133866.15 70529.25 132379.9 70906.25 Q 130893.65 71283.25 128879.6 71283.25 Q 127326.65 71283.25 126166.65 70978.75 Q 125006.65 70674.25 124238.15 70094.25 Q 123469.65 69514.25 123085.4 68695 Q 122701.15 67875.75 122701.15 66844.8 Q 122701.15 65974.8 122983.9 65315.05 Q 123266.65 64655.3 123745.15 64175.35 Q 124223.65 63695.4 124854.4 63390.9 Q 125485.15 63086.4 126165.2 62928.35 Q 125556.2 62651.4 125164.7 62056.9 Q 124773.2 61462.4 124773.2 60695.35 Q 124773.2 59809.4 125237.2 59164.15 Q 125701.2 58518.9 126703.15 57909.9 Q 126078.2 57648.9 125563.45 57192.15 Q 125048.7 56735.4 124693.45 56148.15 Q 124338.2 55560.9 124142.45 54864.9 Q 123946.7 54168.9 123946.7 53427.95 Q 123946.7 52138.9 124309.2 51123.9 Q 124671.7 50108.9 125382.2 49398.4 Q 126092.7 48687.9 127151.2 48310.9 Q 128209.7 47933.9 129614.75 47933.9 Q 130152.7 47933.9 130725.45 48013.65 Q 131298.2 48093.4 131691.15 48225.35 L 136953.2 48225.35 L 136953.2 48232.6 Z M 125195.15 66763.6 Q 125195.15 67301.55 125383.65 67765.55 Q 125572.15 68229.55 125999.9 68563.05 Q 126427.65 68896.55 127130.9 69092.3 Q 127834.15 69288.05 128878.15 69288.05 Q 131575.15 69288.05 132916.4 68454.3 Q 134257.65 67620.55 134257.65 66054.55 Q 134257.65 65387.55 134083.65 64967.05 Q 133909.65 64546.55 133510.9 64307.3 Q 133112.15 64068.05 132459.65 63981.05 Q 131807.15 63894.05 130863.2 63894.05 L 128311.2 63894.05 Q 127805.15 63894.05 127254.15 64010.05 Q 126703.15 64126.05 126246.4 64445.05 Q 125789.65 64764.05 125492.4 65322.3 Q 125195.15 65880.55 125195.15 66763.6  Z M 126529.15 53349.65 Q 126529.15 55018.6 127312.15 55830.6 Q 128095.15 56642.6 129529.2 56642.6 Q 130979.2 56642.6 131725.95 55837.85 Q 132472.7 55033.1 132472.7 53309.05 Q 132472.7 51524.1 131711.45 50683.1 Q 130950.2 49842.1 129500.2 49842.1 Q 128066.15 49842.1 127297.65 50712.1 Q 126529.15 51582.1 126529.15 53351.1 L 126529.15 53349.65 Z M 154815.8 64443.6 Q 153961.75 64443.6 153265.75 64255.1 Q 152569.75 64066.6 152011.5 63754.85 Q 151453.25 63443.1 151025.5 63022.6 Q 150597.75 62602.1 150262.8 62138.1 L 150088.8 62138.1 Q 150133.75 62631.1 150175.8 63082.05 Q 150204.8 63459.05 150233.8 63857.8 Q 150262.8 64256.55 150262.8 64488.55 L 150262.8 71287.6 L 147623.8 71287.6 L 147623.8 48232.6 L 149769.8 48232.6 L 150146.8 50378.6 L 150262.8 50378.6 Q 150597.75 49869.65 151018.25 49427.4 Q 151438.75 48985.15 151997 48658.9 Q 152555.25 48332.65 153251.25 48136.9 Q 153947.25 47941.15 154817.25 47941.15 Q 156180.25 47941.15 157296.75 48463.15 Q 158413.25 48985.15 159203.5 50021.9 Q 159993.75 51058.65 160428.75 52595.65 Q 160863.75 54132.65 160863.75 56162.65 Q 160863.75 58208.6 160428.75 59752.85 Q 159993.75 61297.1 159203.5 62341.1 Q 158413.25 63385.1 157296.75 63914.35 Q 156180.25 64443.6 154817.25 64443.6 L 154815.8 64443.6 Z M 154309.75 50130.65 Q 153207.75 50130.65 152446.5 50464.15 Q 151685.25 50797.65 151214 51479.15 Q 150742.75 52160.65 150518 53175.65 Q 150293.25 54190.65 150264.25 55569.6 L 150264.25 56162.65 Q 150264.25 57628.6 150460 58766.85 Q 150655.75 59905.1 151127 60680.85 Q 151598.25 61456.6 152381.25 61855.35 Q 153164.25 62254.1 154340.2 62254.1 Q 156296.25 62254.1 157217 60673.6 Q 158137.75 59093.1 158137.75 56135.1 Q 158137.75 53119.1 157217 51625.6 Q 156296.25 50132.1 154311.2 50132.1 L 154309.75 50130.65 Z M 171920.75 47942.6 Q 172339.8 47942.6 172861.8 47978.85 Q 173383.8 48015.1 173760.8 48089.05 L 173412.8 50525.05 Q 173006.8 50451.1 172579.05 50400.35 Q 172151.3 50349.6 171774.3 50349.6 Q 170859.35 50349.6 170105.35 50719.35 Q 169351.35 51089.1 168807.6 51777.85 Q 168263.85 52466.6 167966.6 53430.85 Q 167669.35 54395.1 167669.35 55571.05 L 167669.35 64155.05 L 165030.35 64155.05 L 165030.35 48234.05 L 167176.35 48234.05 L 167495.35 51147.1 L 167611.35 51147.1 Q 167975.3 50525.05 168388.55 49945.05 Q 168801.8 49365.05 169316.55 48922.8 Q 169831.3 48480.55 170469.3 48212.3 Q 171107.3 47944.05 171919.3 47944.05 L 171920.75 47942.6 Z M 183203.2 64443.6 Q 181608.2 64443.6 180288.7 63907.1 Q 178969.2 63370.6 178019.45 62341.1 Q 177069.7 61311.6 176547.7 59789.1 Q 176025.7 58266.6 176025.7 56307.65 Q 176025.7 54335.65 176504.2 52784.15 Q 176982.7 51232.65 177852.7 50152.4 Q 178722.7 49072.15 179933.45 48506.65 Q 181144.2 47941.15 182610.15 47941.15 Q 184044.2 47941.15 185189.7 48455.9 Q 186335.2 48970.65 187132.7 49905.9 Q 187930.2 50841.15 188357.95 52153.4 Q 188785.7 53465.65 188785.7 55060.65 L 188785.7 56700.6 L 178751.7 56700.6 Q 178822.75 59497.65 179932 60817.15 Q 181041.25 62136.65 183229.3 62136.65 Q 183970.25 62136.65 184601 62064.15 Q 185231.75 61991.65 185819 61853.9 Q 186406.25 61716.15 186957.25 61505.9 Q 187508.25 61295.65 188072.3 61034.65 L 188072.3 63383.65 Q 187492.3 63660.6 186934.05 63863.6 Q 186375.8 64066.6 185788.55 64197.1 Q 185201.3 64327.6 184570.55 64385.6 Q 183939.8 64443.6 183198.85 64443.6 L 183203.2 64443.6 Z M 182552.15 50130.65 Q 180899.15 50130.65 179934.9 51261.65 Q 178970.65 52392.65 178812.6 54554.6 L 185946.6 54554.6 Q 185946.6 53568.6 185750.85 52749.35 Q 185555.1 51930.1 185141.85 51350.1 Q 184728.6 50770.1 184090.6 50451.1 Q 183452.6 50132.1 182553.6 50132.1 L 182552.15 50130.65 Z M 202258.95 59787.65 Q 202258.95 60947.65 201838.45 61817.65 Q 201417.95 62687.65 200627.7 63274.9 Q 199837.45 63862.15 198720.95 64152.15 Q 197604.45 64442.15 196212.45 64442.15 Q 194633.4 64442.15 193502.4 64188.4 Q 192371.4 63934.65 191514.45 63441.65 L 191514.45 61034.65 Q 191965.4 61266.65 192516.4 61491.4 Q 193067.4 61716.15 193676.4 61890.15 Q 194285.4 62064.15 194930.65 62172.9 Q 195575.9 62281.65 196213.9 62281.65 Q 197157.85 62281.65 197817.6 62122.15 Q 198477.35 61962.65 198890.6 61665.4 Q 199303.85 61368.15 199492.35 60940.4 Q 199680.85 60512.65 199680.85 59990.65 Q 199680.85 59542.6 199535.85 59180.1 Q 199390.85 58817.6 199006.6 58462.35 Q 198622.35 58107.1 197955.35 57744.6 Q 197288.35 57382.1 196244.35 56934.05 Q 195200.35 56483.1 194366.6 56048.1 Q 193532.85 55613.1 192952.85 55076.6 Q 192372.85 54540.1 192061.1 53836.85 Q 191749.35 53133.6 191749.35 52160.65 Q 191749.35 51145.65 192148.1 50355.4 Q 192546.85 49565.15 193271.85 49028.65 Q 193996.85 48492.15 195011.85 48216.65 Q 196026.85 47941.15 197273.85 47941.15 Q 198678.9 47941.15 199846.15 48245.65 Q 201013.4 48550.15 202057.4 49043.15 L 201142.45 51173.2 Q 200201.4 50754.15 199208.15 50442.4 Q 198214.9 50130.65 197186.85 50130.65 Q 195707.85 50130.65 194997.35 50616.4 Q 194286.85 51102.15 194286.85 52001.15 Q 194286.85 52507.2 194453.6 52884.2 Q 194620.35 53261.2 195026.35 53594.7 Q 195432.35 53928.2 196113.85 54268.95 Q 196795.35 54609.7 197810.35 55028.75 Q 198854.35 55463.75 199673.6 55898.75 Q 200492.85 56333.75 201072.85 56877.5 Q 201652.85 57421.25 201957.35 58117.25 Q 202261.85 58813.25 202261.85 59783.3 L 202258.95 59787.65 Z M 212387.2 64443.6 Q 210792.2 64443.6 209472.7 63907.1 Q 208153.2 63370.6 207203.45 62341.1 Q 206253.7 61311.6 205731.7 59789.1 Q 205209.7 58266.6 205209.7 56307.65 Q 205209.7 54335.65 205688.2 52784.15 Q 206166.7 51232.65 207036.7 50152.4 Q 207906.7 49072.15 209117.45 48506.65 Q 210328.2 47941.15 211794.15 47941.15 Q 213228.2 47941.15 214373.7 48455.9 Q 215519.2 48970.65 216316.7 49905.9 Q 217114.2 50841.15 217541.95 52153.4 Q 217969.7 53465.65 217969.7 55060.65 L 217969.7 56700.6 L 207935.7 56700.6 Q 208006.75 59497.65 209116 60817.15 Q 210225.25 62136.65 212413.3 62136.65 Q 213154.25 62136.65 213785 62064.15 Q 214415.75 61991.65 215003 61853.9 Q 215590.25 61716.15 216141.25 61505.9 Q 216692.25 61295.65 217256.3 61034.65 L 217256.3 63383.65 Q 216676.3 63660.6 216118.05 63863.6 Q 215559.8 64066.6 214972.55 64197.1 Q 214385.3 64327.6 213754.55 64385.6 Q 213123.8 64443.6 212382.85 64443.6 L 212387.2 64443.6 Z M 211736.15 50130.65 Q 210083.15 50130.65 209118.9 51261.65 Q 208154.65 52392.65 207996.6 54554.6 L 215130.6 54554.6 Q 215130.6 53568.6 214934.85 52749.35 Q 214739.1 51930.1 214325.85 51350.1 Q 213912.6 50770.1 213274.6 50451.1 Q 212636.6 50132.1 211737.6 50132.1 L 211736.15 50130.65 Z M 231862 64153.6 L 231862 53900.65 Q 231862 52015.65 231100.75 51073.15 Q 230339.5 50130.65 228715.5 50130.65 Q 227539.55 50130.65 226742.05 50507.65 Q 225944.55 50884.65 225458.8 51624.15 Q 224973.05 52363.65 224762.8 53436.65 Q 224552.55 54509.65 224552.55 55901.65 L 224552.55 64153.6 L 221913.55 64153.6 L 221913.55 48232.6 L 224059.55 48232.6 L 224436.55 50378.6 L 224581.55 50378.6 Q 224945.5 49753.65 225445.75 49296.9 Q 225946 48840.15 226540.5 48535.65 Q 227135 48231.15 227802 48086.15 Q 228469 47941.15 229165 47941.15 Q 231819.95 47941.15 233161.2 49325.9 Q 234502.45 50710.65 234502.45 53755.65 L 234502.45 64153.6 L 231863.45 64153.6 L 231862 64153.6 Z M 244137 62281.65 Q 244398 62281.65 244724.25 62252.65 Q 245050.5 62223.65 245355 62180.15 Q 245659.5 62136.65 245913.25 62078.65 Q 246167 62020.65 246298.95 61978.6 L 246298.95 63979.6 Q 246109 64066.6 245819 64153.6 Q 245529 64240.6 245181 64305.85 Q 244833 64371.1 244456 64407.35 Q 244079 64443.6 243717.95 64443.6 Q 242818.95 64443.6 242050.45 64211.6 Q 241281.95 63979.6 240723.7 63414.1 Q 240165.45 62848.6 239846.45 61884.35 Q 239527.45 60920.1 239527.45 59457.05 L 239527.45 50219.1 L 237281.4 50219.1 L 237281.4 49046.05 L 239527.45 47915.05 L 240658.45 44580.05 L 242182.4 44580.05 L 242182.4 48234.05 L 246184.4 48234.05 L 246184.4 50219.1 L 242182.4 50219.1 L 242182.4 59457.05 Q 242182.4 60862.1 242639.15 61572.6 Q 243095.9 62283.1 244139.9 62283.1 L 244137 62281.65 Z M 258283.95 64153.6 L 257746 61949.6 L 257630 61949.6 Q 257152.95 62600.65 256674.45 63071.9 Q 256195.95 63543.15 255630.45 63847.65 Q 255064.95 64152.15 254368.95 64297.15 Q 253672.95 64442.15 252758 64442.15 Q 251758.95 64442.15 250917.95 64159.4 Q 250076.95 63876.65 249460.7 63289.4 Q 248844.45 62702.15 248496.45 61810.4 Q 248148.45 60918.65 248148.45 59700.65 Q 248148.45 57322.65 249823.2 56046.65 Q 251497.95 54770.65 254919.95 54654.65 L 257587.95 54554.6 L 257587.95 53552.65 Q 257587.95 52582.6 257377.7 51930.1 Q 257167.45 51277.6 256768.7 50878.85 Q 256369.95 50480.1 255782.7 50306.1 Q 255195.45 50132.1 254441.45 50132.1 Q 253239.4 50132.1 252202.65 50480.1 Q 251165.9 50828.1 250208.9 51321.1 L 249280.9 49336.05 Q 250353.9 48756.05 251673.4 48350.05 Q 252992.9 47944.05 254442.9 47944.05 Q 255921.9 47944.05 257002.15 48241.3 Q 258082.4 48538.55 258785.65 49183.8 Q 259488.9 49829.05 259836.9 50829.55 Q 260184.9 51830.05 260184.9 53251.05 L 260184.9 64155.05 L 258286.85 64155.05 L 258283.95 64153.6 Z M 253440.95 62310.65 Q 254324 62310.65 255078 62035.15 Q 255832 61759.65 256383 61201.4 Q 256934 60643.15 257245.75 59794.9 Q 257557.5 58946.65 257557.5 57802.6 L 257557.5 56365.65 L 255482.55 56468.6 Q 254177.55 56526.6 253293.05 56758.6 Q 252408.55 56990.6 251879.3 57403.85 Q 251350.05 57817.1 251118.05 58404.35 Q 250886.05 58991.6 250886.05 59729.65 Q 250886.05 61063.65 251589.3 61687.15 Q 252292.55 62310.65 253439.5 62310.65 L 253440.95 62310.65 Z M 267613.2 64153.6 L 264974.2 64153.6 L 264974.2 48232.6 L 267613.2 48232.6 L 267613.2 64153.6 Z M 264771.2 43924.65 Q 264771.2 43054.65 265213.45 42663.15 Q 265655.7 42271.65 266306.75 42271.65 Q 266625.75 42271.65 266908.5 42365.9 Q 267191.25 42460.15 267401.5 42663.15 Q 267611.75 42866.15 267735 43177.9 Q 267858.25 43489.65 267858.25 43924.65 Q 267858.25 44765.65 267401.5 45178.9 Q 266944.75 45592.15 266306.75 45592.15 Q 265655.7 45592.15 265213.45 45186.15 Q 264771.2 44780.15 264771.2 43923.2 L 264771.2 43924.65 Z M 285581.95 56162.65 Q 285581.95 58150.6 285096.2 59694.85 Q 284610.45 61239.1 283704.2 62290.35 Q 282797.95 63341.6 281507.45 63892.6 Q 280216.95 64443.6 278606 64443.6 Q 277113.95 64443.6 275852.45 63892.6 Q 274590.95 63341.6 273670.2 62290.35 Q 272749.45 61239.1 272234.7 59694.85 Q 271719.95 58150.6 271719.95 56162.65 Q 271719.95 54190.65 272205.7 52660.9 Q 272691.45 51131.15 273590.45 50079.9 Q 274489.45 49028.65 275787.2 48484.9 Q 277084.95 47941.15 278693 47941.15 Q 280187.95 47941.15 281449.45 48484.9 Q 282710.95 49028.65 283631.7 50079.9 Q 284552.45 51131.15 285067.2 52660.9 Q 285581.95 54190.65 285581.95 56162.65  Z M 274445.95 56162.65 Q 274445.95 59194.6 275439.2 60724.35 Q 276432.45 62254.1 278665.45 62254.1 Q 280898.45 62254.1 281877.2 60724.35 Q 282855.95 59194.6 282855.95 56162.65 Q 282855.95 53133.6 281862.7 51632.85 Q 280869.45 50132.1 278636.45 50132.1 Q 276403.45 50132.1 275424.7 51632.85 Q 274445.95 53133.6 274445.95 56162.65  Z M 299702 64153.6 L 299702 53900.65 Q 299702 52015.65 298940.75 51073.15 Q 298179.5 50130.65 296555.5 50130.65 Q 295379.55 50130.65 294582.05 50507.65 Q 293784.55 50884.65 293298.8 51624.15 Q 292813.05 52363.65 292602.8 53436.65 Q 292392.55 54509.65 292392.55 55901.65 L 292392.55 64153.6 L 289753.55 64153.6 L 289753.55 48232.6 L 291899.55 48232.6 L 292276.55 50378.6 L 292421.55 50378.6 Q 292785.5 49753.65 293285.75 49296.9 Q 293786 48840.15 294380.5 48535.65 Q 294975 48231.15 295642 48086.15 Q 296309 47941.15 297005 47941.15 Q 299659.95 47941.15 301001.2 49325.9 Q 302342.45 50710.65 302342.45 53755.65 L 302342.45 64153.6 L 299703.45 64153.6 L 299702 64153.6 Z M 92581 99003.6 Q 91117.95 99003.6 89841.95 98546.85 Q 88565.95 98090.1 87623.45 97096.85 Q 86680.95 96103.6 86144.45 94559.35 Q 85607.95 93015.1 85607.95 90840.1 Q 85607.95 88565.05 86158.95 86977.3 Q 86709.95 85389.55 87674.2 84396.3 Q 88638.45 83403.05 89928.95 82953.55 Q 91219.45 82504.05 92698.45 82504.05 Q 93829.45 82504.05 94909.7 82750.55 Q 95989.95 82997.05 96714.95 83358.1 L 95931.95 85591.1 Q 95597 85446.1 95191 85308.35 Q 94785 85170.6 94350 85061.85 Q 93915 84953.1 93494.5 84887.85 Q 93074 84822.6 92697 84822.6 Q 90421.95 84822.6 89377.95 86279.85 Q 88333.95 87737.1 88333.95 90811.1 Q 88333.95 93872.05 89385.2 95285.8 Q 90436.45 96699.55 92582.45 96699.55 Q 93758.4 96699.55 94708.15 96431.3 Q 95657.9 96163.05 96440.9 95799.1 L 96440.9 98148.1 Q 95657.9 98570.05 94766.15 98787.55 Q 93874.4 99005.05 92582.45 99005.05 L 92581 99003.6 Z M 113191.55 90722.65 Q 113191.55 92710.6 112705.8 94254.85 Q 112220.05 95799.1 111313.8 96850.35 Q 110407.55 97901.6 109117.05 98452.6 Q 107826.55 99003.6 106215.6 99003.6 Q 104723.55 99003.6 103462.05 98452.6 Q 102200.55 97901.6 101279.8 96850.35 Q 100359.05 95799.1 99844.3 94254.85 Q 99329.55 92710.6 99329.55 90722.65 Q 99329.55 88750.65 99815.3 87220.9 Q 100301.05 85691.15 101200.05 84639.9 Q 102099.05 83588.65 103396.8 83044.9 Q 104694.55 82501.15 106302.6 82501.15 Q 107797.55 82501.15 109059.05 83044.9 Q 110320.55 83588.65 111241.3 84639.9 Q 112162.05 85691.15 112676.8 87220.9 Q 113191.55 88750.65 113191.55 90722.65  Z M 102055.55 90722.65 Q 102055.55 93754.6 103048.8 95284.35 Q 104042.05 96814.1 106275.05 96814.1 Q 108508.05 96814.1 109486.8 95284.35 Q 110465.55 93754.6 110465.55 90722.65 Q 110465.55 87693.6 109472.3 86192.85 Q 108479.05 84692.1 106246.05 84692.1 Q 104013.05 84692.1 103034.3 86192.85 Q 102055.55 87693.6 102055.55 90722.65  Z M 136433.55 98713.6 L 136433.55 88460.65 Q 136433.55 86575.65 135708.55 85633.15 Q 134983.55 84690.65 133459.6 84690.65 Q 132402.55 84690.65 131663.05 85031.4 Q 130923.55 85372.15 130452.3 86031.9 Q 129981.05 86691.65 129763.55 87670.4 Q 129546.05 88649.15 129546.05 89925.15 L 129546.05 98712.15 L 126894 98712.15 L 126894 88459.2 Q 126894 86574.2 126176.25 85631.7 Q 125458.5 84689.2 123937.45 84689.2 Q 122819.5 84689.2 122065.5 85066.2 Q 121311.5 85443.2 120854.75 86182.7 Q 120398 86922.2 120202.25 87995.2 Q 120006.5 89068.2 120006.5 90460.2 L 120006.5 98712.15 L 117367.5 98712.15 L 117367.5 82791.15 L 119513.5 82791.15 L 119890.5 84937.15 L 120035.5 84937.15 Q 120383.5 84312.2 120862 83855.45 Q 121340.5 83398.7 121913.25 83094.2 Q 122486 82789.7 123131.25 82644.7 Q 123776.5 82499.7 124443.5 82499.7 Q 126183.5 82499.7 127336.25 83137.7 Q 128489 83775.7 129040 85138.7 L 129156 85138.7 Q 129533 84455.75 130062.25 83962.75 Q 130591.5 83469.75 131222.25 83143.5 Q 131853 82817.25 132549 82657.75 Q 133245 82498.25 133970 82498.25 Q 136506.05 82498.25 137789.3 83883 Q 139072.55 85267.75 139072.55 88312.75 L 139072.55 98710.7 L 136433.55 98710.7 L 136433.55 98713.6 Z M 150230.4 99003.6 Q 148635.4 99003.6 147315.9 98467.1 Q 145996.4 97930.6 145046.65 96901.1 Q 144096.9 95871.6 143574.9 94349.1 Q 143052.9 92826.6 143052.9 90867.65 Q 143052.9 88895.65 143531.4 87344.15 Q 144009.9 85792.65 144879.9 84712.4 Q 145749.9 83632.15 146960.65 83066.65 Q 148171.4 82501.15 149637.35 82501.15 Q 151071.4 82501.15 152216.9 83015.9 Q 153362.4 83530.65 154159.9 84465.9 Q 154957.4 85401.15 155385.15 86713.4 Q 155812.9 88025.65 155812.9 89620.65 L 155812.9 91260.6 L 145778.9 91260.6 Q 145849.95 94057.65 146959.2 95377.15 Q 148068.45 96696.65 150256.5 96696.65 Q 150997.45 96696.65 151628.2 96624.15 Q 152258.95 96551.65 152846.2 96413.9 Q 153433.45 96276.15 153984.45 96065.9 Q 154535.45 95855.65 155099.5 95594.65 L 155099.5 97943.65 Q 154519.5 98220.6 153961.25 98423.6 Q 153403 98626.6 152815.75 98757.1 Q 152228.5 98887.6 151597.75 98945.6 Q 150967 99003.6 150226.05 99003.6 L 150230.4 99003.6 Z M 149579.35 84690.65 Q 147926.35 84690.65 146962.1 85821.65 Q 145997.85 86952.65 145839.8 89114.6 L 152973.8 89114.6 Q 152973.8 88128.6 152778.05 87309.35 Q 152582.3 86490.1 152169.05 85910.1 Q 151755.8 85330.1 151117.8 85011.1 Q 150479.8 84692.1 149580.8 84692.1 L 149579.35 84690.65 Z M 169286.15 94347.65 Q 169286.15 95507.65 168865.65 96377.65 Q 168445.15 97247.65 167654.9 97834.9 Q 166864.65 98422.15 165748.15 98712.15 Q 164631.65 99002.15 163239.65 99002.15 Q 161660.6 99002.15 160529.6 98748.4 Q 159398.6 98494.65 158541.65 98001.65 L 158541.65 95594.65 Q 158992.6 95826.65 159543.6 96051.4 Q 160094.6 96276.15 160703.6 96450.15 Q 161312.6 96624.15 161957.85 96732.9 Q 162603.1 96841.65 163241.1 96841.65 Q 164185.05 96841.65 164844.8 96682.15 Q 165504.55 96522.65 165917.8 96225.4 Q 166331.05 95928.15 166519.55 95500.4 Q 166708.05 95072.65 166708.05 94550.65 Q 166708.05 94102.6 166563.05 93740.1 Q 166418.05 93377.6 166033.8 93022.35 Q 165649.55 92667.1 164982.55 92304.6 Q 164315.55 91942.1 163271.55 91494.05 Q 162227.55 91043.1 161393.8 90608.1 Q 160560.05 90173.1 159980.05 89636.6 Q 159400.05 89100.1 159088.3 88396.85 Q 158776.55 87693.6 158776.55 86720.65 Q 158776.55 85705.65 159175.3 84915.4 Q 159574.05 84125.15 160299.05 83588.65 Q 161024.05 83052.15 162039.05 82776.65 Q 163054.05 82501.15 164301.05 82501.15 Q 165706.1 82501.15 166873.35 82805.65 Q 168040.6 83110.15 169084.6 83603.15 L 168169.65 85733.2 Q 167228.6 85314.15 166235.35 85002.4 Q 165242.1 84690.65 164214.05 84690.65 Q 162735.05 84690.65 162024.55 85176.4 Q 161314.05 85662.15 161314.05 86561.15 Q 161314.05 87067.2 161480.8 87444.2 Q 161647.55 87821.2 162053.55 88154.7 Q 162459.55 88488.2 163141.05 88828.95 Q 163822.55 89169.7 164837.55 89588.75 Q 165881.55 90023.75 166700.8 90458.75 Q 167520.05 90893.75 168100.05 91437.5 Q 168680.05 91981.25 168984.55 92677.25 Q 169289.05 93373.25 169289.05 94343.3 L 169286.15 94347.65 Z M 193729.15 90722.65 Q 193729.15 92710.6 193243.4 94254.85 Q 192757.65 95799.1 191851.4 96850.35 Q 190945.15 97901.6 189654.65 98452.6 Q 188364.15 99003.6 186753.2 99003.6 Q 185261.15 99003.6 183999.65 98452.6 Q 182738.15 97901.6 181817.4 96850.35 Q 180896.65 95799.1 180381.9 94254.85 Q 179867.15 92710.6 179867.15 90722.65 Q 179867.15 88750.65 180352.9 87220.9 Q 180838.65 85691.15 181737.65 84639.9 Q 182636.65 83588.65 183934.4 83044.9 Q 185232.15 82501.15 186840.2 82501.15 Q 188335.15 82501.15 189596.65 83044.9 Q 190858.15 83588.65 191778.9 84639.9 Q 192699.65 85691.15 193214.4 87220.9 Q 193729.15 88750.65 193729.15 90722.65  Z M 182593.15 90722.65 Q 182593.15 93754.6 183586.4 95284.35 Q 184579.65 96814.1 186812.65 96814.1 Q 189045.65 96814.1 190024.4 95284.35 Q 191003.15 93754.6 191003.15 90722.65 Q 191003.15 87693.6 190009.9 86192.85 Q 189016.65 84692.1 186783.65 84692.1 Q 184550.65 84692.1 183571.9 86192.85 Q 182593.15 87693.6 182593.15 90722.65  Z M 208213.15 98713.6 L 207820.2 96580.65 L 207675.2 96580.65 Q 207314.15 97205.6 206813.9 97662.35 Q 206313.65 98119.1 205719.15 98416.35 Q 205124.65 98713.6 204457.65 98858.6 Q 203790.65 99003.6 203094.65 99003.6 Q 201776.6 99003.6 200776.1 98670.1 Q 199775.6 98336.6 199108.6 97626.1 Q 198441.6 96915.6 198100.85 95813.6 Q 197760.1 94711.6 197760.1 93187.65 L 197760.1 82792.6 L 200399.1 82792.6 L 200399.1 93042.65 Q 200399.1 94927.65 201167.6 95870.15 Q 201936.1 96812.65 203547.05 96812.65 Q 204720.1 96812.65 205517.6 96435.65 Q 206315.1 96058.65 206800.85 95326.4 Q 207286.6 94594.15 207496.85 93521.15 Q 207707.1 92448.15 207707.1 91056.15 L 207707.1 82791.15 L 210346.1 82791.15 L 210346.1 98712.15 L 208216.05 98712.15 L 208213.15 98713.6 Z M 220124.2 96841.65 Q 220385.2 96841.65 220711.45 96812.65 Q 221037.7 96783.65 221342.2 96740.15 Q 221646.7 96696.65 221900.45 96638.65 Q 222154.2 96580.65 222286.15 96538.6 L 222286.15 98539.6 Q 222096.2 98626.6 221806.2 98713.6 Q 221516.2 98800.6 221168.2 98865.85 Q 220820.2 98931.1 220443.2 98967.35 Q 220066.2 99003.6 219705.15 99003.6 Q 218806.15 99003.6 218037.65 98771.6 Q 217269.15 98539.6 216710.9 97974.1 Q 216152.65 97408.6 215833.65 96444.35 Q 215514.65 95480.1 215514.65 94017.05 L 215514.65 84779.1 L 213268.6 84779.1 L 213268.6 83606.05 L 215514.65 82475.05 L 216645.65 79140.05 L 218169.6 79140.05 L 218169.6 82794.05 L 222171.6 82794.05 L 222171.6 84779.1 L 218169.6 84779.1 L 218169.6 94017.05 Q 218169.6 95422.1 218626.35 96132.6 Q 219083.1 96843.1 220127.1 96843.1 L 220124.2 96841.65 Z M 232532.95 97102.65 Q 232532.95 96551.65 232677.95 96167.4 Q 232822.95 95783.15 233069.45 95543.9 Q 233315.95 95304.65 233649.45 95195.9 Q 233982.95 95087.15 234373 95087.15 Q 234750 95087.15 235090.75 95195.9 Q 235431.5 95304.65 235678 95543.9 Q 235924.5 95783.15 236069.5 96167.4 Q 236214.5 96551.65 236214.5 97102.65 Q 236214.5 97640.6 236069.5 98024.85 Q 235924.5 98409.1 235678 98657.05 Q 235431.5 98905 235090.75 99021 Q 234750 99137 234373 99137 Q 233982.95 99137 233649.45 99021 Q 233315.95 98905 233069.45 98657.05 Q 232822.95 98409.1 232677.95 98024.85 Q 232532.95 97640.6 232532.95 97102.65  Z " fill-rule="nonzero" style="fill:#000000;;fill-opacity:1;"/>
</svg>