<svg version="1.1" x="0" y="0" width="100%" height="100%" viewBox="0 0 393216 54220.8" xmlns="http://www.w3.org/2000/svg">
  <path d="M 18703.1 14282.9 Q 16454 14282.9 14627 15133.4 Q 12800 15983.9 11508.5 17579.9 Q 10217 19175.9 9513.5 21464.9 Q 8810 23753.9 8810 26628.8 Q 8810 29591.9 9429.5 31891.4 Q 10049 34190.9 11288 35765.9 Q 12527 37340.9 14375 38159.9 Q 16223 38978.9 18701 38978.9 Q 20567.9 38978.9 22247.9 38611.4 Q 23927.9 38243.9 25565.9 37758.8 L 25565.9 41160.8 Q 24749 41477.9 23930 41719.4 Q 23111 41960.9 22218.5 42110 Q 21326 42259.1 20307.5 42332.6 Q 19289 42406.1 18047.9 42406.1 Q 14603.9 42406.1 12083.9 41272.1 Q 9563.9 40138.1 7915.4 38059.1 Q 6266.9 35980.1 5468.9 33061.1 Q 4670.9 30142.1 4670.9 26591 Q 4670.9 23105 5584.4 20207 Q 6497.9 17309 8272.4 15230 Q 10046.9 13151 12671.9 11996 Q 15296.9 10841 18698.9 10841 Q 20966.9 10841 23024.9 11303 Q 25082.9 11765 26739.8 12647 L 25101.8 15923 Q 23780.9 15251 22226.9 14768 Q 20672.9 14285 18698.9 14285 L 18703.1 14282.9 Z M 46593.5 41984 L 46024.4 38894.9 L 45814.4 38894.9 Q 45291.5 39800 44567 40461.5 Q 43842.5 41123 42981.5 41553.5 Q 42120.5 41984 41154.5 42194 Q 40188.5 42404 39180.5 42404 Q 37271.6 42404 35822.6 41921 Q 34373.6 41438 33407.6 40409 Q 32441.6 39380 31948.1 37784 Q 31454.6 36188 31454.6 33980.9 L 31454.6 18926 L 35276.6 18926 L 35276.6 33770.9 Q 35276.6 36500.9 36389.6 37865.9 Q 37502.6 39230.9 39835.7 39230.9 Q 41534.6 39230.9 42689.6 38684.9 Q 43844.6 38138.9 44548.1 37078.4 Q 45251.6 36017.9 45556.1 34463.9 Q 45860.6 32909.9 45860.6 30893.9 L 45860.6 18923.9 L 49682.6 18923.9 L 49682.6 41981.9 L 46597.7 41981.9 L 46593.5 41984 Z M 70701.1 35660.9 Q 70701.1 37340.9 70092.1 38600.9 Q 69483.1 39860.9 68338.6 40711.4 Q 67194.1 41561.9 65577.1 41981.9 Q 63960.1 42401.9 61944.1 42401.9 Q 59657.2 42401.9 58019.2 42034.4 Q 56381.2 41666.9 55140.1 40952.9 L 55140.1 37466.9 Q 55793.2 37802.9 56591.2 38128.4 Q 57389.2 38453.9 58271.2 38705.9 Q 59153.2 38957.9 60087.7 39115.4 Q 61022.2 39272.9 61946.2 39272.9 Q 63313.3 39272.9 64268.8 39041.9 Q 65224.3 38810.9 65822.8 38380.4 Q 66421.3 37949.9 66694.3 37330.4 Q 66967.3 36710.9 66967.3 35954.9 Q 66967.3 35306 66757.3 34781 Q 66547.3 34256 65990.8 33741.5 Q 65434.3 33227 64468.3 32702 Q 63502.3 32177 61990.3 31528.1 Q 60478.3 30875 59270.8 30245 Q 58063.3 29615 57223.3 28838 Q 56383.3 28061 55931.8 27042.5 Q 55480.3 26024 55480.3 24614.9 Q 55480.3 23144.9 56057.8 22000.4 Q 56635.3 20855.9 57685.3 20078.9 Q 58735.3 19301.9 60205.3 18902.9 Q 61675.3 18503.9 63481.3 18503.9 Q 65516.2 18503.9 67206.7 18944.9 Q 68897.2 19385.9 70409.2 20099.9 L 69084.1 23184.8 Q 67721.2 22577.9 66282.7 22126.4 Q 64844.2 21674.9 63355.3 21674.9 Q 61213.3 21674.9 60184.3 22378.4 Q 59155.3 23081.9 59155.3 24383.9 Q 59155.3 25116.8 59396.8 25662.8 Q 59638.3 26208.8 60226.3 26691.8 Q 60814.3 27174.8 61801.3 27668.3 Q 62788.3 28161.8 64258.3 28768.7 Q 65770.3 29398.7 66956.8 30028.7 Q 68143.3 30658.7 68983.3 31446.2 Q 69823.3 32233.7 70264.3 33241.7 Q 70705.3 34249.7 70705.3 35654.6 L 70701.1 35660.9 Z M 83227.6 39272.9 Q 83605.6 39272.9 84078.1 39230.9 Q 84550.6 39188.9 84991.6 39125.9 Q 85432.6 39062.9 85800.1 38978.9 Q 86167.6 38894.9 86358.7 38834 L 86358.7 41732 Q 86083.6 41858 85663.6 41984 Q 85243.6 42110 84739.6 42204.5 Q 84235.6 42299 83689.6 42351.5 Q 83143.6 42404 82620.7 42404 Q 81318.7 42404 80205.7 42068 Q 79092.7 41732 78284.2 40913 Q 77475.7 40094 77013.7 38697.5 Q 76551.7 37301 76551.7 35182.1 L 76551.7 21803 L 73298.8 21803 L 73298.8 20104.1 L 76551.7 18466.1 L 78189.7 13636.1 L 80396.8 13636.1 L 80396.8 18928.1 L 86192.8 18928.1 L 86192.8 21803 L 80396.8 21803 L 80396.8 35182.1 Q 80396.8 37217 81058.3 38246 Q 81719.8 39275 83231.8 39275 L 83227.6 39272.9 Z M 109542.3 30410.9 Q 109542.3 33290 108838.8 35526.5 Q 108135.3 37763 106822.8 39285.5 Q 105510.3 40808 103641.3 41606 Q 101772.3 42404 99439.2 42404 Q 97278.3 42404 95451.3 41606 Q 93624.3 40808 92290.8 39285.5 Q 90957.3 37763 90211.8 35526.5 Q 89466.3 33290 89466.3 30410.9 Q 89466.3 27554.9 90169.8 25339.4 Q 90873.3 23123.9 92175.3 21601.4 Q 93477.3 20078.9 95356.8 19291.4 Q 97236.3 18503.9 99565.2 18503.9 Q 101730.3 18503.9 103557.3 19291.4 Q 105384.3 20078.9 106717.8 21601.4 Q 108051.3 23123.9 108796.8 25339.4 Q 109542.3 27554.9 109542.3 30410.9  Z M 93414.3 30410.9 Q 93414.3 34802 94852.8 37017.5 Q 96291.3 39233 99525.3 39233 Q 102759.3 39233 104176.8 37017.5 Q 105594.3 34802 105594.3 30410.9 Q 105594.3 26024 104155.8 23850.5 Q 102717.3 21677 99483.3 21677 Q 96249.3 21677 94831.8 23850.5 Q 93414.3 26024 93414.3 30410.9  Z M 143245.5 41984 L 143245.5 27134.9 Q 143245.5 24404.9 142195.5 23039.9 Q 141145.5 21674.9 138938.4 21674.9 Q 137407.5 21674.9 136336.5 22168.4 Q 135265.5 22661.9 134583 23617.4 Q 133900.5 24572.9 133585.5 25990.4 Q 133270.5 27407.9 133270.5 29255.9 L 133270.5 41981.9 L 129429.6 41981.9 L 129429.6 27132.8 Q 129429.6 24402.8 128390.1 23037.8 Q 127350.6 21672.8 125147.7 21672.8 Q 123528.6 21672.8 122436.6 22218.8 Q 121344.6 22764.8 120683.1 23835.8 Q 120021.6 24906.8 119738.1 26460.8 Q 119454.6 28014.8 119454.6 30030.8 L 119454.6 41981.9 L 115632.6 41981.9 L 115632.6 18923.9 L 118740.6 18923.9 L 119286.6 22031.9 L 119496.6 22031.9 Q 120000.6 21126.8 120693.6 20465.3 Q 121386.6 19803.8 122216.1 19362.8 Q 123045.6 18921.8 123980.1 18711.8 Q 124914.6 18501.8 125880.6 18501.8 Q 128400.6 18501.8 130070.1 19425.8 Q 131739.6 20349.8 132537.6 22323.8 L 132705.6 22323.8 Q 133251.6 21334.7 134018.1 20620.7 Q 134784.6 19906.7 135698.1 19434.2 Q 136611.6 18961.7 137619.6 18730.7 Q 138627.6 18499.7 139677.6 18499.7 Q 143350.5 18499.7 145209 20505.2 Q 147067.5 22510.7 147067.5 26920.7 L 147067.5 41979.8 L 143245.5 41979.8 L 143245.5 41984 Z M 157952.8 41984 L 154130.8 41984 L 154130.8 18926 L 157952.8 18926 L 157952.8 41984 Z M 153836.8 12686.9 Q 153836.8 11426.9 154477.3 10859.9 Q 155117.8 10292.9 156060.7 10292.9 Q 156522.7 10292.9 156932.2 10429.4 Q 157341.7 10565.9 157646.2 10859.9 Q 157950.7 11153.9 158129.2 11605.4 Q 158307.7 12056.9 158307.7 12686.9 Q 158307.7 13904.9 157646.2 14503.4 Q 156984.7 15101.9 156060.7 15101.9 Q 155117.8 15101.9 154477.3 14513.9 Q 153836.8 13925.9 153836.8 12684.8 L 153836.8 12686.9 Z M 178779.1 41984 L 163258 41984 L 163258 39356.9 L 174514 21800.9 L 163953.1 21800.9 L 163953.1 18926 L 178401.1 18926 L 178401.1 21992 L 167397.1 39104.9 L 178779.1 39104.9 L 178779.1 41984 Z M 193248 42404 Q 190938 42404 189027 41627 Q 187116 40850 185740.5 39359 Q 184365 37868 183609 35663 Q 182853 33458 182853 30620.9 Q 182853 27764.9 183546 25517.9 Q 184239 23270.9 185499 21706.4 Q 186759 20141.9 188512.5 19322.9 Q 190266 18503.9 192389.1 18503.9 Q 194466 18503.9 196125 19249.4 Q 197784 19994.9 198939 21349.4 Q 200094 22703.9 200713.5 24604.4 Q 201333 26504.9 201333 28814.9 L 201333 31190 L 186801 31190 Q 186903.9 35240.9 188510.4 37151.9 Q 190116.9 39062.9 193285.8 39062.9 Q 194358.9 39062.9 195272.4 38957.9 Q 196185.9 38852.9 197036.4 38653.4 Q 197886.9 38453.9 198684.9 38149.4 Q 199482.9 37844.9 200299.8 37466.9 L 200299.8 40868.9 Q 199459.8 41270 198651.3 41564 Q 197842.8 41858 196992.3 42047 Q 196141.8 42236 195228.3 42320 Q 194314.8 42404 193241.7 42404 L 193248 42404 Z M 192305.1 21674.9 Q 189911.1 21674.9 188514.6 23312.9 Q 187118.1 24950.9 186889.2 28082 L 197221.2 28082 Q 197221.2 26654 196937.7 25467.5 Q 196654.2 24281 196055.7 23441 Q 195457.2 22601 194533.2 22139 Q 193609.2 21677 192307.2 21677 L 192305.1 21674.9 Z M 221258.4 38894.9 L 221090.4 38894.9 Q 220628.4 39608.9 220008.9 40249.4 Q 219389.4 40889.9 218580.9 41372.9 Q 217772.4 41855.9 216764.4 42128.9 Q 215756.4 42401.9 214496.4 42401.9 Q 212545.5 42401.9 210928.5 41645.9 Q 209311.5 40889.9 208156.5 39388.4 Q 207001.5 37886.9 206371.5 35660.9 Q 205741.5 33434.9 205741.5 30494.9 Q 205741.5 27536 206371.5 25299.5 Q 207001.5 23063 208156.5 21551 Q 209311.5 20039 210928.5 19272.5 Q 212545.5 18506 214496.4 18506 Q 215737.5 18506 216745.5 18779 Q 217753.5 19052 218562 19514 Q 219370.5 19976 220000.5 20585 Q 220630.5 21194 221092.5 21866 L 221344.5 21866 Q 221283.6 21152 221218.5 20498.9 Q 221176.5 19952.9 221134.5 19375.4 Q 221092.5 18797.9 221092.5 18461.9 L 221092.5 9305.9 L 224914.5 9305.9 L 224914.5 41981.9 L 221829.6 41981.9 L 221260.5 38892.8 L 221258.4 38894.9 Z M 215233.5 39230.9 Q 216829.5 39230.9 217932 38747.9 Q 219034.5 38264.9 219717 37277.9 Q 220399.5 36290.9 220725 34810.4 Q 221050.5 33329.9 221092.5 31355.9 L 221092.5 30492.8 Q 221092.5 28373.9 220809 26725.4 Q 220525.5 25076.9 219843 23953.4 Q 219160.5 22829.9 218026.5 22252.4 Q 216892.5 21674.9 215193.6 21674.9 Q 212356.5 21674.9 211023 23963.9 Q 209689.5 26252.9 209689.5 30536.9 Q 209689.5 34928 211023 37080.5 Q 212356.5 39233 215235.6 39233 L 215233.5 39230.9 Z M 260018.3 33770.9 Q 260018.3 35810 259293.8 37416.5 Q 258569.3 39023 257225.3 40136 Q 255881.3 41249 253949.3 41826.5 Q 252017.3 42404 249604.4 42404 Q 247271.3 42404 245244.8 42036.5 Q 243218.3 41669 241851.2 40955 L 241851.2 37217 Q 242565.2 37553 243478.7 37878.5 Q 244392.2 38204 245400.2 38456 Q 246408.2 38708 247479.2 38865.5 Q 248550.2 39023 249600.2 39023 Q 252960.2 39023 254566.7 37763 Q 256173.2 36503 256173.2 34151 Q 256173.2 33017 255868.7 32177 Q 255564.2 31337 254797.7 30633.5 Q 254031.2 29930 252750.2 29268.5 Q 251469.2 28607 249518.3 27832.1 Q 247647.2 27095 246271.7 26223.5 Q 244896.2 25352 244003.7 24260 Q 243111.2 23168 242680.7 21782 Q 242250.2 20396 242250.2 18632 Q 242250.2 16784 242922.2 15335 Q 243594.2 13886 244812.2 12888.5 Q 246030.2 11891 247720.7 11366 Q 249411.2 10841 251450.3 10841 Q 253947.2 10841 255942.2 11313.5 Q 257937.2 11786 259491.2 12518.9 L 258086.3 15794.9 Q 256719.2 15188 254986.7 14736.5 Q 253254.2 14285 251406.2 14285 Q 248844.2 14285 247437.2 15471.5 Q 246030.2 16658 246030.2 18674 Q 246030.2 19868.9 246345.2 20740.4 Q 246660.2 21611.9 247395.2 22315.4 Q 248130.2 23018.9 249337.7 23638.4 Q 250545.2 24257.9 252309.2 24948.8 Q 254222.3 25704.8 255660.8 26502.8 Q 257099.3 27300.8 258065.3 28308.8 Q 259031.3 29316.8 259524.8 30639.8 Q 260018.3 31962.8 260018.3 33768.8 L 260018.3 33770.9 Z M 272667.6 39272.9 Q 273045.6 39272.9 273518.1 39230.9 Q 273990.6 39188.9 274431.6 39125.9 Q 274872.6 39062.9 275240.1 38978.9 Q 275607.6 38894.9 275798.7 38834 L 275798.7 41732 Q 275523.6 41858 275103.6 41984 Q 274683.6 42110 274179.6 42204.5 Q 273675.6 42299 273129.6 42351.5 Q 272583.6 42404 272060.7 42404 Q 270758.7 42404 269645.7 42068 Q 268532.7 41732 267724.2 40913 Q 266915.7 40094 266453.7 38697.5 Q 265991.7 37301 265991.7 35182.1 L 265991.7 21803 L 262738.8 21803 L 262738.8 20104.1 L 265991.7 18466.1 L 267629.7 13636.1 L 269836.8 13636.1 L 269836.8 18928.1 L 275632.8 18928.1 L 275632.8 21803 L 269836.8 21803 L 269836.8 35182.1 Q 269836.8 37217 270498.3 38246 Q 271159.8 39275 272671.8 39275 L 272667.6 39272.9 Z M 276741.2 18926 L 280712.3 18926 L 285225.2 31796.9 Q 285519.2 32636.9 285823.7 33560.9 Q 286128.2 34484.9 286390.7 35408.9 Q 286653.2 36332.9 286842.2 37193.9 Q 287031.2 38054.9 287115.2 38792 L 287241.2 38792 Q 287348.3 38264.9 287579.3 37361.9 Q 287810.3 36458.9 288093.8 35440.4 Q 288377.3 34421.9 288681.8 33434.9 Q 288986.3 32447.9 289215.2 31752.8 L 293396.3 18923.9 L 297344.3 18923.9 L 288230.3 44987 Q 287642.3 46685.9 286959.8 48040.4 Q 286277.3 49394.9 285374.3 50339.9 Q 284471.3 51284.9 283253.3 51799.4 Q 282035.3 52313.9 280355.3 52313.9 Q 279263.3 52313.9 278465.3 52198.4 Q 277667.3 52082.9 277102.4 51956.9 L 277102.4 48909.8 Q 277541.3 49016.9 278213.3 49090.4 Q 278885.3 49163.9 279622.4 49163.9 Q 280630.4 49163.9 281365.4 48922.4 Q 282100.4 48680.9 282646.4 48218.9 Q 283192.4 47756.9 283580.9 47084.9 Q 283969.4 46412.9 284286.5 45549.8 L 285481.4 42189.8 L 276745.4 18921.8 L 276741.2 18926 Z M 304948 41984 L 301126 41984 L 301126 9308 L 304948 9308 L 304948 41984 Z M 321299.2 42404 Q 318989.2 42404 317078.2 41627 Q 315167.2 40850 313791.7 39359 Q 312416.2 37868 311660.2 35663 Q 310904.2 33458 310904.2 30620.9 Q 310904.2 27764.9 311597.2 25517.9 Q 312290.2 23270.9 313550.2 21706.4 Q 314810.2 20141.9 316563.7 19322.9 Q 318317.2 18503.9 320440.3 18503.9 Q 322517.2 18503.9 324176.2 19249.4 Q 325835.2 19994.9 326990.2 21349.4 Q 328145.2 22703.9 328764.7 24604.4 Q 329384.2 26504.9 329384.2 28814.9 L 329384.2 31190 L 314852.2 31190 Q 314955.1 35240.9 316561.6 37151.9 Q 318168.1 39062.9 321337 39062.9 Q 322410.1 39062.9 323323.6 38957.9 Q 324237.1 38852.9 325087.6 38653.4 Q 325938.1 38453.9 326736.1 38149.4 Q 327534.1 37844.9 328351 37466.9 L 328351 40868.9 Q 327511 41270 326702.5 41564 Q 325894 41858 325043.5 42047 Q 324193 42236 323279.5 42320 Q 322366 42404 321292.9 42404 L 321299.2 42404 Z M 320356.3 21674.9 Q 317962.3 21674.9 316565.8 23312.9 Q 315169.3 24950.9 314940.4 28082 L 325272.4 28082 Q 325272.4 26654 324988.9 25467.5 Q 324705.4 24281 324106.9 23441 Q 323508.4 22601 322584.4 22139 Q 321660.4 21677 320358.4 21677 L 320356.3 21674.9 Z " fill-rule="nonzero" style="fill:#000000;;fill-opacity:1;"/>
</svg>