<svg version="1.1" x="0" y="0" width="100%" height="100%" viewBox="0 0 511897.6 49459.2" xmlns="http://www.w3.org/2000/svg">
  <path d="M 14170 13043.15 Q 14170 14801.6 13714 16126.85 Q 13258 17452.1 12393.5 18340.35 Q 11529 19228.6 10270.25 19675.1 Q 9011.5 20121.6 7415.5 20121.6 L 3938.5 20121.6 L 3938.5 6232.6 L 7804.05 6232.6 Q 9258.5 6232.6 10436.5 6669.6 Q 11614.5 7106.6 12441 7966.35 Q 13267.5 8826.1 13718.75 10099.1 Q 14170 11372.1 14170 13044.1 L 14170 13043.15 Z M 12299.45 13100.15 Q 12299.45 11713.15 11985.95 10701.4 Q 11672.45 9689.65 11073.95 9034.15 Q 10475.45 8378.65 9601.45 8060.4 Q 8727.45 7742.15 7615 7742.15 L 5706.45 7742.15 L 5706.45 18601.6 L 7245.45 18601.6 Q 9753.45 18601.6 11026.45 17214.6 Q 12299.45 15827.6 12299.45 13100.15  Z M 25465.25 14886.15 Q 25465.25 16188.6 25147 17200.35 Q 24828.75 18212.1 24235 18900.85 Q 23641.25 19589.6 22795.75 19950.6 Q 21950.25 20311.6 20894.8 20311.6 Q 19917.25 20311.6 19090.75 19950.6 Q 18264.25 19589.6 17661 18900.85 Q 17057.75 18212.1 16720.5 17200.35 Q 16383.25 16188.6 16383.25 14886.15 Q 16383.25 13594.15 16701.5 12591.9 Q 17019.75 11589.65 17608.75 10900.9 Q 18197.75 10212.15 19048 9855.9 Q 19898.25 9499.65 20951.8 9499.65 Q 21931.25 9499.65 22757.75 9855.9 Q 23584.25 10212.15 24187.5 10900.9 Q 24790.75 11589.65 25128 12591.9 Q 25465.25 13594.15 25465.25 14886.15  Z M 18169.25 14886.15 Q 18169.25 16872.6 18820 17874.85 Q 19470.75 18877.1 20933.75 18877.1 Q 22396.75 18877.1 23038 17874.85 Q 23679.25 16872.6 23679.25 14886.15 Q 23679.25 12901.6 23028.5 11918.35 Q 22377.75 10935.1 20914.75 10935.1 Q 19451.75 10935.1 18810.5 11918.35 Q 18169.25 12901.6 18169.25 14886.15  Z M 39760.4 20121.6 L 39760.4 13404.15 Q 39760.4 12169.15 39261.65 11551.65 Q 38762.9 10934.15 37698.9 10934.15 Q 36928.45 10934.15 36405.95 11181.15 Q 35883.45 11428.15 35565.2 11912.65 Q 35246.95 12397.15 35109.2 13100.15 Q 34971.45 13803.15 34971.45 14715.15 L 34971.45 20121.6 L 33242.45 20121.6 L 33242.45 9690.6 L 34648.45 9690.6 L 34895.45 11096.6 L 34990.45 11096.6 Q 35228.9 10687.15 35556.65 10387.9 Q 35884.4 10088.65 36273.9 9889.15 Q 36663.4 9689.65 37100.4 9594.65 Q 37537.4 9499.65 37993.4 9499.65 Q 39732.85 9499.65 40611.6 10406.9 Q 41490.35 11314.15 41490.35 13309.15 L 41490.35 20121.6 L 39761.35 20121.6 L 39760.4 20121.6 Z M 53164.45 14886.15 Q 53164.45 16188.6 52846.2 17200.35 Q 52527.95 18212.1 51934.2 18900.85 Q 51340.45 19589.6 50494.95 19950.6 Q 49649.45 20311.6 48594 20311.6 Q 47616.45 20311.6 46789.95 19950.6 Q 45963.45 19589.6 45360.2 18900.85 Q 44756.95 18212.1 44419.7 17200.35 Q 44082.45 16188.6 44082.45 14886.15 Q 44082.45 13594.15 44400.7 12591.9 Q 44718.95 11589.65 45307.95 10900.9 Q 45896.95 10212.15 46747.2 9855.9 Q 47597.45 9499.65 48651 9499.65 Q 49630.45 9499.65 50456.95 9855.9 Q 51283.45 10212.15 51886.7 10900.9 Q 52489.95 11589.65 52827.2 12591.9 Q 53164.45 13594.15 53164.45 14886.15  Z M 45868.45 14886.15 Q 45868.45 16872.6 46519.2 17874.85 Q 47169.95 18877.1 48632.95 18877.1 Q 50095.95 18877.1 50737.2 17874.85 Q 51378.45 16872.6 51378.45 14886.15 Q 51378.45 12901.6 50727.7 11918.35 Q 50076.95 10935.1 48613.95 10935.1 Q 47150.95 10935.1 46509.7 11918.35 Q 45868.45 12901.6 45868.45 14886.15  Z M 59079 18895.15 Q 59250 18895.15 59463.75 18876.15 Q 59677.5 18857.15 59877 18828.65 Q 60076.5 18800.15 60242.75 18762.15 Q 60409 18724.15 60495.45 18696.6 L 60495.45 20007.6 Q 60371 20064.6 60181 20121.6 Q 59991 20178.6 59763 20221.35 Q 59535 20264.1 59288 20287.85 Q 59041 20311.6 58804.45 20311.6 Q 58215.45 20311.6 57711.95 20159.6 Q 57208.45 20007.6 56842.7 19637.1 Q 56476.95 19266.6 56267.95 18634.85 Q 56058.95 18003.1 56058.95 17044.55 L 56058.95 10992.1 L 54587.4 10992.1 L 54587.4 10223.55 L 56058.95 9482.55 L 56799.95 7297.55 L 57798.4 7297.55 L 57798.4 9691.55 L 60420.4 9691.55 L 60420.4 10992.1 L 57798.4 10992.1 L 57798.4 17044.55 Q 57798.4 17965.1 58097.65 18430.6 Q 58396.9 18896.1 59080.9 18896.1 L 59079 18895.15 Z M 75419.2 20121.6 L 73823.2 14269.6 Q 73785.2 14098.6 73728.2 13884.85 Q 73671.2 13671.1 73614.2 13433.6 Q 73557.2 13196.1 73495.45 12949.1 Q 73433.7 12702.1 73376.7 12465.55 Q 73243.7 11914.55 73100.25 11325.55 L 73043.25 11325.55 Q 72910.25 11923.1 72787.7 12474.1 Q 72682.25 12949.1 72563.5 13452.6 Q 72444.75 13956.1 72339.3 14308.55 L 70705.3 20122.55 L 68701.75 20122.55 L 66031.3 9691.55 L 67846.75 9691.55 L 69090.3 15239.55 Q 69185.3 15666.1 69280.3 16164.85 Q 69375.3 16663.6 69460.8 17152.85 Q 69546.3 17642.1 69612.8 18074.35 Q 69679.3 18506.6 69717.3 18781.15 L 69774.3 18781.15 Q 69822.75 18534.15 69903.5 18120.9 Q 69984.25 17707.65 70084 17246.9 Q 70183.75 16786.15 70288.25 16334.9 Q 70392.75 15883.65 70487.75 15569.2 L 72187.3 9689.65 L 74049.3 9689.65 L 75683.3 15569.2 Q 75769.75 15892.2 75879 16329.2 Q 75988.25 16766.2 76092.75 17217.45 Q 76197.25 17668.7 76282.75 18086.7 Q 76368.25 18504.7 76406.25 18779.25 L 76463.25 18779.25 Q 76492.7 18532.25 76554.45 18119 Q 76616.2 17705.75 76701.7 17211.75 Q 76787.2 16717.75 76886.95 16200 Q 76986.7 15682.25 77090.25 15236.7 L 78392.7 9688.7 L 80159.7 9688.7 L 77461.7 20119.7 L 75418.25 20119.7 L 75419.2 20121.6 Z M 87867.25 20121.6 L 87514.8 18677.6 L 87438.8 18677.6 Q 87126.25 19104.15 86812.75 19412.9 Q 86499.25 19721.65 86128.75 19921.15 Q 85758.25 20120.65 85302.25 20215.65 Q 84846.25 20310.65 84246.8 20310.65 Q 83592.25 20310.65 83041.25 20125.4 Q 82490.25 19940.15 82086.5 19555.4 Q 81682.75 19170.65 81454.75 18586.4 Q 81226.75 18002.15 81226.75 17204.15 Q 81226.75 15646.15 82324 14810.15 Q 83421.25 13974.15 85663.25 13898.15 L 87411.25 13832.6 L 87411.25 13176.15 Q 87411.25 12540.6 87273.5 12113.1 Q 87135.75 11685.6 86874.5 11424.35 Q 86613.25 11163.1 86228.5 11049.1 Q 85843.75 10935.1 85349.75 10935.1 Q 84562.2 10935.1 83882.95 11163.1 Q 83203.7 11391.1 82576.7 11714.1 L 81968.7 10413.55 Q 82671.7 10033.55 83536.2 9767.55 Q 84400.7 9501.55 85350.7 9501.55 Q 86319.7 9501.55 87027.45 9696.3 Q 87735.2 9891.05 88195.95 10313.8 Q 88656.7 10736.55 88884.7 11392.05 Q 89112.7 12047.55 89112.7 12978.55 L 89112.7 20122.55 L 87869.15 20122.55 L 87867.25 20121.6 Z M 84694.25 18914.15 Q 85272.8 18914.15 85766.8 18733.65 Q 86260.8 18553.15 86621.8 18187.4 Q 86982.8 17821.65 87187.05 17265.9 Q 87391.3 16710.15 87391.3 15960.6 L 87391.3 15019.15 L 86031.85 15086.6 Q 85176.85 15124.6 84597.35 15276.6 Q 84017.85 15428.6 83671.1 15699.35 Q 83324.35 15970.1 83172.35 16354.85 Q 83020.35 16739.6 83020.35 17223.15 Q 83020.35 18097.15 83481.1 18505.65 Q 83941.85 18914.15 84693.3 18914.15 L 84694.25 18914.15 Z M 98794 20121.6 L 98794 13404.15 Q 98794 12169.15 98295.25 11551.65 Q 97796.5 10934.15 96732.5 10934.15 Q 95962.05 10934.15 95439.55 11181.15 Q 94917.05 11428.15 94598.8 11912.65 Q 94280.55 12397.15 94142.8 13100.15 Q 94005.05 13803.15 94005.05 14715.15 L 94005.05 20121.6 L 92276.05 20121.6 L 92276.05 9690.6 L 93682.05 9690.6 L 93929.05 11096.6 L 94024.05 11096.6 Q 94262.5 10687.15 94590.25 10387.9 Q 94918 10088.65 95307.5 9889.15 Q 95697 9689.65 96134 9594.65 Q 96571 9499.65 97027 9499.65 Q 98766.45 9499.65 99645.2 10406.9 Q 100523.95 11314.15 100523.95 13309.15 L 100523.95 20121.6 L 98794.95 20121.6 L 98794 20121.6 Z M 106848.6 18895.15 Q 107019.6 18895.15 107233.35 18876.15 Q 107447.1 18857.15 107646.6 18828.65 Q 107846.1 18800.15 108012.35 18762.15 Q 108178.6 18724.15 108265.05 18696.6 L 108265.05 20007.6 Q 108140.6 20064.6 107950.6 20121.6 Q 107760.6 20178.6 107532.6 20221.35 Q 107304.6 20264.1 107057.6 20287.85 Q 106810.6 20311.6 106574.05 20311.6 Q 105985.05 20311.6 105481.55 20159.6 Q 104978.05 20007.6 104612.3 19637.1 Q 104246.55 19266.6 104037.55 18634.85 Q 103828.55 18003.1 103828.55 17044.55 L 103828.55 10992.1 L 102357 10992.1 L 102357 10223.55 L 103828.55 9482.55 L 104569.55 7297.55 L 105568 7297.55 L 105568 9691.55 L 108190 9691.55 L 108190 10992.1 L 105568 10992.1 L 105568 17044.55 Q 105568 17965.1 105867.25 18430.6 Q 106166.5 18896.1 106850.5 18896.1 L 106848.6 18895.15 Z M 118419.8 18895.15 Q 118590.8 18895.15 118804.55 18876.15 Q 119018.3 18857.15 119217.8 18828.65 Q 119417.3 18800.15 119583.55 18762.15 Q 119749.8 18724.15 119836.25 18696.6 L 119836.25 20007.6 Q 119711.8 20064.6 119521.8 20121.6 Q 119331.8 20178.6 119103.8 20221.35 Q 118875.8 20264.1 118628.8 20287.85 Q 118381.8 20311.6 118145.25 20311.6 Q 117556.25 20311.6 117052.75 20159.6 Q 116549.25 20007.6 116183.5 19637.1 Q 115817.75 19266.6 115608.75 18634.85 Q 115399.75 18003.1 115399.75 17044.55 L 115399.75 10992.1 L 113928.2 10992.1 L 113928.2 10223.55 L 115399.75 9482.55 L 116140.75 7297.55 L 117139.2 7297.55 L 117139.2 9691.55 L 119761.2 9691.55 L 119761.2 10992.1 L 117139.2 10992.1 L 117139.2 17044.55 Q 117139.2 17965.1 117438.45 18430.6 Q 117737.7 18896.1 118421.7 18896.1 L 118419.8 18895.15 Z M 130322.85 14886.15 Q 130322.85 16188.6 130004.6 17200.35 Q 129686.35 18212.1 129092.6 18900.85 Q 128498.85 19589.6 127653.35 19950.6 Q 126807.85 20311.6 125752.4 20311.6 Q 124774.85 20311.6 123948.35 19950.6 Q 123121.85 19589.6 122518.6 18900.85 Q 121915.35 18212.1 121578.1 17200.35 Q 121240.85 16188.6 121240.85 14886.15 Q 121240.85 13594.15 121559.1 12591.9 Q 121877.35 11589.65 122466.35 10900.9 Q 123055.35 10212.15 123905.6 9855.9 Q 124755.85 9499.65 125809.4 9499.65 Q 126788.85 9499.65 127615.35 9855.9 Q 128441.85 10212.15 129045.1 10900.9 Q 129648.35 11589.65 129985.6 12591.9 Q 130322.85 13594.15 130322.85 14886.15  Z M 123026.85 14886.15 Q 123026.85 16872.6 123677.6 17874.85 Q 124328.35 18877.1 125791.35 18877.1 Q 127254.35 18877.1 127895.6 17874.85 Q 128536.85 16872.6 128536.85 14886.15 Q 128536.85 12901.6 127886.1 11918.35 Q 127235.35 10935.1 125772.35 10935.1 Q 124309.35 10935.1 123668.1 11918.35 Q 123026.85 12901.6 123026.85 14886.15  Z M 144542 18724.15 L 144466 18724.15 Q 144257 19047.15 143976.75 19336.9 Q 143696.5 19626.65 143330.75 19845.15 Q 142965 20063.65 142509 20187.15 Q 142053 20310.65 141483 20310.65 Q 140600.45 20310.65 139868.95 19968.65 Q 139137.45 19626.65 138614.95 18947.4 Q 138092.45 18268.15 137807.45 17261.15 Q 137522.45 16254.15 137522.45 14924.15 Q 137522.45 13585.6 137807.45 12573.85 Q 138092.45 11562.1 138614.95 10878.1 Q 139137.45 10194.1 139868.95 9847.35 Q 140600.45 9500.6 141483 9500.6 Q 142044.45 9500.6 142500.45 9624.1 Q 142956.45 9747.6 143322.2 9956.6 Q 143687.95 10165.6 143972.95 10441.1 Q 144257.95 10716.6 144466.95 11020.6 L 144580.95 11020.6 Q 144553.4 10697.6 144523.95 10402.15 Q 144504.95 10155.15 144485.95 9893.9 Q 144466.95 9632.65 144466.95 9480.65 L 144466.95 5338.65 L 146195.95 5338.65 L 146195.95 20120.65 L 144800.4 20120.65 L 144542.95 18723.2 L 144542 18724.15 Z M 141816.45 18876.15 Q 142538.45 18876.15 143037.2 18657.65 Q 143535.95 18439.15 143844.7 17992.65 Q 144153.45 17546.15 144300.7 16876.4 Q 144447.95 16206.65 144466.95 15313.65 L 144466.95 14923.2 Q 144466.95 13964.65 144338.7 13218.9 Q 144210.45 12473.15 143901.7 11964.9 Q 143592.95 11456.65 143079.95 11195.4 Q 142566.95 10934.15 141798.4 10934.15 Q 140514.95 10934.15 139911.7 11969.65 Q 139308.45 13005.15 139308.45 14943.15 Q 139308.45 16929.6 139911.7 17903.35 Q 140514.95 18877.1 141817.4 18877.1 L 141816.45 18876.15 Z M 151247.6 20121.6 L 149518.6 20121.6 L 149518.6 9690.6 L 151247.6 9690.6 L 151247.6 20121.6 Z M 149385.6 6868.15 Q 149385.6 6298.15 149675.35 6041.65 Q 149965.1 5785.15 150391.65 5785.15 Q 150600.65 5785.15 150785.9 5846.9 Q 150971.15 5908.65 151108.9 6041.65 Q 151246.65 6174.65 151327.4 6378.9 Q 151408.15 6583.15 151408.15 6868.15 Q 151408.15 7419.15 151108.9 7689.9 Q 150809.65 7960.65 150391.65 7960.65 Q 149965.1 7960.65 149675.35 7694.65 Q 149385.6 7428.65 149385.6 6867.2 L 149385.6 6868.15 Z M 160778.65 17261.15 Q 160778.65 18021.15 160503.15 18591.15 Q 160227.65 19161.15 159709.9 19545.9 Q 159192.15 19930.65 158460.65 20120.65 Q 157729.15 20310.65 156817.15 20310.65 Q 155782.6 20310.65 155041.6 20144.4 Q 154300.6 19978.15 153739.15 19655.15 L 153739.15 18078.15 Q 154034.6 18230.15 154395.6 18377.4 Q 154756.6 18524.65 155155.6 18638.65 Q 155554.6 18752.65 155977.35 18823.9 Q 156400.1 18895.15 156818.1 18895.15 Q 157436.55 18895.15 157868.8 18790.65 Q 158301.05 18686.15 158571.8 18491.4 Q 158842.55 18296.65 158966.05 18016.4 Q 159089.55 17736.15 159089.55 17394.15 Q 159089.55 17100.6 158994.55 16863.1 Q 158899.55 16625.6 158647.8 16392.85 Q 158396.05 16160.1 157959.05 15922.6 Q 157522.05 15685.1 156838.05 15391.55 Q 156154.05 15096.1 155607.8 14811.1 Q 155061.55 14526.1 154681.55 14174.6 Q 154301.55 13823.1 154097.3 13362.35 Q 153893.05 12901.6 153893.05 12264.15 Q 153893.05 11599.15 154154.3 11081.4 Q 154415.55 10563.65 154890.55 10212.15 Q 155365.55 9860.65 156030.55 9680.15 Q 156695.55 9499.65 157512.55 9499.65 Q 158433.1 9499.65 159197.85 9699.15 Q 159962.6 9898.65 160646.6 10221.65 L 160047.15 11617.2 Q 159430.6 11342.65 158779.85 11138.4 Q 158129.1 10934.15 157455.55 10934.15 Q 156486.55 10934.15 156021.05 11252.4 Q 155555.55 11570.65 155555.55 12159.65 Q 155555.55 12491.2 155664.8 12738.2 Q 155774.05 12985.2 156040.05 13203.7 Q 156306.05 13422.2 156752.55 13645.45 Q 157199.05 13868.7 157864.05 14143.25 Q 158548.05 14428.25 159084.8 14713.25 Q 159621.55 14998.25 160001.55 15354.5 Q 160381.55 15710.75 160581.05 16166.75 Q 160780.55 16622.75 160780.55 17258.3 L 160778.65 17261.15 Z M 168003.4 20311.6 Q 167443.85 20311.6 166987.85 20188.1 Q 166531.85 20064.6 166166.1 19860.35 Q 165800.35 19656.1 165520.1 19380.6 Q 165239.85 19105.1 165020.4 18801.1 L 164906.4 18801.1 Q 164935.85 19124.1 164963.4 19419.55 Q 164982.4 19666.55 165001.4 19927.8 Q 165020.4 20189.05 165020.4 20341.05 L 165020.4 24795.6 L 163291.4 24795.6 L 163291.4 9690.6 L 164697.4 9690.6 L 164944.4 11096.6 L 165020.4 11096.6 Q 165239.85 10763.15 165515.35 10473.4 Q 165790.85 10183.65 166156.6 9969.9 Q 166522.35 9756.15 166978.35 9627.9 Q 167434.35 9499.65 168004.35 9499.65 Q 168897.35 9499.65 169628.85 9841.65 Q 170360.35 10183.65 170878.1 10862.9 Q 171395.85 11542.15 171680.85 12549.15 Q 171965.85 13556.15 171965.85 14886.15 Q 171965.85 16226.6 171680.85 17238.35 Q 171395.85 18250.1 170878.1 18934.1 Q 170360.35 19618.1 169628.85 19964.85 Q 168897.35 20311.6 168004.35 20311.6 L 168003.4 20311.6 Z M 167671.85 10934.15 Q 166949.85 10934.15 166451.1 11152.65 Q 165952.35 11371.15 165643.6 11817.65 Q 165334.85 12264.15 165187.6 12929.15 Q 165040.35 13594.15 165021.35 14497.6 L 165021.35 14886.15 Q 165021.35 15846.6 165149.6 16592.35 Q 165277.85 17338.1 165586.6 17846.35 Q 165895.35 18354.6 166408.35 18615.85 Q 166921.35 18877.1 167691.8 18877.1 Q 168973.35 18877.1 169576.6 17841.6 Q 170179.85 16806.1 170179.85 14868.1 Q 170179.85 12892.1 169576.6 11913.6 Q 168973.35 10935.1 167672.8 10935.1 L 167671.85 10934.15 Z M 176438 20121.6 L 174709 20121.6 L 174709 5339.6 L 176438 5339.6 L 176438 20121.6 Z M 185608.05 20121.6 L 185255.6 18677.6 L 185179.6 18677.6 Q 184867.05 19104.15 184553.55 19412.9 Q 184240.05 19721.65 183869.55 19921.15 Q 183499.05 20120.65 183043.05 20215.65 Q 182587.05 20310.65 181987.6 20310.65 Q 181333.05 20310.65 180782.05 20125.4 Q 180231.05 19940.15 179827.3 19555.4 Q 179423.55 19170.65 179195.55 18586.4 Q 178967.55 18002.15 178967.55 17204.15 Q 178967.55 15646.15 180064.8 14810.15 Q 181162.05 13974.15 183404.05 13898.15 L 185152.05 13832.6 L 185152.05 13176.15 Q 185152.05 12540.6 185014.3 12113.1 Q 184876.55 11685.6 184615.3 11424.35 Q 184354.05 11163.1 183969.3 11049.1 Q 183584.55 10935.1 183090.55 10935.1 Q 182303 10935.1 181623.75 11163.1 Q 180944.5 11391.1 180317.5 11714.1 L 179709.5 10413.55 Q 180412.5 10033.55 181277 9767.55 Q 182141.5 9501.55 183091.5 9501.55 Q 184060.5 9501.55 184768.25 9696.3 Q 185476 9891.05 185936.75 10313.8 Q 186397.5 10736.55 186625.5 11392.05 Q 186853.5 12047.55 186853.5 12978.55 L 186853.5 20122.55 L 185609.95 20122.55 L 185608.05 20121.6 Z M 182435.05 18914.15 Q 183013.6 18914.15 183507.6 18733.65 Q 184001.6 18553.15 184362.6 18187.4 Q 184723.6 17821.65 184927.85 17265.9 Q 185132.1 16710.15 185132.1 15960.6 L 185132.1 15019.15 L 183772.65 15086.6 Q 182917.65 15124.6 182338.15 15276.6 Q 181758.65 15428.6 181411.9 15699.35 Q 181065.15 15970.1 180913.15 16354.85 Q 180761.15 16739.6 180761.15 17223.15 Q 180761.15 18097.15 181221.9 18505.65 Q 181682.65 18914.15 182434.1 18914.15 L 182435.05 18914.15 Z M 188459.8 9690.6 L 190256.25 9690.6 L 192297.8 15513.15 Q 192430.8 15893.15 192568.55 16311.15 Q 192706.3 16729.15 192825.05 17147.15 Q 192943.8 17565.15 193029.3 17954.65 Q 193114.8 18344.15 193152.8 18677.6 L 193209.8 18677.6 Q 193258.25 18439.15 193362.75 18030.65 Q 193467.25 17622.15 193595.5 17161.4 Q 193723.75 16700.65 193861.5 16254.15 Q 193999.25 15807.65 194102.8 15493.2 L 195994.25 9689.65 L 197780.25 9689.65 L 193657.25 21480.1 Q 193391.25 22248.65 193082.5 22861.4 Q 192773.75 23474.15 192365.25 23901.65 Q 191956.75 24329.15 191405.75 24561.9 Q 190854.75 24794.65 190094.75 24794.65 Q 189600.75 24794.65 189239.75 24742.4 Q 188878.75 24690.15 188623.2 24633.15 L 188623.2 23254.7 Q 188821.75 23303.15 189125.75 23336.4 Q 189429.75 23369.65 189763.2 23369.65 Q 190219.2 23369.65 190551.7 23260.4 Q 190884.2 23151.15 191131.2 22942.15 Q 191378.2 22733.15 191553.95 22429.15 Q 191729.7 22125.15 191873.15 21734.7 L 192413.7 20214.7 L 188461.7 9688.7 L 188459.8 9690.6 Z M 202949.4 9690.6 L 204745.85 9690.6 L 206787.4 15513.15 Q 206920.4 15893.15 207058.15 16311.15 Q 207195.9 16729.15 207314.65 17147.15 Q 207433.4 17565.15 207518.9 17954.65 Q 207604.4 18344.15 207642.4 18677.6 L 207699.4 18677.6 Q 207747.85 18439.15 207852.35 18030.65 Q 207956.85 17622.15 208085.1 17161.4 Q 208213.35 16700.65 208351.1 16254.15 Q 208488.85 15807.65 208592.4 15493.2 L 210483.85 9689.65 L 212269.85 9689.65 L 208146.85 21480.1 Q 207880.85 22248.65 207572.1 22861.4 Q 207263.35 23474.15 206854.85 23901.65 Q 206446.35 24329.15 205895.35 24561.9 Q 205344.35 24794.65 204584.35 24794.65 Q 204090.35 24794.65 203729.35 24742.4 Q 203368.35 24690.15 203112.8 24633.15 L 203112.8 23254.7 Q 203311.35 23303.15 203615.35 23336.4 Q 203919.35 23369.65 204252.8 23369.65 Q 204708.8 23369.65 205041.3 23260.4 Q 205373.8 23151.15 205620.8 22942.15 Q 205867.8 22733.15 206043.55 22429.15 Q 206219.3 22125.15 206362.75 21734.7 L 206903.3 20214.7 L 202951.3 9688.7 L 202949.4 9690.6 Z M 222482.85 14886.15 Q 222482.85 16188.6 222164.6 17200.35 Q 221846.35 18212.1 221252.6 18900.85 Q 220658.85 19589.6 219813.35 19950.6 Q 218967.85 20311.6 217912.4 20311.6 Q 216934.85 20311.6 216108.35 19950.6 Q 215281.85 19589.6 214678.6 18900.85 Q 214075.35 18212.1 213738.1 17200.35 Q 213400.85 16188.6 213400.85 14886.15 Q 213400.85 13594.15 213719.1 12591.9 Q 214037.35 11589.65 214626.35 10900.9 Q 215215.35 10212.15 216065.6 9855.9 Q 216915.85 9499.65 217969.4 9499.65 Q 218948.85 9499.65 219775.35 9855.9 Q 220601.85 10212.15 221205.1 10900.9 Q 221808.35 11589.65 222145.6 12591.9 Q 222482.85 13594.15 222482.85 14886.15  Z M 215186.85 14886.15 Q 215186.85 16872.6 215837.6 17874.85 Q 216488.35 18877.1 217951.35 18877.1 Q 219414.35 18877.1 220055.6 17874.85 Q 220696.85 16872.6 220696.85 14886.15 Q 220696.85 12901.6 220046.1 11918.35 Q 219395.35 10935.1 217932.35 10935.1 Q 216469.35 10935.1 215828.1 11918.35 Q 215186.85 12901.6 215186.85 14886.15  Z M 231998.85 20121.6 L 231741.4 18724.15 L 231646.4 18724.15 Q 231409.85 19133.6 231082.1 19432.85 Q 230754.35 19732.1 230364.85 19926.85 Q 229975.35 20121.6 229538.35 20216.6 Q 229101.35 20311.6 228645.35 20311.6 Q 227781.8 20311.6 227126.3 20093.1 Q 226470.8 19874.6 226033.8 19409.1 Q 225596.8 18943.6 225373.55 18221.6 Q 225150.3 17499.6 225150.3 16501.15 L 225150.3 9690.6 L 226879.3 9690.6 L 226879.3 16406.15 Q 226879.3 17641.15 227382.8 18258.65 Q 227886.3 18876.15 228941.75 18876.15 Q 229710.3 18876.15 230232.8 18629.15 Q 230755.3 18382.15 231073.55 17902.4 Q 231391.8 17422.65 231529.55 16719.65 Q 231667.3 16016.65 231667.3 15104.65 L 231667.3 9689.65 L 233396.3 9689.65 L 233396.3 20120.65 L 232000.75 20120.65 L 231998.85 20121.6 Z M 241174.45 9500.6 Q 241449 9500.6 241791 9524.35 Q 242133 9548.1 242380 9596.55 L 242152 11192.55 Q 241886 11144.1 241605.75 11110.85 Q 241325.5 11077.6 241078.5 11077.6 Q 240479.05 11077.6 239985.05 11319.85 Q 239491.05 11562.1 239134.8 12013.35 Q 238778.55 12464.6 238583.8 13096.35 Q 238389.05 13728.1 238389.05 14498.55 L 238389.05 20122.55 L 236660.05 20122.55 L 236660.05 9691.55 L 238066.05 9691.55 L 238275.05 11600.1 L 238351.05 11600.1 Q 238589.5 11192.55 238860.25 10812.55 Q 239131 10432.55 239468.25 10142.8 Q 239805.5 9853.05 240223.5 9677.3 Q 240641.5 9501.55 241173.5 9501.55 L 241174.45 9500.6 Z M 254173 20311.6 Q 253613.45 20311.6 253157.45 20188.1 Q 252701.45 20064.6 252335.7 19860.35 Q 251969.95 19656.1 251689.7 19380.6 Q 251409.45 19105.1 251190 18801.1 L 251076 18801.1 Q 251105.45 19124.1 251133 19419.55 Q 251152 19666.55 251171 19927.8 Q 251190 20189.05 251190 20341.05 L 251190 24795.6 L 249461 24795.6 L 249461 9690.6 L 250867 9690.6 L 251114 11096.6 L 251190 11096.6 Q 251409.45 10763.15 251684.95 10473.4 Q 251960.45 10183.65 252326.2 9969.9 Q 252691.95 9756.15 253147.95 9627.9 Q 253603.95 9499.65 254173.95 9499.65 Q 255066.95 9499.65 255798.45 9841.65 Q 256529.95 10183.65 257047.7 10862.9 Q 257565.45 11542.15 257850.45 12549.15 Q 258135.45 13556.15 258135.45 14886.15 Q 258135.45 16226.6 257850.45 17238.35 Q 257565.45 18250.1 257047.7 18934.1 Q 256529.95 19618.1 255798.45 19964.85 Q 255066.95 20311.6 254173.95 20311.6 L 254173 20311.6 Z M 253841.45 10934.15 Q 253119.45 10934.15 252620.7 11152.65 Q 252121.95 11371.15 251813.2 11817.65 Q 251504.45 12264.15 251357.2 12929.15 Q 251209.95 13594.15 251190.95 14497.6 L 251190.95 14886.15 Q 251190.95 15846.6 251319.2 16592.35 Q 251447.45 17338.1 251756.2 17846.35 Q 252064.95 18354.6 252577.95 18615.85 Q 253090.95 18877.1 253861.4 18877.1 Q 255142.95 18877.1 255746.2 17841.6 Q 256349.45 16806.1 256349.45 14868.1 Q 256349.45 12892.1 255746.2 11913.6 Q 255142.95 10935.1 253842.4 10935.1 L 253841.45 10934.15 Z M 265392.05 9500.6 Q 265666.6 9500.6 266008.6 9524.35 Q 266350.6 9548.1 266597.6 9596.55 L 266369.6 11192.55 Q 266103.6 11144.1 265823.35 11110.85 Q 265543.1 11077.6 265296.1 11077.6 Q 264696.65 11077.6 264202.65 11319.85 Q 263708.65 11562.1 263352.4 12013.35 Q 262996.15 12464.6 262801.4 13096.35 Q 262606.65 13728.1 262606.65 14498.55 L 262606.65 20122.55 L 260877.65 20122.55 L 260877.65 9691.55 L 262283.65 9691.55 L 262492.65 11600.1 L 262568.65 11600.1 Q 262807.1 11192.55 263077.85 10812.55 Q 263348.6 10432.55 263685.85 10142.8 Q 264023.1 9853.05 264441.1 9677.3 Q 264859.1 9501.55 265391.1 9501.55 L 265392.05 9500.6 Z M 272784 20311.6 Q 271739 20311.6 270874.5 19960.1 Q 270010 19608.6 269387.75 18934.1 Q 268765.5 18259.6 268423.5 17262.1 Q 268081.5 16264.6 268081.5 14981.15 Q 268081.5 13689.15 268395 12672.65 Q 268708.5 11656.15 269278.5 10948.4 Q 269848.5 10240.65 270641.75 9870.15 Q 271435 9499.65 272395.45 9499.65 Q 273335 9499.65 274085.5 9836.9 Q 274836 10174.15 275358.5 10786.9 Q 275881 11399.65 276161.25 12259.4 Q 276441.5 13119.15 276441.5 14164.15 L 276441.5 15238.6 L 269867.5 15238.6 Q 269914.05 17071.15 270640.8 17935.65 Q 271367.55 18800.15 272801.1 18800.15 Q 273286.55 18800.15 273699.8 18752.65 Q 274113.05 18705.15 274497.8 18614.9 Q 274882.55 18524.65 275243.55 18386.9 Q 275604.55 18249.15 275974.1 18078.15 L 275974.1 19617.15 Q 275594.1 19798.6 275228.35 19931.6 Q 274862.6 20064.6 274477.85 20150.1 Q 274093.1 20235.6 273679.85 20273.6 Q 273266.6 20311.6 272781.15 20311.6 L 272784 20311.6 Z M 272357.45 10934.15 Q 271274.45 10934.15 270642.7 11675.15 Q 270010.95 12416.15 269907.4 13832.6 L 274581.4 13832.6 Q 274581.4 13186.6 274453.15 12649.85 Q 274324.9 12113.1 274054.15 11733.1 Q 273783.4 11353.1 273365.4 11144.1 Q 272947.4 10935.1 272358.4 10935.1 L 272357.45 10934.15 Z M 285245.85 17261.15 Q 285245.85 18021.15 284970.35 18591.15 Q 284694.85 19161.15 284177.1 19545.9 Q 283659.35 19930.65 282927.85 20120.65 Q 282196.35 20310.65 281284.35 20310.65 Q 280249.8 20310.65 279508.8 20144.4 Q 278767.8 19978.15 278206.35 19655.15 L 278206.35 18078.15 Q 278501.8 18230.15 278862.8 18377.4 Q 279223.8 18524.65 279622.8 18638.65 Q 280021.8 18752.65 280444.55 18823.9 Q 280867.3 18895.15 281285.3 18895.15 Q 281903.75 18895.15 282336 18790.65 Q 282768.25 18686.15 283039 18491.4 Q 283309.75 18296.65 283433.25 18016.4 Q 283556.75 17736.15 283556.75 17394.15 Q 283556.75 17100.6 283461.75 16863.1 Q 283366.75 16625.6 283115 16392.85 Q 282863.25 16160.1 282426.25 15922.6 Q 281989.25 15685.1 281305.25 15391.55 Q 280621.25 15096.1 280075 14811.1 Q 279528.75 14526.1 279148.75 14174.6 Q 278768.75 13823.1 278564.5 13362.35 Q 278360.25 12901.6 278360.25 12264.15 Q 278360.25 11599.15 278621.5 11081.4 Q 278882.75 10563.65 279357.75 10212.15 Q 279832.75 9860.65 280497.75 9680.15 Q 281162.75 9499.65 281979.75 9499.65 Q 282900.3 9499.65 283665.05 9699.15 Q 284429.8 9898.65 285113.8 10221.65 L 284514.35 11617.2 Q 283897.8 11342.65 283247.05 11138.4 Q 282596.3 10934.15 281922.75 10934.15 Q 280953.75 10934.15 280488.25 11252.4 Q 280022.75 11570.65 280022.75 12159.65 Q 280022.75 12491.2 280132 12738.2 Q 280241.25 12985.2 280507.25 13203.7 Q 280773.25 13422.2 281219.75 13645.45 Q 281666.25 13868.7 282331.25 14143.25 Q 283015.25 14428.25 283552 14713.25 Q 284088.75 14998.25 284468.75 15354.5 Q 284848.75 15710.75 285048.25 16166.75 Q 285247.75 16622.75 285247.75 17258.3 L 285245.85 17261.15 Z M 291881.6 20311.6 Q 290836.6 20311.6 289972.1 19960.1 Q 289107.6 19608.6 288485.35 18934.1 Q 287863.1 18259.6 287521.1 17262.1 Q 287179.1 16264.6 287179.1 14981.15 Q 287179.1 13689.15 287492.6 12672.65 Q 287806.1 11656.15 288376.1 10948.4 Q 288946.1 10240.65 289739.35 9870.15 Q 290532.6 9499.65 291493.05 9499.65 Q 292432.6 9499.65 293183.1 9836.9 Q 293933.6 10174.15 294456.1 10786.9 Q 294978.6 11399.65 295258.85 12259.4 Q 295539.1 13119.15 295539.1 14164.15 L 295539.1 15238.6 L 288965.1 15238.6 Q 289011.65 17071.15 289738.4 17935.65 Q 290465.15 18800.15 291898.7 18800.15 Q 292384.15 18800.15 292797.4 18752.65 Q 293210.65 18705.15 293595.4 18614.9 Q 293980.15 18524.65 294341.15 18386.9 Q 294702.15 18249.15 295071.7 18078.15 L 295071.7 19617.15 Q 294691.7 19798.6 294325.95 19931.6 Q 293960.2 20064.6 293575.45 20150.1 Q 293190.7 20235.6 292777.45 20273.6 Q 292364.2 20311.6 291878.75 20311.6 L 291881.6 20311.6 Z M 291455.05 10934.15 Q 290372.05 10934.15 289740.3 11675.15 Q 289108.55 12416.15 289005 13832.6 L 293679 13832.6 Q 293679 13186.6 293550.75 12649.85 Q 293422.5 12113.1 293151.75 11733.1 Q 292881 11353.1 292463 11144.1 Q 292045 10935.1 291456 10935.1 L 291455.05 10934.15 Z M 304618 20121.6 L 304618 13404.15 Q 304618 12169.15 304119.25 11551.65 Q 303620.5 10934.15 302556.5 10934.15 Q 301786.05 10934.15 301263.55 11181.15 Q 300741.05 11428.15 300422.8 11912.65 Q 300104.55 12397.15 299966.8 13100.15 Q 299829.05 13803.15 299829.05 14715.15 L 299829.05 20121.6 L 298100.05 20121.6 L 298100.05 9690.6 L 299506.05 9690.6 L 299753.05 11096.6 L 299848.05 11096.6 Q 300086.5 10687.15 300414.25 10387.9 Q 300742 10088.65 301131.5 9889.15 Q 301521 9689.65 301958 9594.65 Q 302395 9499.65 302851 9499.65 Q 304590.45 9499.65 305469.2 10406.9 Q 306347.95 11314.15 306347.95 13309.15 L 306347.95 20121.6 L 304618.95 20121.6 L 304618 20121.6 Z M 312672.6 18895.15 Q 312843.6 18895.15 313057.35 18876.15 Q 313271.1 18857.15 313470.6 18828.65 Q 313670.1 18800.15 313836.35 18762.15 Q 314002.6 18724.15 314089.05 18696.6 L 314089.05 20007.6 Q 313964.6 20064.6 313774.6 20121.6 Q 313584.6 20178.6 313356.6 20221.35 Q 313128.6 20264.1 312881.6 20287.85 Q 312634.6 20311.6 312398.05 20311.6 Q 311809.05 20311.6 311305.55 20159.6 Q 310802.05 20007.6 310436.3 19637.1 Q 310070.55 19266.6 309861.55 18634.85 Q 309652.55 18003.1 309652.55 17044.55 L 309652.55 10992.1 L 308181 10992.1 L 308181 10223.55 L 309652.55 9482.55 L 310393.55 7297.55 L 311392 7297.55 L 311392 9691.55 L 314014 9691.55 L 314014 10992.1 L 311392 10992.1 L 311392 17044.55 Q 311392 17965.1 311691.25 18430.6 Q 311990.5 18896.1 312674.5 18896.1 L 312672.6 18895.15 Z M 321953.65 20121.6 L 321601.2 18677.6 L 321525.2 18677.6 Q 321212.65 19104.15 320899.15 19412.9 Q 320585.65 19721.65 320215.15 19921.15 Q 319844.65 20120.65 319388.65 20215.65 Q 318932.65 20310.65 318333.2 20310.65 Q 317678.65 20310.65 317127.65 20125.4 Q 316576.65 19940.15 316172.9 19555.4 Q 315769.15 19170.65 315541.15 18586.4 Q 315313.15 18002.15 315313.15 17204.15 Q 315313.15 15646.15 316410.4 14810.15 Q 317507.65 13974.15 319749.65 13898.15 L 321497.65 13832.6 L 321497.65 13176.15 Q 321497.65 12540.6 321359.9 12113.1 Q 321222.15 11685.6 320960.9 11424.35 Q 320699.65 11163.1 320314.9 11049.1 Q 319930.15 10935.1 319436.15 10935.1 Q 318648.6 10935.1 317969.35 11163.1 Q 317290.1 11391.1 316663.1 11714.1 L 316055.1 10413.55 Q 316758.1 10033.55 317622.6 9767.55 Q 318487.1 9501.55 319437.1 9501.55 Q 320406.1 9501.55 321113.85 9696.3 Q 321821.6 9891.05 322282.35 10313.8 Q 322743.1 10736.55 322971.1 11392.05 Q 323199.1 12047.55 323199.1 12978.55 L 323199.1 20122.55 L 321955.55 20122.55 L 321953.65 20121.6 Z M 318780.65 18914.15 Q 319359.2 18914.15 319853.2 18733.65 Q 320347.2 18553.15 320708.2 18187.4 Q 321069.2 17821.65 321273.45 17265.9 Q 321477.7 16710.15 321477.7 15960.6 L 321477.7 15019.15 L 320118.25 15086.6 Q 319263.25 15124.6 318683.75 15276.6 Q 318104.25 15428.6 317757.5 15699.35 Q 317410.75 15970.1 317258.75 16354.85 Q 317106.75 16739.6 317106.75 17223.15 Q 317106.75 18097.15 317567.5 18505.65 Q 318028.25 18914.15 318779.7 18914.15 L 318780.65 18914.15 Z M 329517.4 18895.15 Q 329688.4 18895.15 329902.15 18876.15 Q 330115.9 18857.15 330315.4 18828.65 Q 330514.9 18800.15 330681.15 18762.15 Q 330847.4 18724.15 330933.85 18696.6 L 330933.85 20007.6 Q 330809.4 20064.6 330619.4 20121.6 Q 330429.4 20178.6 330201.4 20221.35 Q 329973.4 20264.1 329726.4 20287.85 Q 329479.4 20311.6 329242.85 20311.6 Q 328653.85 20311.6 328150.35 20159.6 Q 327646.85 20007.6 327281.1 19637.1 Q 326915.35 19266.6 326706.35 18634.85 Q 326497.35 18003.1 326497.35 17044.55 L 326497.35 10992.1 L 325025.8 10992.1 L 325025.8 10223.55 L 326497.35 9482.55 L 327238.35 7297.55 L 328236.8 7297.55 L 328236.8 9691.55 L 330858.8 9691.55 L 330858.8 10992.1 L 328236.8 10992.1 L 328236.8 17044.55 Q 328236.8 17965.1 328536.05 18430.6 Q 328835.3 18896.1 329519.3 18896.1 L 329517.4 18895.15 Z M 334646 20121.6 L 332917 20121.6 L 332917 9690.6 L 334646 9690.6 L 334646 20121.6 Z M 332784 6868.15 Q 332784 6298.15 333073.75 6041.65 Q 333363.5 5785.15 333790.05 5785.15 Q 333999.05 5785.15 334184.3 5846.9 Q 334369.55 5908.65 334507.3 6041.65 Q 334645.05 6174.65 334725.8 6378.9 Q 334806.55 6583.15 334806.55 6868.15 Q 334806.55 7419.15 334507.3 7689.9 Q 334208.05 7960.65 333790.05 7960.65 Q 333363.5 7960.65 333073.75 7694.65 Q 332784 7428.65 332784 6867.2 L 332784 6868.15 Z M 346438.05 14886.15 Q 346438.05 16188.6 346119.8 17200.35 Q 345801.55 18212.1 345207.8 18900.85 Q 344614.05 19589.6 343768.55 19950.6 Q 342923.05 20311.6 341867.6 20311.6 Q 340890.05 20311.6 340063.55 19950.6 Q 339237.05 19589.6 338633.8 18900.85 Q 338030.55 18212.1 337693.3 17200.35 Q 337356.05 16188.6 337356.05 14886.15 Q 337356.05 13594.15 337674.3 12591.9 Q 337992.55 11589.65 338581.55 10900.9 Q 339170.55 10212.15 340020.8 9855.9 Q 340871.05 9499.65 341924.6 9499.65 Q 342904.05 9499.65 343730.55 9855.9 Q 344557.05 10212.15 345160.3 10900.9 Q 345763.55 11589.65 346100.8 12591.9 Q 346438.05 13594.15 346438.05 14886.15  Z M 339142.05 14886.15 Q 339142.05 16872.6 339792.8 17874.85 Q 340443.55 18877.1 341906.55 18877.1 Q 343369.55 18877.1 344010.8 17874.85 Q 344652.05 16872.6 344652.05 14886.15 Q 344652.05 12901.6 344001.3 11918.35 Q 343350.55 10935.1 341887.55 10935.1 Q 340424.55 10935.1 339783.3 11918.35 Q 339142.05 12901.6 339142.05 14886.15  Z M 355715.6 20121.6 L 355715.6 13404.15 Q 355715.6 12169.15 355216.85 11551.65 Q 354718.1 10934.15 353654.1 10934.15 Q 352883.65 10934.15 352361.15 11181.15 Q 351838.65 11428.15 351520.4 11912.65 Q 351202.15 12397.15 351064.4 13100.15 Q 350926.65 13803.15 350926.65 14715.15 L 350926.65 20121.6 L 349197.65 20121.6 L 349197.65 9690.6 L 350603.65 9690.6 L 350850.65 11096.6 L 350945.65 11096.6 Q 351184.1 10687.15 351511.85 10387.9 Q 351839.6 10088.65 352229.1 9889.15 Q 352618.6 9689.65 353055.6 9594.65 Q 353492.6 9499.65 353948.6 9499.65 Q 355688.05 9499.65 356566.8 10406.9 Q 357445.55 11314.15 357445.55 13309.15 L 357445.55 20121.6 L 355716.55 20121.6 L 355715.6 20121.6 Z M 366858.65 17261.15 Q 366858.65 18021.15 366583.15 18591.15 Q 366307.65 19161.15 365789.9 19545.9 Q 365272.15 19930.65 364540.65 20120.65 Q 363809.15 20310.65 362897.15 20310.65 Q 361862.6 20310.65 361121.6 20144.4 Q 360380.6 19978.15 359819.15 19655.15 L 359819.15 18078.15 Q 360114.6 18230.15 360475.6 18377.4 Q 360836.6 18524.65 361235.6 18638.65 Q 361634.6 18752.65 362057.35 18823.9 Q 362480.1 18895.15 362898.1 18895.15 Q 363516.55 18895.15 363948.8 18790.65 Q 364381.05 18686.15 364651.8 18491.4 Q 364922.55 18296.65 365046.05 18016.4 Q 365169.55 17736.15 365169.55 17394.15 Q 365169.55 17100.6 365074.55 16863.1 Q 364979.55 16625.6 364727.8 16392.85 Q 364476.05 16160.1 364039.05 15922.6 Q 363602.05 15685.1 362918.05 15391.55 Q 362234.05 15096.1 361687.8 14811.1 Q 361141.55 14526.1 360761.55 14174.6 Q 360381.55 13823.1 360177.3 13362.35 Q 359973.05 12901.6 359973.05 12264.15 Q 359973.05 11599.15 360234.3 11081.4 Q 360495.55 10563.65 360970.55 10212.15 Q 361445.55 9860.65 362110.55 9680.15 Q 362775.55 9499.65 363592.55 9499.65 Q 364513.1 9499.65 365277.85 9699.15 Q 366042.6 9898.65 366726.6 10221.65 L 366127.15 11617.2 Q 365510.6 11342.65 364859.85 11138.4 Q 364209.1 10934.15 363535.55 10934.15 Q 362566.55 10934.15 362101.05 11252.4 Q 361635.55 11570.65 361635.55 12159.65 Q 361635.55 12491.2 361744.8 12738.2 Q 361854.05 12985.2 362120.05 13203.7 Q 362386.05 13422.2 362832.55 13645.45 Q 363279.05 13868.7 363944.05 14143.25 Q 364628.05 14428.25 365164.8 14713.25 Q 365701.55 14998.25 366081.55 15354.5 Q 366461.55 15710.75 366661.05 16166.75 Q 366860.55 16622.75 366860.55 17258.3 L 366858.65 17261.15 Z M 382892.45 14886.15 Q 382892.45 16188.6 382574.2 17200.35 Q 382255.95 18212.1 381662.2 18900.85 Q 381068.45 19589.6 380222.95 19950.6 Q 379377.45 20311.6 378322 20311.6 Q 377344.45 20311.6 376517.95 19950.6 Q 375691.45 19589.6 375088.2 18900.85 Q 374484.95 18212.1 374147.7 17200.35 Q 373810.45 16188.6 373810.45 14886.15 Q 373810.45 13594.15 374128.7 12591.9 Q 374446.95 11589.65 375035.95 10900.9 Q 375624.95 10212.15 376475.2 9855.9 Q 377325.45 9499.65 378379 9499.65 Q 379358.45 9499.65 380184.95 9855.9 Q 381011.45 10212.15 381614.7 10900.9 Q 382217.95 11589.65 382555.2 12591.9 Q 382892.45 13594.15 382892.45 14886.15  Z M 375596.45 14886.15 Q 375596.45 16872.6 376247.2 17874.85 Q 376897.95 18877.1 378360.95 18877.1 Q 379823.95 18877.1 380465.2 17874.85 Q 381106.45 16872.6 381106.45 14886.15 Q 381106.45 12901.6 380455.7 11918.35 Q 379804.95 10935.1 378341.95 10935.1 Q 376878.95 10935.1 376237.7 11918.35 Q 375596.45 12901.6 375596.45 14886.15  Z M 392170 20121.6 L 392170 13404.15 Q 392170 12169.15 391671.25 11551.65 Q 391172.5 10934.15 390108.5 10934.15 Q 389338.05 10934.15 388815.55 11181.15 Q 388293.05 11428.15 387974.8 11912.65 Q 387656.55 12397.15 387518.8 13100.15 Q 387381.05 13803.15 387381.05 14715.15 L 387381.05 20121.6 L 385652.05 20121.6 L 385652.05 9690.6 L 387058.05 9690.6 L 387305.05 11096.6 L 387400.05 11096.6 Q 387638.5 10687.15 387966.25 10387.9 Q 388294 10088.65 388683.5 9889.15 Q 389073 9689.65 389510 9594.65 Q 389947 9499.65 390403 9499.65 Q 392142.45 9499.65 393021.2 10406.9 Q 393899.95 11314.15 393899.95 13309.15 L 393899.95 20121.6 L 392170.95 20121.6 L 392170 20121.6 Z M 410591.65 14886.15 Q 410591.65 16188.6 410273.4 17200.35 Q 409955.15 18212.1 409361.4 18900.85 Q 408767.65 19589.6 407922.15 19950.6 Q 407076.65 20311.6 406021.2 20311.6 Q 405043.65 20311.6 404217.15 19950.6 Q 403390.65 19589.6 402787.4 18900.85 Q 402184.15 18212.1 401846.9 17200.35 Q 401509.65 16188.6 401509.65 14886.15 Q 401509.65 13594.15 401827.9 12591.9 Q 402146.15 11589.65 402735.15 10900.9 Q 403324.15 10212.15 404174.4 9855.9 Q 405024.65 9499.65 406078.2 9499.65 Q 407057.65 9499.65 407884.15 9855.9 Q 408710.65 10212.15 409313.9 10900.9 Q 409917.15 11589.65 410254.4 12591.9 Q 410591.65 13594.15 410591.65 14886.15  Z M 403295.65 14886.15 Q 403295.65 16872.6 403946.4 17874.85 Q 404597.15 18877.1 406060.15 18877.1 Q 407523.15 18877.1 408164.4 17874.85 Q 408805.65 16872.6 408805.65 14886.15 Q 408805.65 12901.6 408154.9 11918.35 Q 407504.15 10935.1 406041.15 10935.1 Q 404578.15 10935.1 403936.9 11918.35 Q 403295.65 12901.6 403295.65 14886.15  Z M 420107.65 20121.6 L 419850.2 18724.15 L 419755.2 18724.15 Q 419518.65 19133.6 419190.9 19432.85 Q 418863.15 19732.1 418473.65 19926.85 Q 418084.15 20121.6 417647.15 20216.6 Q 417210.15 20311.6 416754.15 20311.6 Q 415890.6 20311.6 415235.1 20093.1 Q 414579.6 19874.6 414142.6 19409.1 Q 413705.6 18943.6 413482.35 18221.6 Q 413259.1 17499.6 413259.1 16501.15 L 413259.1 9690.6 L 414988.1 9690.6 L 414988.1 16406.15 Q 414988.1 17641.15 415491.6 18258.65 Q 415995.1 18876.15 417050.55 18876.15 Q 417819.1 18876.15 418341.6 18629.15 Q 418864.1 18382.15 419182.35 17902.4 Q 419500.6 17422.65 419638.35 16719.65 Q 419776.1 16016.65 419776.1 15104.65 L 419776.1 9689.65 L 421505.1 9689.65 L 421505.1 20120.65 L 420109.55 20120.65 L 420107.65 20121.6 Z M 429283.25 9500.6 Q 429557.8 9500.6 429899.8 9524.35 Q 430241.8 9548.1 430488.8 9596.55 L 430260.8 11192.55 Q 429994.8 11144.1 429714.55 11110.85 Q 429434.3 11077.6 429187.3 11077.6 Q 428587.85 11077.6 428093.85 11319.85 Q 427599.85 11562.1 427243.6 12013.35 Q 426887.35 12464.6 426692.6 13096.35 Q 426497.85 13728.1 426497.85 14498.55 L 426497.85 20122.55 L 424768.85 20122.55 L 424768.85 9691.55 L 426174.85 9691.55 L 426383.85 11600.1 L 426459.85 11600.1 Q 426698.3 11192.55 426969.05 10812.55 Q 427239.8 10432.55 427577.05 10142.8 Q 427914.3 9853.05 428332.3 9677.3 Q 428750.3 9501.55 429282.3 9501.55 L 429283.25 9500.6 Z M 445017.8 20121.6 L 437808.25 20121.6 L 437808.25 6232.6 L 445017.8 6232.6 L 445017.8 7790.6 L 439575.25 7790.6 L 439575.25 12084.6 L 444656.8 12084.6 L 444656.8 13623.6 L 439575.25 13623.6 L 439575.25 18563.6 L 445017.8 18563.6 L 445017.8 20121.6 Z M 450084 14772.15 L 446731.45 9690.6 L 448697 9690.6 L 451072 13585.6 L 453447 9690.6 L 455414.45 9690.6 L 452041 14772.15 L 455585.45 20121.6 L 453618 20121.6 L 451072 15979.6 L 448507 20121.6 L 446541.45 20121.6 L 450084 14772.15 Z M 462301 20311.6 Q 461741.45 20311.6 461285.45 20188.1 Q 460829.45 20064.6 460463.7 19860.35 Q 460097.95 19656.1 459817.7 19380.6 Q 459537.45 19105.1 459318 18801.1 L 459204 18801.1 Q 459233.45 19124.1 459261 19419.55 Q 459280 19666.55 459299 19927.8 Q 459318 20189.05 459318 20341.05 L 459318 24795.6 L 457589 24795.6 L 457589 9690.6 L 458995 9690.6 L 459242 11096.6 L 459318 11096.6 Q 459537.45 10763.15 459812.95 10473.4 Q 460088.45 10183.65 460454.2 9969.9 Q 460819.95 9756.15 461275.95 9627.9 Q 461731.95 9499.65 462301.95 9499.65 Q 463194.95 9499.65 463926.45 9841.65 Q 464657.95 10183.65 465175.7 10862.9 Q 465693.45 11542.15 465978.45 12549.15 Q 466263.45 13556.15 466263.45 14886.15 Q 466263.45 16226.6 465978.45 17238.35 Q 465693.45 18250.1 465175.7 18934.1 Q 464657.95 19618.1 463926.45 19964.85 Q 463194.95 20311.6 462301.95 20311.6 L 462301 20311.6 Z M 461969.45 10934.15 Q 461247.45 10934.15 460748.7 11152.65 Q 460249.95 11371.15 459941.2 11817.65 Q 459632.45 12264.15 459485.2 12929.15 Q 459337.95 13594.15 459318.95 14497.6 L 459318.95 14886.15 Q 459318.95 15846.6 459447.2 16592.35 Q 459575.45 17338.1 459884.2 17846.35 Q 460192.95 18354.6 460705.95 18615.85 Q 461218.95 18877.1 461989.4 18877.1 Q 463270.95 18877.1 463874.2 17841.6 Q 464477.45 16806.1 464477.45 14868.1 Q 464477.45 12892.1 463874.2 11913.6 Q 463270.95 10935.1 461970.4 10935.1 L 461969.45 10934.15 Z M 470735.6 20121.6 L 469006.6 20121.6 L 469006.6 5339.6 L 470735.6 5339.6 L 470735.6 20121.6 Z M 482527.65 14886.15 Q 482527.65 16188.6 482209.4 17200.35 Q 481891.15 18212.1 481297.4 18900.85 Q 480703.65 19589.6 479858.15 19950.6 Q 479012.65 20311.6 477957.2 20311.6 Q 476979.65 20311.6 476153.15 19950.6 Q 475326.65 19589.6 474723.4 18900.85 Q 474120.15 18212.1 473782.9 17200.35 Q 473445.65 16188.6 473445.65 14886.15 Q 473445.65 13594.15 473763.9 12591.9 Q 474082.15 11589.65 474671.15 10900.9 Q 475260.15 10212.15 476110.4 9855.9 Q 476960.65 9499.65 478014.2 9499.65 Q 478993.65 9499.65 479820.15 9855.9 Q 480646.65 10212.15 481249.9 10900.9 Q 481853.15 11589.65 482190.4 12591.9 Q 482527.65 13594.15 482527.65 14886.15  Z M 475231.65 14886.15 Q 475231.65 16872.6 475882.4 17874.85 Q 476533.15 18877.1 477996.15 18877.1 Q 479459.15 18877.1 480100.4 17874.85 Q 480741.65 16872.6 480741.65 14886.15 Q 480741.65 12901.6 480090.9 11918.35 Q 479440.15 10935.1 477977.15 10935.1 Q 476514.15 10935.1 475872.9 11918.35 Q 475231.65 12901.6 475231.65 14886.15  Z M 489801.65 9500.6 Q 490076.2 9500.6 490418.2 9524.35 Q 490760.2 9548.1 491007.2 9596.55 L 490779.2 11192.55 Q 490513.2 11144.1 490232.95 11110.85 Q 489952.7 11077.6 489705.7 11077.6 Q 489106.25 11077.6 488612.25 11319.85 Q 488118.25 11562.1 487762 12013.35 Q 487405.75 12464.6 487211 13096.35 Q 487016.25 13728.1 487016.25 14498.55 L 487016.25 20122.55 L 485287.25 20122.55 L 485287.25 9691.55 L 486693.25 9691.55 L 486902.25 11600.1 L 486978.25 11600.1 Q 487216.7 11192.55 487487.45 10812.55 Q 487758.2 10432.55 488095.45 10142.8 Q 488432.7 9853.05 488850.7 9677.3 Q 489268.7 9501.55 489800.7 9501.55 L 489801.65 9500.6 Z M 497193.6 20311.6 Q 496148.6 20311.6 495284.1 19960.1 Q 494419.6 19608.6 493797.35 18934.1 Q 493175.1 18259.6 492833.1 17262.1 Q 492491.1 16264.6 492491.1 14981.15 Q 492491.1 13689.15 492804.6 12672.65 Q 493118.1 11656.15 493688.1 10948.4 Q 494258.1 10240.65 495051.35 9870.15 Q 495844.6 9499.65 496805.05 9499.65 Q 497744.6 9499.65 498495.1 9836.9 Q 499245.6 10174.15 499768.1 10786.9 Q 500290.6 11399.65 500570.85 12259.4 Q 500851.1 13119.15 500851.1 14164.15 L 500851.1 15238.6 L 494277.1 15238.6 Q 494323.65 17071.15 495050.4 17935.65 Q 495777.15 18800.15 497210.7 18800.15 Q 497696.15 18800.15 498109.4 18752.65 Q 498522.65 18705.15 498907.4 18614.9 Q 499292.15 18524.65 499653.15 18386.9 Q 500014.15 18249.15 500383.7 18078.15 L 500383.7 19617.15 Q 500003.7 19798.6 499637.95 19931.6 Q 499272.2 20064.6 498887.45 20150.1 Q 498502.7 20235.6 498089.45 20273.6 Q 497676.2 20311.6 497190.75 20311.6 L 497193.6 20311.6 Z M 496767.05 10934.15 Q 495684.05 10934.15 495052.3 11675.15 Q 494420.55 12416.15 494317 13832.6 L 498991 13832.6 Q 498991 13186.6 498862.75 12649.85 Q 498734.5 12113.1 498463.75 11733.1 Q 498193 11353.1 497775 11144.1 Q 497357 10935.1 496768 10935.1 L 496767.05 10934.15 Z M 9943.45 39942.75 Q 9943.45 40702.75 9667.95 41272.75 Q 9392.45 41842.75 8874.7 42227.5 Q 8356.95 42612.25 7625.45 42802.25 Q 6893.95 42992.25 5981.95 42992.25 Q 4947.4 42992.25 4206.4 42826 Q 3465.4 42659.75 2903.95 42336.75 L 2903.95 40759.75 Q 3199.4 40911.75 3560.4 41059 Q 3921.4 41206.25 4320.4 41320.25 Q 4719.4 41434.25 5142.15 41505.5 Q 5564.9 41576.75 5982.9 41576.75 Q 6601.35 41576.75 7033.6 41472.25 Q 7465.85 41367.75 7736.6 41173 Q 8007.35 40978.25 8130.85 40698 Q 8254.35 40417.75 8254.35 40075.75 Q 8254.35 39782.2 8159.35 39544.7 Q 8064.35 39307.2 7812.6 39074.45 Q 7560.85 38841.7 7123.85 38604.2 Q 6686.85 38366.7 6002.85 38073.15 Q 5318.85 37777.7 4772.6 37492.7 Q 4226.35 37207.7 3846.35 36856.2 Q 3466.35 36504.7 3262.1 36043.95 Q 3057.85 35583.2 3057.85 34945.75 Q 3057.85 34280.75 3319.1 33763 Q 3580.35 33245.25 4055.35 32893.75 Q 4530.35 32542.25 5195.35 32361.75 Q 5860.35 32181.25 6677.35 32181.25 Q 7597.9 32181.25 8362.65 32380.75 Q 9127.4 32580.25 9811.4 32903.25 L 9211.95 34298.8 Q 8595.4 34024.25 7944.65 33820 Q 7293.9 33615.75 6620.35 33615.75 Q 5651.35 33615.75 5185.85 33934 Q 4720.35 34252.25 4720.35 34841.25 Q 4720.35 35172.8 4829.6 35419.8 Q 4938.85 35666.8 5204.85 35885.3 Q 5470.85 36103.8 5917.35 36327.05 Q 6363.85 36550.3 7028.85 36824.85 Q 7712.85 37109.85 8249.6 37394.85 Q 8786.35 37679.85 9166.35 38036.1 Q 9546.35 38392.35 9745.85 38848.35 Q 9945.35 39304.35 9945.35 39939.9 L 9943.45 39942.75 Z M 16579.2 42993.2 Q 15534.2 42993.2 14669.7 42641.7 Q 13805.2 42290.2 13182.95 41615.7 Q 12560.7 40941.2 12218.7 39943.7 Q 11876.7 38946.2 11876.7 37662.75 Q 11876.7 36370.75 12190.2 35354.25 Q 12503.7 34337.75 13073.7 33630 Q 13643.7 32922.25 14436.95 32551.75 Q 15230.2 32181.25 16190.65 32181.25 Q 17130.2 32181.25 17880.7 32518.5 Q 18631.2 32855.75 19153.7 33468.5 Q 19676.2 34081.25 19956.45 34941 Q 20236.7 35800.75 20236.7 36845.75 L 20236.7 37920.2 L 13662.7 37920.2 Q 13709.25 39752.75 14436 40617.25 Q 15162.75 41481.75 16596.3 41481.75 Q 17081.75 41481.75 17495 41434.25 Q 17908.25 41386.75 18293 41296.5 Q 18677.75 41206.25 19038.75 41068.5 Q 19399.75 40930.75 19769.3 40759.75 L 19769.3 42298.75 Q 19389.3 42480.2 19023.55 42613.2 Q 18657.8 42746.2 18273.05 42831.7 Q 17888.3 42917.2 17475.05 42955.2 Q 17061.8 42993.2 16576.35 42993.2 L 16579.2 42993.2 Z M 16152.65 33615.75 Q 15069.65 33615.75 14437.9 34356.75 Q 13806.15 35097.75 13702.6 36514.2 L 18376.6 36514.2 Q 18376.6 35868.2 18248.35 35331.45 Q 18120.1 34794.7 17849.35 34414.7 Q 17578.6 34034.7 17160.6 33825.7 Q 16742.6 33616.7 16153.6 33616.7 L 16152.65 33615.75 Z M 26788.6 42993.2 Q 25830.05 42993.2 24994.05 42693.95 Q 24158.05 42394.7 23540.55 41743.95 Q 22923.05 41093.2 22571.55 40081.45 Q 22220.05 39069.7 22220.05 37644.7 Q 22220.05 36154.15 22581.05 35113.9 Q 22942.05 34073.65 23573.8 33422.9 Q 24205.55 32772.15 25051.05 32477.65 Q 25896.55 32183.15 26865.55 32183.15 Q 27606.55 32183.15 28314.3 32344.65 Q 29022.05 32506.15 29497.05 32742.7 L 28984.05 34205.7 Q 28764.6 34110.7 28498.6 34020.45 Q 28232.6 33930.2 27947.6 33858.95 Q 27662.6 33787.7 27387.1 33744.95 Q 27111.6 33702.2 26864.6 33702.2 Q 25374.05 33702.2 24690.05 34656.95 Q 24006.05 35611.7 24006.05 37625.7 Q 24006.05 39631.15 24694.8 40557.4 Q 25383.55 41483.65 26789.55 41483.65 Q 27560 41483.65 28182.25 41307.9 Q 28804.5 41132.15 29317.5 40893.7 L 29317.5 42432.7 Q 28804.5 42709.15 28220.25 42851.65 Q 27636 42994.15 26789.55 42994.15 L 26788.6 42993.2 Z M 34912.6 41576.75 Q 35083.6 41576.75 35297.35 41557.75 Q 35511.1 41538.75 35710.6 41510.25 Q 35910.1 41481.75 36076.35 41443.75 Q 36242.6 41405.75 36329.05 41378.2 L 36329.05 42689.2 Q 36204.6 42746.2 36014.6 42803.2 Q 35824.6 42860.2 35596.6 42902.95 Q 35368.6 42945.7 35121.6 42969.45 Q 34874.6 42993.2 34638.05 42993.2 Q 34049.05 42993.2 33545.55 42841.2 Q 33042.05 42689.2 32676.3 42318.7 Q 32310.55 41948.2 32101.55 41316.45 Q 31892.55 40684.7 31892.55 39726.15 L 31892.55 33673.7 L 30421 33673.7 L 30421 32905.15 L 31892.55 32164.15 L 32633.55 29979.15 L 33632 29979.15 L 33632 32373.15 L 36254 32373.15 L 36254 33673.7 L 33632 33673.7 L 33632 39726.15 Q 33632 40646.7 33931.25 41112.2 Q 34230.5 41577.7 34914.5 41577.7 L 34912.6 41576.75 Z M 40041.2 42803.2 L 38312.2 42803.2 L 38312.2 32372.2 L 40041.2 32372.2 L 40041.2 42803.2 Z M 38179.2 29549.75 Q 38179.2 28979.75 38468.95 28723.25 Q 38758.7 28466.75 39185.25 28466.75 Q 39394.25 28466.75 39579.5 28528.5 Q 39764.75 28590.25 39902.5 28723.25 Q 40040.25 28856.25 40121 29060.5 Q 40201.75 29264.75 40201.75 29549.75 Q 40201.75 30100.75 39902.5 30371.5 Q 39603.25 30642.25 39185.25 30642.25 Q 38758.7 30642.25 38468.95 30376.25 Q 38179.2 30110.25 38179.2 29548.8 L 38179.2 29549.75 Z M 51833.25 37567.75 Q 51833.25 38870.2 51515 39881.95 Q 51196.75 40893.7 50603 41582.45 Q 50009.25 42271.2 49163.75 42632.2 Q 48318.25 42993.2 47262.8 42993.2 Q 46285.25 42993.2 45458.75 42632.2 Q 44632.25 42271.2 44029 41582.45 Q 43425.75 40893.7 43088.5 39881.95 Q 42751.25 38870.2 42751.25 37567.75 Q 42751.25 36275.75 43069.5 35273.5 Q 43387.75 34271.25 43976.75 33582.5 Q 44565.75 32893.75 45416 32537.5 Q 46266.25 32181.25 47319.8 32181.25 Q 48299.25 32181.25 49125.75 32537.5 Q 49952.25 32893.75 50555.5 33582.5 Q 51158.75 34271.25 51496 35273.5 Q 51833.25 36275.75 51833.25 37567.75  Z M 44537.25 37567.75 Q 44537.25 39554.2 45188 40556.45 Q 45838.75 41558.7 47301.75 41558.7 Q 48764.75 41558.7 49406 40556.45 Q 50047.25 39554.2 50047.25 37567.75 Q 50047.25 35583.2 49396.5 34599.95 Q 48745.75 33616.7 47282.75 33616.7 Q 45819.75 33616.7 45178.5 34599.95 Q 44537.25 35583.2 44537.25 37567.75  Z M 61110.8 42803.2 L 61110.8 36085.75 Q 61110.8 34850.75 60612.05 34233.25 Q 60113.3 33615.75 59049.3 33615.75 Q 58278.85 33615.75 57756.35 33862.75 Q 57233.85 34109.75 56915.6 34594.25 Q 56597.35 35078.75 56459.6 35781.75 Q 56321.85 36484.75 56321.85 37396.75 L 56321.85 42803.2 L 54592.85 42803.2 L 54592.85 32372.2 L 55998.85 32372.2 L 56245.85 33778.2 L 56340.85 33778.2 Q 56579.3 33368.75 56907.05 33069.5 Q 57234.8 32770.25 57624.3 32570.75 Q 58013.8 32371.25 58450.8 32276.25 Q 58887.8 32181.25 59343.8 32181.25 Q 61083.25 32181.25 61962 33088.5 Q 62840.75 33995.75 62840.75 35990.75 L 62840.75 42803.2 L 61111.75 42803.2 L 61110.8 42803.2 Z M 67797.4 40542.2 L 67940.85 40759.75 Q 67807.85 41272.75 67622.6 41852.25 Q 67437.35 42431.75 67214.1 43021.7 Q 66990.85 43611.65 66748.6 44195.9 Q 66506.35 44780.15 66269.8 45312.15 L 64958.8 45312.15 Q 65100.35 44733.6 65238.1 44106.6 Q 65375.85 43479.6 65504.1 42857.35 Q 65632.35 42235.1 65736.85 41641.35 Q 65841.35 41047.6 65917.35 40545.05 L 67798.35 40545.05 L 67797.4 40542.2 Z M 74867 47477.2 Q 74411 47477.2 74111.75 47410.7 Q 73812.5 47344.2 73594.95 47240.65 L 73594.95 45834.65 Q 73841.95 45929.65 74098.45 45981.9 Q 74354.95 46034.15 74688.4 46034.15 Q 74943.95 46034.15 75162.45 45962.9 Q 75380.95 45891.65 75547.2 45706.4 Q 75713.45 45521.15 75803.7 45212.4 Q 75893.95 44903.65 75893.95 44418.2 L 75893.95 32372.2 L 77622.95 32372.2 L 77622.95 44304.2 Q 77622.95 45036.65 77461.45 45620.9 Q 77299.95 46205.15 76957.95 46618.4 Q 76615.95 47031.65 76098.2 47254.9 Q 75580.45 47478.15 74867 47478.15 L 74867 47477.2 Z M 75760 29549.75 Q 75760 28979.75 76049.75 28723.25 Q 76339.5 28466.75 76766.05 28466.75 Q 76975.05 28466.75 77160.3 28528.5 Q 77345.55 28590.25 77483.3 28723.25 Q 77621.05 28856.25 77701.8 29060.5 Q 77782.55 29264.75 77782.55 29549.75 Q 77782.55 30100.75 77483.3 30371.5 Q 77184.05 30642.25 76766.05 30642.25 Q 76339.5 30642.25 76049.75 30376.25 Q 75760 30110.25 75760 29548.8 L 75760 29549.75 Z M 87666.05 42803.2 L 87408.6 41405.75 L 87313.6 41405.75 Q 87077.05 41815.2 86749.3 42114.45 Q 86421.55 42413.7 86032.05 42608.45 Q 85642.55 42803.2 85205.55 42898.2 Q 84768.55 42993.2 84312.55 42993.2 Q 83449 42993.2 82793.5 42774.7 Q 82138 42556.2 81701 42090.7 Q 81264 41625.2 81040.75 40903.2 Q 80817.5 40181.2 80817.5 39182.75 L 80817.5 32372.2 L 82546.5 32372.2 L 82546.5 39087.75 Q 82546.5 40322.75 83050 40940.25 Q 83553.5 41557.75 84608.95 41557.75 Q 85377.5 41557.75 85900 41310.75 Q 86422.5 41063.75 86740.75 40584 Q 87059 40104.25 87196.75 39401.25 Q 87334.5 38698.25 87334.5 37786.25 L 87334.5 32371.25 L 89063.5 32371.25 L 89063.5 42802.25 L 87667.95 42802.25 L 87666.05 42803.2 Z M 98570.65 39942.75 Q 98570.65 40702.75 98295.15 41272.75 Q 98019.65 41842.75 97501.9 42227.5 Q 96984.15 42612.25 96252.65 42802.25 Q 95521.15 42992.25 94609.15 42992.25 Q 93574.6 42992.25 92833.6 42826 Q 92092.6 42659.75 91531.15 42336.75 L 91531.15 40759.75 Q 91826.6 40911.75 92187.6 41059 Q 92548.6 41206.25 92947.6 41320.25 Q 93346.6 41434.25 93769.35 41505.5 Q 94192.1 41576.75 94610.1 41576.75 Q 95228.55 41576.75 95660.8 41472.25 Q 96093.05 41367.75 96363.8 41173 Q 96634.55 40978.25 96758.05 40698 Q 96881.55 40417.75 96881.55 40075.75 Q 96881.55 39782.2 96786.55 39544.7 Q 96691.55 39307.2 96439.8 39074.45 Q 96188.05 38841.7 95751.05 38604.2 Q 95314.05 38366.7 94630.05 38073.15 Q 93946.05 37777.7 93399.8 37492.7 Q 92853.55 37207.7 92473.55 36856.2 Q 92093.55 36504.7 91889.3 36043.95 Q 91685.05 35583.2 91685.05 34945.75 Q 91685.05 34280.75 91946.3 33763 Q 92207.55 33245.25 92682.55 32893.75 Q 93157.55 32542.25 93822.55 32361.75 Q 94487.55 32181.25 95304.55 32181.25 Q 96225.1 32181.25 96989.85 32380.75 Q 97754.6 32580.25 98438.6 32903.25 L 97839.15 34298.8 Q 97222.6 34024.25 96571.85 33820 Q 95921.1 33615.75 95247.55 33615.75 Q 94278.55 33615.75 93813.05 33934 Q 93347.55 34252.25 93347.55 34841.25 Q 93347.55 35172.8 93456.8 35419.8 Q 93566.05 35666.8 93832.05 35885.3 Q 94098.05 36103.8 94544.55 36327.05 Q 94991.05 36550.3 95656.05 36824.85 Q 96340.05 37109.85 96876.8 37394.85 Q 97413.55 37679.85 97793.55 38036.1 Q 98173.55 38392.35 98373.05 38848.35 Q 98572.55 39304.35 98572.55 39939.9 L 98570.65 39942.75 Z M 104237.4 41576.75 Q 104408.4 41576.75 104622.15 41557.75 Q 104835.9 41538.75 105035.4 41510.25 Q 105234.9 41481.75 105401.15 41443.75 Q 105567.4 41405.75 105653.85 41378.2 L 105653.85 42689.2 Q 105529.4 42746.2 105339.4 42803.2 Q 105149.4 42860.2 104921.4 42902.95 Q 104693.4 42945.7 104446.4 42969.45 Q 104199.4 42993.2 103962.85 42993.2 Q 103373.85 42993.2 102870.35 42841.2 Q 102366.85 42689.2 102001.1 42318.7 Q 101635.35 41948.2 101426.35 41316.45 Q 101217.35 40684.7 101217.35 39726.15 L 101217.35 33673.7 L 99745.8 33673.7 L 99745.8 32905.15 L 101217.35 32164.15 L 101958.35 29979.15 L 102956.8 29979.15 L 102956.8 32373.15 L 105578.8 32373.15 L 105578.8 33673.7 L 102956.8 33673.7 L 102956.8 39726.15 Q 102956.8 40646.7 103256.05 41112.2 Q 103555.3 41577.7 104239.3 41577.7 L 104237.4 41576.75 Z M 114250.6 37415.75 L 115534.05 35800.75 L 118316.6 32372.2 L 120322.05 32372.2 L 116511.6 36883.75 L 120577.6 42803.2 L 118593.05 42803.2 L 115401.05 38015.2 L 114364.6 38794.2 L 114364.6 42803.2 L 112654.6 42803.2 L 112654.6 28021.2 L 114364.6 28021.2 L 114364.6 34804.2 L 114212.6 37415.75 L 114250.6 37415.75 Z M 126403.2 42993.2 Q 125358.2 42993.2 124493.7 42641.7 Q 123629.2 42290.2 123006.95 41615.7 Q 122384.7 40941.2 122042.7 39943.7 Q 121700.7 38946.2 121700.7 37662.75 Q 121700.7 36370.75 122014.2 35354.25 Q 122327.7 34337.75 122897.7 33630 Q 123467.7 32922.25 124260.95 32551.75 Q 125054.2 32181.25 126014.65 32181.25 Q 126954.2 32181.25 127704.7 32518.5 Q 128455.2 32855.75 128977.7 33468.5 Q 129500.2 34081.25 129780.45 34941 Q 130060.7 35800.75 130060.7 36845.75 L 130060.7 37920.2 L 123486.7 37920.2 Q 123533.25 39752.75 124260 40617.25 Q 124986.75 41481.75 126420.3 41481.75 Q 126905.75 41481.75 127319 41434.25 Q 127732.25 41386.75 128117 41296.5 Q 128501.75 41206.25 128862.75 41068.5 Q 129223.75 40930.75 129593.3 40759.75 L 129593.3 42298.75 Q 129213.3 42480.2 128847.55 42613.2 Q 128481.8 42746.2 128097.05 42831.7 Q 127712.3 42917.2 127299.05 42955.2 Q 126885.8 42993.2 126400.35 42993.2 L 126403.2 42993.2 Z M 125976.65 33615.75 Q 124893.65 33615.75 124261.9 34356.75 Q 123630.15 35097.75 123526.6 36514.2 L 128200.6 36514.2 Q 128200.6 35868.2 128072.35 35331.45 Q 127944.1 34794.7 127673.35 34414.7 Q 127402.6 34034.7 126984.6 33825.7 Q 126566.6 33616.7 125977.6 33616.7 L 125976.65 33615.75 Z M 136745.6 42993.2 Q 135700.6 42993.2 134836.1 42641.7 Q 133971.6 42290.2 133349.35 41615.7 Q 132727.1 40941.2 132385.1 39943.7 Q 132043.1 38946.2 132043.1 37662.75 Q 132043.1 36370.75 132356.6 35354.25 Q 132670.1 34337.75 133240.1 33630 Q 133810.1 32922.25 134603.35 32551.75 Q 135396.6 32181.25 136357.05 32181.25 Q 137296.6 32181.25 138047.1 32518.5 Q 138797.6 32855.75 139320.1 33468.5 Q 139842.6 34081.25 140122.85 34941 Q 140403.1 35800.75 140403.1 36845.75 L 140403.1 37920.2 L 133829.1 37920.2 Q 133875.65 39752.75 134602.4 40617.25 Q 135329.15 41481.75 136762.7 41481.75 Q 137248.15 41481.75 137661.4 41434.25 Q 138074.65 41386.75 138459.4 41296.5 Q 138844.15 41206.25 139205.15 41068.5 Q 139566.15 40930.75 139935.7 40759.75 L 139935.7 42298.75 Q 139555.7 42480.2 139189.95 42613.2 Q 138824.2 42746.2 138439.45 42831.7 Q 138054.7 42917.2 137641.45 42955.2 Q 137228.2 42993.2 136742.75 42993.2 L 136745.6 42993.2 Z M 136319.05 33615.75 Q 135236.05 33615.75 134604.3 34356.75 Q 133972.55 35097.75 133869 36514.2 L 138543 36514.2 Q 138543 35868.2 138414.75 35331.45 Q 138286.5 34794.7 138015.75 34414.7 Q 137745 34034.7 137327 33825.7 Q 136909 33616.7 136320 33616.7 L 136319.05 33615.75 Z M 147677 42993.2 Q 147117.45 42993.2 146661.45 42869.7 Q 146205.45 42746.2 145839.7 42541.95 Q 145473.95 42337.7 145193.7 42062.2 Q 144913.45 41786.7 144694 41482.7 L 144580 41482.7 Q 144609.45 41805.7 144637 42101.15 Q 144656 42348.15 144675 42609.4 Q 144694 42870.65 144694 43022.65 L 144694 47477.2 L 142965 47477.2 L 142965 32372.2 L 144371 32372.2 L 144618 33778.2 L 144694 33778.2 Q 144913.45 33444.75 145188.95 33155 Q 145464.45 32865.25 145830.2 32651.5 Q 146195.95 32437.75 146651.95 32309.5 Q 147107.95 32181.25 147677.95 32181.25 Q 148570.95 32181.25 149302.45 32523.25 Q 150033.95 32865.25 150551.7 33544.5 Q 151069.45 34223.75 151354.45 35230.75 Q 151639.45 36237.75 151639.45 37567.75 Q 151639.45 38908.2 151354.45 39919.95 Q 151069.45 40931.7 150551.7 41615.7 Q 150033.95 42299.7 149302.45 42646.45 Q 148570.95 42993.2 147677.95 42993.2 L 147677 42993.2 Z M 147345.45 33615.75 Q 146623.45 33615.75 146124.7 33834.25 Q 145625.95 34052.75 145317.2 34499.25 Q 145008.45 34945.75 144861.2 35610.75 Q 144713.95 36275.75 144694.95 37179.2 L 144694.95 37567.75 Q 144694.95 38528.2 144823.2 39273.95 Q 144951.45 40019.7 145260.2 40527.95 Q 145568.95 41036.2 146081.95 41297.45 Q 146594.95 41558.7 147365.4 41558.7 Q 148646.95 41558.7 149250.2 40523.2 Q 149853.45 39487.7 149853.45 37549.7 Q 149853.45 35573.7 149250.2 34595.2 Q 148646.95 33616.7 147346.4 33616.7 L 147345.45 33615.75 Z M 162554.2 41576.75 Q 162725.2 41576.75 162938.95 41557.75 Q 163152.7 41538.75 163352.2 41510.25 Q 163551.7 41481.75 163717.95 41443.75 Q 163884.2 41405.75 163970.65 41378.2 L 163970.65 42689.2 Q 163846.2 42746.2 163656.2 42803.2 Q 163466.2 42860.2 163238.2 42902.95 Q 163010.2 42945.7 162763.2 42969.45 Q 162516.2 42993.2 162279.65 42993.2 Q 161690.65 42993.2 161187.15 42841.2 Q 160683.65 42689.2 160317.9 42318.7 Q 159952.15 41948.2 159743.15 41316.45 Q 159534.15 40684.7 159534.15 39726.15 L 159534.15 33673.7 L 158062.6 33673.7 L 158062.6 32905.15 L 159534.15 32164.15 L 160275.15 29979.15 L 161273.6 29979.15 L 161273.6 32373.15 L 163895.6 32373.15 L 163895.6 33673.7 L 161273.6 33673.7 L 161273.6 39726.15 Q 161273.6 40646.7 161572.85 41112.2 Q 161872.1 41577.7 162556.1 41577.7 L 162554.2 41576.75 Z M 172470.8 42803.2 L 172470.8 36085.75 Q 172470.8 34850.75 171972.05 34233.25 Q 171473.3 33615.75 170409.3 33615.75 Q 169638.85 33615.75 169116.35 33862.75 Q 168593.85 34109.75 168275.6 34594.25 Q 167957.35 35078.75 167819.6 35781.75 Q 167681.85 36484.75 167681.85 37396.75 L 167681.85 42803.2 L 165952.85 42803.2 L 165952.85 28021.2 L 167681.85 28021.2 L 167681.85 32410.2 L 167605.85 33778.2 L 167700.85 33778.2 Q 167939.3 33368.75 168267.05 33069.5 Q 168594.8 32770.25 168984.3 32570.75 Q 169373.8 32371.25 169810.8 32276.25 Q 170247.8 32181.25 170703.8 32181.25 Q 172443.25 32181.25 173322 33088.5 Q 174200.75 33995.75 174200.75 35990.75 L 174200.75 42803.2 L 172471.75 42803.2 L 172470.8 42803.2 Z M 181494.4 42993.2 Q 180449.4 42993.2 179584.9 42641.7 Q 178720.4 42290.2 178098.15 41615.7 Q 177475.9 40941.2 177133.9 39943.7 Q 176791.9 38946.2 176791.9 37662.75 Q 176791.9 36370.75 177105.4 35354.25 Q 177418.9 34337.75 177988.9 33630 Q 178558.9 32922.25 179352.15 32551.75 Q 180145.4 32181.25 181105.85 32181.25 Q 182045.4 32181.25 182795.9 32518.5 Q 183546.4 32855.75 184068.9 33468.5 Q 184591.4 34081.25 184871.65 34941 Q 185151.9 35800.75 185151.9 36845.75 L 185151.9 37920.2 L 178577.9 37920.2 Q 178624.45 39752.75 179351.2 40617.25 Q 180077.95 41481.75 181511.5 41481.75 Q 181996.95 41481.75 182410.2 41434.25 Q 182823.45 41386.75 183208.2 41296.5 Q 183592.95 41206.25 183953.95 41068.5 Q 184314.95 40930.75 184684.5 40759.75 L 184684.5 42298.75 Q 184304.5 42480.2 183938.75 42613.2 Q 183573 42746.2 183188.25 42831.7 Q 182803.5 42917.2 182390.25 42955.2 Q 181977 42993.2 181491.55 42993.2 L 181494.4 42993.2 Z M 181067.85 33615.75 Q 179984.85 33615.75 179353.1 34356.75 Q 178721.35 35097.75 178617.8 36514.2 L 183291.8 36514.2 Q 183291.8 35868.2 183163.55 35331.45 Q 183035.3 34794.7 182764.55 34414.7 Q 182493.8 34034.7 182075.8 33825.7 Q 181657.8 33616.7 181068.8 33616.7 L 181067.85 33615.75 Z M 200207.25 42803.2 L 200207.25 36085.75 Q 200207.25 34850.75 199732.25 34233.25 Q 199257.25 33615.75 198258.8 33615.75 Q 197566.25 33615.75 197081.75 33839 Q 196597.25 34062.25 196288.5 34494.5 Q 195979.75 34926.75 195837.25 35568 Q 195694.75 36209.25 195694.75 37045.25 L 195694.75 42802.25 L 193957.2 42802.25 L 193957.2 36084.8 Q 193957.2 34849.8 193486.95 34232.3 Q 193016.7 33614.8 192020.15 33614.8 Q 191287.7 33614.8 190793.7 33861.8 Q 190299.7 34108.8 190000.45 34593.3 Q 189701.2 35077.8 189572.95 35780.8 Q 189444.7 36483.8 189444.7 37395.8 L 189444.7 42802.25 L 187715.7 42802.25 L 187715.7 32371.25 L 189121.7 32371.25 L 189368.7 33777.25 L 189463.7 33777.25 Q 189691.7 33367.8 190005.2 33068.55 Q 190318.7 32769.3 190693.95 32569.8 Q 191069.2 32370.3 191491.95 32275.3 Q 191914.7 32180.3 192351.7 32180.3 Q 193491.7 32180.3 194246.95 32598.3 Q 195002.2 33016.3 195363.2 33909.3 L 195439.2 33909.3 Q 195686.2 33461.85 196032.95 33138.85 Q 196379.7 32815.85 196792.95 32602.1 Q 197206.2 32388.35 197662.2 32283.85 Q 198118.2 32179.35 198593.2 32179.35 Q 200254.75 32179.35 201095.5 33086.6 Q 201936.25 33993.85 201936.25 35988.85 L 201936.25 42801.3 L 200207.25 42801.3 L 200207.25 42803.2 Z M 214851.4 42993.2 Q 214291.85 42993.2 213835.85 42869.7 Q 213379.85 42746.2 213014.1 42541.95 Q 212648.35 42337.7 212368.1 42062.2 Q 212087.85 41786.7 211868.4 41482.7 L 211754.4 41482.7 Q 211783.85 41805.7 211811.4 42101.15 Q 211830.4 42348.15 211849.4 42609.4 Q 211868.4 42870.65 211868.4 43022.65 L 211868.4 47477.2 L 210139.4 47477.2 L 210139.4 32372.2 L 211545.4 32372.2 L 211792.4 33778.2 L 211868.4 33778.2 Q 212087.85 33444.75 212363.35 33155 Q 212638.85 32865.25 213004.6 32651.5 Q 213370.35 32437.75 213826.35 32309.5 Q 214282.35 32181.25 214852.35 32181.25 Q 215745.35 32181.25 216476.85 32523.25 Q 217208.35 32865.25 217726.1 33544.5 Q 218243.85 34223.75 218528.85 35230.75 Q 218813.85 36237.75 218813.85 37567.75 Q 218813.85 38908.2 218528.85 39919.95 Q 218243.85 40931.7 217726.1 41615.7 Q 217208.35 42299.7 216476.85 42646.45 Q 215745.35 42993.2 214852.35 42993.2 L 214851.4 42993.2 Z M 214519.85 33615.75 Q 213797.85 33615.75 213299.1 33834.25 Q 212800.35 34052.75 212491.6 34499.25 Q 212182.85 34945.75 212035.6 35610.75 Q 211888.35 36275.75 211869.35 37179.2 L 211869.35 37567.75 Q 211869.35 38528.2 211997.6 39273.95 Q 212125.85 40019.7 212434.6 40527.95 Q 212743.35 41036.2 213256.35 41297.45 Q 213769.35 41558.7 214539.8 41558.7 Q 215821.35 41558.7 216424.6 40523.2 Q 217027.85 39487.7 217027.85 37549.7 Q 217027.85 35573.7 216424.6 34595.2 Q 215821.35 33616.7 214520.8 33616.7 L 214519.85 33615.75 Z M 226070.45 32182.2 Q 226345 32182.2 226687 32205.95 Q 227029 32229.7 227276 32278.15 L 227048 33874.15 Q 226782 33825.7 226501.75 33792.45 Q 226221.5 33759.2 225974.5 33759.2 Q 225375.05 33759.2 224881.05 34001.45 Q 224387.05 34243.7 224030.8 34694.95 Q 223674.55 35146.2 223479.8 35777.95 Q 223285.05 36409.7 223285.05 37180.15 L 223285.05 42804.15 L 221556.05 42804.15 L 221556.05 32373.15 L 222962.05 32373.15 L 223171.05 34281.7 L 223247.05 34281.7 Q 223485.5 33874.15 223756.25 33494.15 Q 224027 33114.15 224364.25 32824.4 Q 224701.5 32534.65 225119.5 32358.9 Q 225537.5 32183.15 226069.5 32183.15 L 226070.45 32182.2 Z M 231068.4 42803.2 L 229339.4 42803.2 L 229339.4 32372.2 L 231068.4 32372.2 L 231068.4 42803.2 Z M 229206.4 29549.75 Q 229206.4 28979.75 229496.15 28723.25 Q 229785.9 28466.75 230212.45 28466.75 Q 230421.45 28466.75 230606.7 28528.5 Q 230791.95 28590.25 230929.7 28723.25 Q 231067.45 28856.25 231148.2 29060.5 Q 231228.95 29264.75 231228.95 29549.75 Q 231228.95 30100.75 230929.7 30371.5 Q 230630.45 30642.25 230212.45 30642.25 Q 229785.9 30642.25 229496.15 30376.25 Q 229206.4 30110.25 229206.4 29548.8 L 229206.4 29549.75 Z M 236267.45 42803.2 L 232704 32372.2 L 234490 32372.2 L 236381.45 38175.75 Q 236485 38490.2 236627.5 38984.2 Q 236770 39478.2 236912.5 39991.2 Q 237055 40504.2 237173.75 40960.2 Q 237292.5 41416.2 237330.5 41652.75 L 237396.05 41652.75 Q 237444.5 41416.2 237558.5 40960.2 Q 237672.5 40504.2 237815 39991.2 Q 237957.5 39478.2 238100 38984.2 Q 238242.5 38490.2 238346.05 38175.75 L 240237.5 32372.2 L 242023.5 32372.2 L 238460.05 42803.2 L 236266.5 42803.2 L 236267.45 42803.2 Z M 249556.85 42803.2 L 249204.4 41359.2 L 249128.4 41359.2 Q 248815.85 41785.75 248502.35 42094.5 Q 248188.85 42403.25 247818.35 42602.75 Q 247447.85 42802.25 246991.85 42897.25 Q 246535.85 42992.25 245936.4 42992.25 Q 245281.85 42992.25 244730.85 42807 Q 244179.85 42621.75 243776.1 42237 Q 243372.35 41852.25 243144.35 41268 Q 242916.35 40683.75 242916.35 39885.75 Q 242916.35 38327.75 244013.6 37491.75 Q 245110.85 36655.75 247352.85 36579.75 L 249100.85 36514.2 L 249100.85 35857.75 Q 249100.85 35222.2 248963.1 34794.7 Q 248825.35 34367.2 248564.1 34105.95 Q 248302.85 33844.7 247918.1 33730.7 Q 247533.35 33616.7 247039.35 33616.7 Q 246251.8 33616.7 245572.55 33844.7 Q 244893.3 34072.7 244266.3 34395.7 L 243658.3 33095.15 Q 244361.3 32715.15 245225.8 32449.15 Q 246090.3 32183.15 247040.3 32183.15 Q 248009.3 32183.15 248717.05 32377.9 Q 249424.8 32572.65 249885.55 32995.4 Q 250346.3 33418.15 250574.3 34073.65 Q 250802.3 34729.15 250802.3 35660.15 L 250802.3 42804.15 L 249558.75 42804.15 L 249556.85 42803.2 Z M 246383.85 41595.75 Q 246962.4 41595.75 247456.4 41415.25 Q 247950.4 41234.75 248311.4 40869 Q 248672.4 40503.25 248876.65 39947.5 Q 249080.9 39391.75 249080.9 38642.2 L 249080.9 37700.75 L 247721.45 37768.2 Q 246866.45 37806.2 246286.95 37958.2 Q 245707.45 38110.2 245360.7 38380.95 Q 245013.95 38651.7 244861.95 39036.45 Q 244709.95 39421.2 244709.95 39904.75 Q 244709.95 40778.75 245170.7 41187.25 Q 245631.45 41595.75 246382.9 41595.75 L 246383.85 41595.75 Z M 257120.6 41576.75 Q 257291.6 41576.75 257505.35 41557.75 Q 257719.1 41538.75 257918.6 41510.25 Q 258118.1 41481.75 258284.35 41443.75 Q 258450.6 41405.75 258537.05 41378.2 L 258537.05 42689.2 Q 258412.6 42746.2 258222.6 42803.2 Q 258032.6 42860.2 257804.6 42902.95 Q 257576.6 42945.7 257329.6 42969.45 Q 257082.6 42993.2 256846.05 42993.2 Q 256257.05 42993.2 255753.55 42841.2 Q 255250.05 42689.2 254884.3 42318.7 Q 254518.55 41948.2 254309.55 41316.45 Q 254100.55 40684.7 254100.55 39726.15 L 254100.55 33673.7 L 252629 33673.7 L 252629 32905.15 L 254100.55 32164.15 L 254841.55 29979.15 L 255840 29979.15 L 255840 32373.15 L 258462 32373.15 L 258462 33673.7 L 255840 33673.7 L 255840 39726.15 Q 255840 40646.7 256139.25 41112.2 Q 256438.5 41577.7 257122.5 41577.7 L 257120.6 41576.75 Z M 264643.2 42993.2 Q 263598.2 42993.2 262733.7 42641.7 Q 261869.2 42290.2 261246.95 41615.7 Q 260624.7 40941.2 260282.7 39943.7 Q 259940.7 38946.2 259940.7 37662.75 Q 259940.7 36370.75 260254.2 35354.25 Q 260567.7 34337.75 261137.7 33630 Q 261707.7 32922.25 262500.95 32551.75 Q 263294.2 32181.25 264254.65 32181.25 Q 265194.2 32181.25 265944.7 32518.5 Q 266695.2 32855.75 267217.7 33468.5 Q 267740.2 34081.25 268020.45 34941 Q 268300.7 35800.75 268300.7 36845.75 L 268300.7 37920.2 L 261726.7 37920.2 Q 261773.25 39752.75 262500 40617.25 Q 263226.75 41481.75 264660.3 41481.75 Q 265145.75 41481.75 265559 41434.25 Q 265972.25 41386.75 266357 41296.5 Q 266741.75 41206.25 267102.75 41068.5 Q 267463.75 40930.75 267833.3 40759.75 L 267833.3 42298.75 Q 267453.3 42480.2 267087.55 42613.2 Q 266721.8 42746.2 266337.05 42831.7 Q 265952.3 42917.2 265539.05 42955.2 Q 265125.8 42993.2 264640.35 42993.2 L 264643.2 42993.2 Z M 264216.65 33615.75 Q 263133.65 33615.75 262501.9 34356.75 Q 261870.15 35097.75 261766.6 36514.2 L 266440.6 36514.2 Q 266440.6 35868.2 266312.35 35331.45 Q 266184.1 34794.7 265913.35 34414.7 Q 265642.6 34034.7 265224.6 33825.7 Q 264806.6 33616.7 264217.6 33616.7 L 264216.65 33615.75 Z M 284383.65 37567.75 Q 284383.65 38870.2 284065.4 39881.95 Q 283747.15 40893.7 283153.4 41582.45 Q 282559.65 42271.2 281714.15 42632.2 Q 280868.65 42993.2 279813.2 42993.2 Q 278835.65 42993.2 278009.15 42632.2 Q 277182.65 42271.2 276579.4 41582.45 Q 275976.15 40893.7 275638.9 39881.95 Q 275301.65 38870.2 275301.65 37567.75 Q 275301.65 36275.75 275619.9 35273.5 Q 275938.15 34271.25 276527.15 33582.5 Q 277116.15 32893.75 277966.4 32537.5 Q 278816.65 32181.25 279870.2 32181.25 Q 280849.65 32181.25 281676.15 32537.5 Q 282502.65 32893.75 283105.9 33582.5 Q 283709.15 34271.25 284046.4 35273.5 Q 284383.65 36275.75 284383.65 37567.75  Z M 277087.65 37567.75 Q 277087.65 39554.2 277738.4 40556.45 Q 278389.15 41558.7 279852.15 41558.7 Q 281315.15 41558.7 281956.4 40556.45 Q 282597.65 39554.2 282597.65 37567.75 Q 282597.65 35583.2 281946.9 34599.95 Q 281296.15 33616.7 279833.15 33616.7 Q 278370.15 33616.7 277728.9 34599.95 Q 277087.65 35583.2 277087.65 37567.75  Z M 293661.2 42803.2 L 293661.2 36085.75 Q 293661.2 34850.75 293162.45 34233.25 Q 292663.7 33615.75 291599.7 33615.75 Q 290829.25 33615.75 290306.75 33862.75 Q 289784.25 34109.75 289466 34594.25 Q 289147.75 35078.75 289010 35781.75 Q 288872.25 36484.75 288872.25 37396.75 L 288872.25 42803.2 L 287143.25 42803.2 L 287143.25 32372.2 L 288549.25 32372.2 L 288796.25 33778.2 L 288891.25 33778.2 Q 289129.7 33368.75 289457.45 33069.5 Q 289785.2 32770.25 290174.7 32570.75 Q 290564.2 32371.25 291001.2 32276.25 Q 291438.2 32181.25 291894.2 32181.25 Q 293633.65 32181.25 294512.4 33088.5 Q 295391.15 33995.75 295391.15 35990.75 L 295391.15 42803.2 L 293662.15 42803.2 L 293661.2 42803.2 Z M 312082.85 37567.75 Q 312082.85 38870.2 311764.6 39881.95 Q 311446.35 40893.7 310852.6 41582.45 Q 310258.85 42271.2 309413.35 42632.2 Q 308567.85 42993.2 307512.4 42993.2 Q 306534.85 42993.2 305708.35 42632.2 Q 304881.85 42271.2 304278.6 41582.45 Q 303675.35 40893.7 303338.1 39881.95 Q 303000.85 38870.2 303000.85 37567.75 Q 303000.85 36275.75 303319.1 35273.5 Q 303637.35 34271.25 304226.35 33582.5 Q 304815.35 32893.75 305665.6 32537.5 Q 306515.85 32181.25 307569.4 32181.25 Q 308548.85 32181.25 309375.35 32537.5 Q 310201.85 32893.75 310805.1 33582.5 Q 311408.35 34271.25 311745.6 35273.5 Q 312082.85 36275.75 312082.85 37567.75  Z M 304786.85 37567.75 Q 304786.85 39554.2 305437.6 40556.45 Q 306088.35 41558.7 307551.35 41558.7 Q 309014.35 41558.7 309655.6 40556.45 Q 310296.85 39554.2 310296.85 37567.75 Q 310296.85 35583.2 309646.1 34599.95 Q 308995.35 33616.7 307532.35 33616.7 Q 306069.35 33616.7 305428.1 34599.95 Q 304786.85 35583.2 304786.85 37567.75  Z M 321598.85 42803.2 L 321341.4 41405.75 L 321246.4 41405.75 Q 321009.85 41815.2 320682.1 42114.45 Q 320354.35 42413.7 319964.85 42608.45 Q 319575.35 42803.2 319138.35 42898.2 Q 318701.35 42993.2 318245.35 42993.2 Q 317381.8 42993.2 316726.3 42774.7 Q 316070.8 42556.2 315633.8 42090.7 Q 315196.8 41625.2 314973.55 40903.2 Q 314750.3 40181.2 314750.3 39182.75 L 314750.3 32372.2 L 316479.3 32372.2 L 316479.3 39087.75 Q 316479.3 40322.75 316982.8 40940.25 Q 317486.3 41557.75 318541.75 41557.75 Q 319310.3 41557.75 319832.8 41310.75 Q 320355.3 41063.75 320673.55 40584 Q 320991.8 40104.25 321129.55 39401.25 Q 321267.3 38698.25 321267.3 37786.25 L 321267.3 32371.25 L 322996.3 32371.25 L 322996.3 42802.25 L 321600.75 42802.25 L 321598.85 42803.2 Z M 330774.45 32182.2 Q 331049 32182.2 331391 32205.95 Q 331733 32229.7 331980 32278.15 L 331752 33874.15 Q 331486 33825.7 331205.75 33792.45 Q 330925.5 33759.2 330678.5 33759.2 Q 330079.05 33759.2 329585.05 34001.45 Q 329091.05 34243.7 328734.8 34694.95 Q 328378.55 35146.2 328183.8 35777.95 Q 327989.05 36409.7 327989.05 37180.15 L 327989.05 42804.15 L 326260.05 42804.15 L 326260.05 32373.15 L 327666.05 32373.15 L 327875.05 34281.7 L 327951.05 34281.7 Q 328189.5 33874.15 328460.25 33494.15 Q 328731 33114.15 329068.25 32824.4 Q 329405.5 32534.65 329823.5 32358.9 Q 330241.5 32183.15 330773.5 32183.15 L 330774.45 32182.2 Z M 341066.45 42803.2 L 339299.45 42803.2 L 339299.45 28914.2 L 346509 28914.2 L 346509 30472.2 L 341066.45 30472.2 L 341066.45 35374.2 L 346148 35374.2 L 346148 36932.2 L 341066.45 36932.2 L 341066.45 42803.2 Z M 357087.65 37567.75 Q 357087.65 38870.2 356769.4 39881.95 Q 356451.15 40893.7 355857.4 41582.45 Q 355263.65 42271.2 354418.15 42632.2 Q 353572.65 42993.2 352517.2 42993.2 Q 351539.65 42993.2 350713.15 42632.2 Q 349886.65 42271.2 349283.4 41582.45 Q 348680.15 40893.7 348342.9 39881.95 Q 348005.65 38870.2 348005.65 37567.75 Q 348005.65 36275.75 348323.9 35273.5 Q 348642.15 34271.25 349231.15 33582.5 Q 349820.15 32893.75 350670.4 32537.5 Q 351520.65 32181.25 352574.2 32181.25 Q 353553.65 32181.25 354380.15 32537.5 Q 355206.65 32893.75 355809.9 33582.5 Q 356413.15 34271.25 356750.4 35273.5 Q 357087.65 36275.75 357087.65 37567.75  Z M 349791.65 37567.75 Q 349791.65 39554.2 350442.4 40556.45 Q 351093.15 41558.7 352556.15 41558.7 Q 354019.15 41558.7 354660.4 40556.45 Q 355301.65 39554.2 355301.65 37567.75 Q 355301.65 35583.2 354650.9 34599.95 Q 354000.15 33616.7 352537.15 33616.7 Q 351074.15 33616.7 350432.9 34599.95 Q 349791.65 35583.2 349791.65 37567.75  Z M 363838.2 42993.2 Q 362879.65 42993.2 362043.65 42693.95 Q 361207.65 42394.7 360590.15 41743.95 Q 359972.65 41093.2 359621.15 40081.45 Q 359269.65 39069.7 359269.65 37644.7 Q 359269.65 36154.15 359630.65 35113.9 Q 359991.65 34073.65 360623.4 33422.9 Q 361255.15 32772.15 362100.65 32477.65 Q 362946.15 32183.15 363915.15 32183.15 Q 364656.15 32183.15 365363.9 32344.65 Q 366071.65 32506.15 366546.65 32742.7 L 366033.65 34205.7 Q 365814.2 34110.7 365548.2 34020.45 Q 365282.2 33930.2 364997.2 33858.95 Q 364712.2 33787.7 364436.7 33744.95 Q 364161.2 33702.2 363914.2 33702.2 Q 362423.65 33702.2 361739.65 34656.95 Q 361055.65 35611.7 361055.65 37625.7 Q 361055.65 39631.15 361744.4 40557.4 Q 362433.15 41483.65 363839.15 41483.65 Q 364609.6 41483.65 365231.85 41307.9 Q 365854.1 41132.15 366367.1 40893.7 L 366367.1 42432.7 Q 365854.1 42709.15 365269.85 42851.65 Q 364685.6 42994.15 363839.15 42994.15 L 363838.2 42993.2 Z M 375563.65 42803.2 L 375306.2 41405.75 L 375211.2 41405.75 Q 374974.65 41815.2 374646.9 42114.45 Q 374319.15 42413.7 373929.65 42608.45 Q 373540.15 42803.2 373103.15 42898.2 Q 372666.15 42993.2 372210.15 42993.2 Q 371346.6 42993.2 370691.1 42774.7 Q 370035.6 42556.2 369598.6 42090.7 Q 369161.6 41625.2 368938.35 40903.2 Q 368715.1 40181.2 368715.1 39182.75 L 368715.1 32372.2 L 370444.1 32372.2 L 370444.1 39087.75 Q 370444.1 40322.75 370947.6 40940.25 Q 371451.1 41557.75 372506.55 41557.75 Q 373275.1 41557.75 373797.6 41310.75 Q 374320.1 41063.75 374638.35 40584 Q 374956.6 40104.25 375094.35 39401.25 Q 375232.1 38698.25 375232.1 37786.25 L 375232.1 32371.25 L 376961.1 32371.25 L 376961.1 42802.25 L 375565.55 42802.25 L 375563.65 42803.2 Z M 386468.25 39942.75 Q 386468.25 40702.75 386192.75 41272.75 Q 385917.25 41842.75 385399.5 42227.5 Q 384881.75 42612.25 384150.25 42802.25 Q 383418.75 42992.25 382506.75 42992.25 Q 381472.2 42992.25 380731.2 42826 Q 379990.2 42659.75 379428.75 42336.75 L 379428.75 40759.75 Q 379724.2 40911.75 380085.2 41059 Q 380446.2 41206.25 380845.2 41320.25 Q 381244.2 41434.25 381666.95 41505.5 Q 382089.7 41576.75 382507.7 41576.75 Q 383126.15 41576.75 383558.4 41472.25 Q 383990.65 41367.75 384261.4 41173 Q 384532.15 40978.25 384655.65 40698 Q 384779.15 40417.75 384779.15 40075.75 Q 384779.15 39782.2 384684.15 39544.7 Q 384589.15 39307.2 384337.4 39074.45 Q 384085.65 38841.7 383648.65 38604.2 Q 383211.65 38366.7 382527.65 38073.15 Q 381843.65 37777.7 381297.4 37492.7 Q 380751.15 37207.7 380371.15 36856.2 Q 379991.15 36504.7 379786.9 36043.95 Q 379582.65 35583.2 379582.65 34945.75 Q 379582.65 34280.75 379843.9 33763 Q 380105.15 33245.25 380580.15 32893.75 Q 381055.15 32542.25 381720.15 32361.75 Q 382385.15 32181.25 383202.15 32181.25 Q 384122.7 32181.25 384887.45 32380.75 Q 385652.2 32580.25 386336.2 32903.25 L 385736.75 34298.8 Q 385120.2 34024.25 384469.45 33820 Q 383818.7 33615.75 383145.15 33615.75 Q 382176.15 33615.75 381710.65 33934 Q 381245.15 34252.25 381245.15 34841.25 Q 381245.15 35172.8 381354.4 35419.8 Q 381463.65 35666.8 381729.65 35885.3 Q 381995.65 36103.8 382442.15 36327.05 Q 382888.65 36550.3 383553.65 36824.85 Q 384237.65 37109.85 384774.4 37394.85 Q 385311.15 37679.85 385691.15 38036.1 Q 386071.15 38392.35 386270.65 38848.35 Q 386470.15 39304.35 386470.15 39939.9 L 386468.25 39942.75 Z M 390577 37415.75 L 391860.45 35800.75 L 394643 32372.2 L 396648.45 32372.2 L 392838 36883.75 L 396904 42803.2 L 394919.45 42803.2 L 391727.45 38015.2 L 390691 38794.2 L 390691 42803.2 L 388981 42803.2 L 388981 28021.2 L 390691 28021.2 L 390691 34804.2 L 390539 37415.75 L 390577 37415.75 Z M 397048.6 32372.2 L 398845.05 32372.2 L 400886.6 38194.75 Q 401019.6 38574.75 401157.35 38992.75 Q 401295.1 39410.75 401413.85 39828.75 Q 401532.6 40246.75 401618.1 40636.25 Q 401703.6 41025.75 401741.6 41359.2 L 401798.6 41359.2 Q 401847.05 41120.75 401951.55 40712.25 Q 402056.05 40303.75 402184.3 39843 Q 402312.55 39382.25 402450.3 38935.75 Q 402588.05 38489.25 402691.6 38174.8 L 404583.05 32371.25 L 406369.05 32371.25 L 402246.05 44161.7 Q 401980.05 44930.25 401671.3 45543 Q 401362.55 46155.75 400954.05 46583.25 Q 400545.55 47010.75 399994.55 47243.5 Q 399443.55 47476.25 398683.55 47476.25 Q 398189.55 47476.25 397828.55 47424 Q 397467.55 47371.75 397212 47314.75 L 397212 45936.3 Q 397410.55 45984.75 397714.55 46018 Q 398018.55 46051.25 398352 46051.25 Q 398808 46051.25 399140.5 45942 Q 399473 45832.75 399720 45623.75 Q 399967 45414.75 400142.75 45110.75 Q 400318.5 44806.75 400461.95 44416.3 L 401002.5 42896.3 L 397050.5 32370.3 L 397048.6 32372.2 Z M 417086.2 42993.2 Q 416127.65 42993.2 415291.65 42693.95 Q 414455.65 42394.7 413838.15 41743.95 Q 413220.65 41093.2 412869.15 40081.45 Q 412517.65 39069.7 412517.65 37644.7 Q 412517.65 36154.15 412878.65 35113.9 Q 413239.65 34073.65 413871.4 33422.9 Q 414503.15 32772.15 415348.65 32477.65 Q 416194.15 32183.15 417163.15 32183.15 Q 417904.15 32183.15 418611.9 32344.65 Q 419319.65 32506.15 419794.65 32742.7 L 419281.65 34205.7 Q 419062.2 34110.7 418796.2 34020.45 Q 418530.2 33930.2 418245.2 33858.95 Q 417960.2 33787.7 417684.7 33744.95 Q 417409.2 33702.2 417162.2 33702.2 Q 415671.65 33702.2 414987.65 34656.95 Q 414303.65 35611.7 414303.65 37625.7 Q 414303.65 39631.15 414992.4 40557.4 Q 415681.15 41483.65 417087.15 41483.65 Q 417857.6 41483.65 418479.85 41307.9 Q 419102.1 41132.15 419615.1 40893.7 L 419615.1 42432.7 Q 419102.1 42709.15 418517.85 42851.65 Q 417933.6 42994.15 417087.15 42994.15 L 417086.2 42993.2 Z M 423785.2 42803.2 L 422056.2 42803.2 L 422056.2 28021.2 L 423785.2 28021.2 L 423785.2 42803.2 Z M 435577.25 37567.75 Q 435577.25 38870.2 435259 39881.95 Q 434940.75 40893.7 434347 41582.45 Q 433753.25 42271.2 432907.75 42632.2 Q 432062.25 42993.2 431006.8 42993.2 Q 430029.25 42993.2 429202.75 42632.2 Q 428376.25 42271.2 427773 41582.45 Q 427169.75 40893.7 426832.5 39881.95 Q 426495.25 38870.2 426495.25 37567.75 Q 426495.25 36275.75 426813.5 35273.5 Q 427131.75 34271.25 427720.75 33582.5 Q 428309.75 32893.75 429160 32537.5 Q 430010.25 32181.25 431063.8 32181.25 Q 432043.25 32181.25 432869.75 32537.5 Q 433696.25 32893.75 434299.5 33582.5 Q 434902.75 34271.25 435240 35273.5 Q 435577.25 36275.75 435577.25 37567.75  Z M 428281.25 37567.75 Q 428281.25 39554.2 428932 40556.45 Q 429582.75 41558.7 431045.75 41558.7 Q 432508.75 41558.7 433150 40556.45 Q 433791.25 39554.2 433791.25 37567.75 Q 433791.25 35583.2 433140.5 34599.95 Q 432489.75 33616.7 431026.75 33616.7 Q 429563.75 33616.7 428922.5 34599.95 Q 428281.25 35583.2 428281.25 37567.75  Z M 445093.25 42803.2 L 444835.8 41405.75 L 444740.8 41405.75 Q 444504.25 41815.2 444176.5 42114.45 Q 443848.75 42413.7 443459.25 42608.45 Q 443069.75 42803.2 442632.75 42898.2 Q 442195.75 42993.2 441739.75 42993.2 Q 440876.2 42993.2 440220.7 42774.7 Q 439565.2 42556.2 439128.2 42090.7 Q 438691.2 41625.2 438467.95 40903.2 Q 438244.7 40181.2 438244.7 39182.75 L 438244.7 32372.2 L 439973.7 32372.2 L 439973.7 39087.75 Q 439973.7 40322.75 440477.2 40940.25 Q 440980.7 41557.75 442036.15 41557.75 Q 442804.7 41557.75 443327.2 41310.75 Q 443849.7 41063.75 444167.95 40584 Q 444486.2 40104.25 444623.95 39401.25 Q 444761.7 38698.25 444761.7 37786.25 L 444761.7 32371.25 L 446490.7 32371.25 L 446490.7 42802.25 L 445095.15 42802.25 L 445093.25 42803.2 Z M 456196.4 41405.75 L 456120.4 41405.75 Q 455911.4 41728.75 455631.15 42018.5 Q 455350.9 42308.25 454985.15 42526.75 Q 454619.4 42745.25 454163.4 42868.75 Q 453707.4 42992.25 453137.4 42992.25 Q 452254.85 42992.25 451523.35 42650.25 Q 450791.85 42308.25 450269.35 41629 Q 449746.85 40949.75 449461.85 39942.75 Q 449176.85 38935.75 449176.85 37605.75 Q 449176.85 36267.2 449461.85 35255.45 Q 449746.85 34243.7 450269.35 33559.7 Q 450791.85 32875.7 451523.35 32528.95 Q 452254.85 32182.2 453137.4 32182.2 Q 453698.85 32182.2 454154.85 32305.7 Q 454610.85 32429.2 454976.6 32638.2 Q 455342.35 32847.2 455627.35 33122.7 Q 455912.35 33398.2 456121.35 33702.2 L 456235.35 33702.2 Q 456207.8 33379.2 456178.35 33083.75 Q 456159.35 32836.75 456140.35 32575.5 Q 456121.35 32314.25 456121.35 32162.25 L 456121.35 28020.25 L 457850.35 28020.25 L 457850.35 42802.25 L 456454.8 42802.25 L 456197.35 41404.8 L 456196.4 41405.75 Z M 453470.85 41557.75 Q 454192.85 41557.75 454691.6 41339.25 Q 455190.35 41120.75 455499.1 40674.25 Q 455807.85 40227.75 455955.1 39558 Q 456102.35 38888.25 456121.35 37995.25 L 456121.35 37604.8 Q 456121.35 36646.25 455993.1 35900.5 Q 455864.85 35154.75 455556.1 34646.5 Q 455247.35 34138.25 454734.35 33877 Q 454221.35 33615.75 453452.8 33615.75 Q 452169.35 33615.75 451566.1 34651.25 Q 450962.85 35686.75 450962.85 37624.75 Q 450962.85 39611.2 451566.1 40584.95 Q 452169.35 41558.7 453471.8 41558.7 L 453470.85 41557.75 Z M 460917.45 41747.75 Q 460917.45 41386.75 461012.45 41135 Q 461107.45 40883.25 461268.95 40726.5 Q 461430.45 40569.75 461648.95 40498.5 Q 461867.45 40427.25 462123 40427.25 Q 462370 40427.25 462593.25 40498.5 Q 462816.5 40569.75 462978 40726.5 Q 463139.5 40883.25 463234.5 41135 Q 463329.5 41386.75 463329.5 41747.75 Q 463329.5 42100.2 463234.5 42351.95 Q 463139.5 42603.7 462978 42766.15 Q 462816.5 42928.6 462593.25 43004.6 Q 462370 43080.6 462123 43080.6 Q 461867.45 43080.6 461648.95 43004.6 Q 461430.45 42928.6 461268.95 42766.15 Q 461107.45 42603.7 461012.45 42351.95 Q 460917.45 42100.2 460917.45 41747.75  Z " fill-rule="nonzero" style="fill:#000000;;fill-opacity:1;"/>
</svg>