<svg version="1.1" x="0" y="0" width="100%" height="100%" viewBox="0 0 479129.6 77004.8" xmlns="http://www.w3.org/2000/svg">
  <path d="M 4578.8 29954 Q 3473.6 28922 3473.6 27152 Q 3473.6 24990.8 5440.4 23810 Q 7380.8 22654.4 11681.6 22163.6 Q 11681.6 18797.6 8930 18797.6 Q 7037.6 18797.6 4924.4 20223.2 L 4040 18674 Q 6767.6 16928 9298.4 16928 Q 13919.6 16928 13919.6 22409.6 L 13919.6 30617.6 L 12076.4 30617.6 L 11879.6 29020.4 L 11806.4 29020.4 Q 9496.4 30936.8 7383.2 30936.8 Q 5663.6 30936.8 4582.4 29952.8 L 4578.8 29954 Z M 11681.6 27372.8 L 11681.6 23638.4 Q 5661.2 24350 5661.2 27004.4 Q 5661.2 29141.6 8019.2 29141.6 Q 9690.8 29141.6 11681.6 27371.6 L 11681.6 27372.8 Z M 18674 29118.8 Q 17175.2 27251.6 17175.2 23957.6 Q 17175.2 20812.4 18921.2 18821.6 Q 20567.6 16929.2 22952 16929.2 Q 24819.2 16929.2 26711.6 18503.6 L 26588 16193.6 L 26588 11056.4 L 28824.8 11056.4 L 28824.8 30620 L 27005.6 30620 L 26784.8 29046.8 L 26735.6 29046.8 Q 24795.2 30939.2 22682 30939.2 Q 20151.2 30939.2 18676.4 29120 L 18674 29118.8 Z M 26586.8 27225.2 L 26586.8 20222 Q 25013.6 18820.4 23342 18820.4 Q 21695.6 18820.4 20614.4 20222 Q 19485.2 21671.6 19485.2 23932.4 Q 19485.2 26366 20444 27718.4 Q 21402.8 29068.4 23172.8 29068.4 Q 24942.8 29068.4 26589.2 27225.2 L 26586.8 27225.2 Z M 33880.4 29118.8 Q 32381.6 27251.6 32381.6 23957.6 Q 32381.6 20812.4 34127.6 18821.6 Q 35774 16929.2 38158.4 16929.2 Q 40025.6 16929.2 41918 18503.6 L 41794.4 16193.6 L 41794.4 11056.4 L 44031.2 11056.4 L 44031.2 30620 L 42212 30620 L 41991.2 29046.8 L 41942 29046.8 Q 40001.6 30939.2 37888.4 30939.2 Q 35357.6 30939.2 33882.8 29120 L 33880.4 29118.8 Z M 41793.2 27225.2 L 41793.2 20222 Q 40220 18820.4 38548.4 18820.4 Q 36902 18820.4 35820.8 20222 Q 34691.6 21671.6 34691.6 23932.4 Q 34691.6 26366 35650.4 27718.4 Q 36609.2 29068.4 38379.2 29068.4 Q 40149.2 29068.4 41795.6 27225.2 L 41793.2 27225.2 Z M 54468.8 26489.6 L 54468.8 19091.6 L 52478 19091.6 L 52478 17396 L 54566 17274.8 L 54836 13539.2 L 56704.4 13539.2 L 56704.4 17274.8 L 60317.6 17274.8 L 60317.6 19092.8 L 56704.4 19092.8 L 56704.4 26538.8 Q 56704.4 29120 58768.4 29120 Q 59406.8 29120 60291.2 28775.6 L 60734 30446 Q 59208.8 30939.2 58276.4 30939.2 Q 54466.4 30939.2 54466.4 26490.8 L 54468.8 26489.6 Z M 64151.6 29094.8 Q 62283.2 27152 62283.2 23956.4 Q 62283.2 20836.4 64126.4 18820.4 Q 65872.4 16928 68306 16928 Q 70811.6 16928 72237.2 18623.6 Q 73613.6 20295.2 73613.6 23194.4 Q 73613.6 23834 73516.4 24472.4 L 64521.2 24472.4 Q 64620.8 26609.6 65849.6 27863.6 Q 67053.2 29140.4 68945.6 29140.4 Q 70715.6 29140.4 72288.8 28084.4 L 73100 29559.2 Q 70960.4 30935.6 68675.6 30935.6 Q 65924 30935.6 64154 29092.4 L 64151.6 29094.8 Z M 71648 22876.4 Q 71648 18723.2 68330 18723.2 Q 66855.2 18723.2 65799.2 19804.4 Q 64694 20960 64497.2 22876.4 L 71649.2 22876.4 L 71648 22876.4 Z M 79366 23662.4 L 75310 17273.6 L 77719.6 17273.6 L 80839.6 22433.6 L 80939.2 22433.6 L 83790.4 17273.6 L 86124.4 17273.6 L 82068.4 23883.2 L 86468.8 30617.6 L 84011.2 30617.6 L 82044.4 27496.4 Q 81430 26367.2 80618.8 25113.2 L 80495.2 25113.2 L 77326 30618.8 L 74965.6 30618.8 L 79366 23663.6 L 79366 23662.4 Z M 89540.8 26489.6 L 89540.8 19091.6 L 87550 19091.6 L 87550 17396 L 89638 17274.8 L 89908 13539.2 L 91776.4 13539.2 L 91776.4 17274.8 L 95389.6 17274.8 L 95389.6 19092.8 L 91776.4 19092.8 L 91776.4 26538.8 Q 91776.4 29120 93840.4 29120 Q 94478.8 29120 95363.2 28775.6 L 95806 30446 Q 94280.8 30939.2 93348.4 30939.2 Q 89538.4 30939.2 89538.4 26490.8 L 89540.8 26489.6 Z M 103892.8 11054 L 106129.6 11054 L 106129.6 16412 L 106056.4 19163.6 Q 108293.2 16926.8 110480.8 16926.8 Q 114559.6 16926.8 114559.6 22162.4 L 114559.6 30616.4 L 112324 30616.4 L 112324 22456.4 Q 112324 18893.6 109793.2 18893.6 Q 108170.8 18893.6 106130.8 20933.6 L 106130.8 30616.4 L 103894 30616.4 L 103894 11052.8 L 103892.8 11054 Z M 119652.4 29094.8 Q 117784 27152 117784 23956.4 Q 117784 20836.4 119627.2 18820.4 Q 121373.2 16928 123806.8 16928 Q 126312.4 16928 127738 18623.6 Q 129114.4 20295.2 129114.4 23194.4 Q 129114.4 23834 129017.2 24472.4 L 120022 24472.4 Q 120121.6 26609.6 121350.4 27863.6 Q 122554 29140.4 124446.4 29140.4 Q 126216.4 29140.4 127789.6 28084.4 L 128600.8 29559.2 Q 126461.2 30935.6 124176.4 30935.6 Q 121424.8 30935.6 119654.8 29092.4 L 119652.4 29094.8 Z M 127148.8 22876.4 Q 127148.8 18723.2 123830.8 18723.2 Q 122356 18723.2 121300 19804.4 Q 120194.8 20960 119998 22876.4 L 127150 22876.4 L 127148.8 22876.4 Z M 132360 17273.6 L 134203.2 17273.6 L 134400 19706 L 134473.2 19706 Q 135996 16928 138258 16928 Q 139117.2 16928 139682.4 17224.4 L 139264.8 19191.2 Q 138699.6 18969.2 137961.6 18969.2 Q 135774 18969.2 134594.4 22041.2 L 134594.4 30618.8 L 132357.6 30618.8 L 132357.6 17274.8 L 132360 17273.6 Z M 142743.6 29094.8 Q 140875.2 27152 140875.2 23956.4 Q 140875.2 20836.4 142718.4 18820.4 Q 144464.4 16928 146898 16928 Q 149403.6 16928 150829.2 18623.6 Q 152205.6 20295.2 152205.6 23194.4 Q 152205.6 23834 152108.4 24472.4 L 143113.2 24472.4 Q 143212.8 26609.6 144441.6 27863.6 Q 145645.2 29140.4 147537.6 29140.4 Q 149307.6 29140.4 150880.8 28084.4 L 151692 29559.2 Q 149552.4 30935.6 147267.6 30935.6 Q 144516 30935.6 142746 29092.4 L 142743.6 29094.8 Z M 150240 22876.4 Q 150240 18723.2 146922 18723.2 Q 145447.2 18723.2 144391.2 19804.4 Q 143286 20960 143089.2 22876.4 L 150241.2 22876.4 L 150240 22876.4 Z M 161250.8 29954 Q 160145.6 28922 160145.6 27152 Q 160145.6 24990.8 162112.4 23810 Q 164052.8 22654.4 168353.6 22163.6 Q 168353.6 18797.6 165602 18797.6 Q 163709.6 18797.6 161596.4 20223.2 L 160712 18674 Q 163439.6 16928 165970.4 16928 Q 170591.6 16928 170591.6 22409.6 L 170591.6 30617.6 L 168748.4 30617.6 L 168551.6 29020.4 L 168478.4 29020.4 Q 166168.4 30936.8 164055.2 30936.8 Q 162335.6 30936.8 161254.4 29952.8 L 161250.8 29954 Z M 168353.6 27372.8 L 168353.6 23638.4 Q 162333.2 24350 162333.2 27004.4 Q 162333.2 29141.6 164691.2 29141.6 Q 166362.8 29141.6 168353.6 27371.6 L 168353.6 27372.8 Z M 175346 29118.8 Q 173847.2 27251.6 173847.2 23957.6 Q 173847.2 20812.4 175593.2 18821.6 Q 177239.6 16929.2 179624 16929.2 Q 181491.2 16929.2 183383.6 18503.6 L 183260 16193.6 L 183260 11056.4 L 185496.8 11056.4 L 185496.8 30620 L 183677.6 30620 L 183456.8 29046.8 L 183407.6 29046.8 Q 181467.2 30939.2 179354 30939.2 Q 176823.2 30939.2 175348.4 29120 L 175346 29118.8 Z M 183258.8 27225.2 L 183258.8 20222 Q 181685.6 18820.4 180014 18820.4 Q 178367.6 18820.4 177286.4 20222 Q 176157.2 21671.6 176157.2 23932.4 Q 176157.2 26366 177116 27718.4 Q 178074.8 29068.4 179844.8 29068.4 Q 181614.8 29068.4 183261.2 27225.2 L 183258.8 27225.2 Z M 190552.4 29118.8 Q 189053.6 27251.6 189053.6 23957.6 Q 189053.6 20812.4 190799.6 18821.6 Q 192446 16929.2 194830.4 16929.2 Q 196697.6 16929.2 198590 18503.6 L 198466.4 16193.6 L 198466.4 11056.4 L 200703.2 11056.4 L 200703.2 30620 L 198884 30620 L 198663.2 29046.8 L 198614 29046.8 Q 196673.6 30939.2 194560.4 30939.2 Q 192029.6 30939.2 190554.8 29120 L 190552.4 29118.8 Z M 198465.2 27225.2 L 198465.2 20222 Q 196892 18820.4 195220.4 18820.4 Q 193574 18820.4 192492.8 20222 Q 191363.6 21671.6 191363.6 23932.4 Q 191363.6 26366 192322.4 27718.4 Q 193281.2 29068.4 195051.2 29068.4 Q 196821.2 29068.4 198467.6 27225.2 L 198465.2 27225.2 Z M 211140.8 26489.6 L 211140.8 19091.6 L 209150 19091.6 L 209150 17396 L 211238 17274.8 L 211508 13539.2 L 213376.4 13539.2 L 213376.4 17274.8 L 216989.6 17274.8 L 216989.6 19092.8 L 213376.4 19092.8 L 213376.4 26538.8 Q 213376.4 29120 215440.4 29120 Q 216078.8 29120 216963.2 28775.6 L 217406 30446 Q 215880.8 30939.2 214948.4 30939.2 Q 211138.4 30939.2 211138.4 26490.8 L 211140.8 26489.6 Z M 220823.6 29094.8 Q 218955.2 27152 218955.2 23956.4 Q 218955.2 20836.4 220798.4 18820.4 Q 222544.4 16928 224978 16928 Q 227483.6 16928 228909.2 18623.6 Q 230285.6 20295.2 230285.6 23194.4 Q 230285.6 23834 230188.4 24472.4 L 221193.2 24472.4 Q 221292.8 26609.6 222521.6 27863.6 Q 223725.2 29140.4 225617.6 29140.4 Q 227387.6 29140.4 228960.8 28084.4 L 229772 29559.2 Q 227632.4 30935.6 225347.6 30935.6 Q 222596 30935.6 220826 29092.4 L 220823.6 29094.8 Z M 228320 22876.4 Q 228320 18723.2 225002 18723.2 Q 223527.2 18723.2 222471.2 19804.4 Q 221366 20960 221169.2 22876.4 L 228321.2 22876.4 L 228320 22876.4 Z M 236038 23662.4 L 231982 17273.6 L 234391.6 17273.6 L 237511.6 22433.6 L 237611.2 22433.6 L 240462.4 17273.6 L 242796.4 17273.6 L 238740.4 23883.2 L 243140.8 30617.6 L 240683.2 30617.6 L 238716.4 27496.4 Q 238102 26367.2 237290.8 25113.2 L 237167.2 25113.2 L 233998 30618.8 L 231637.6 30618.8 L 236038 23663.6 L 236038 23662.4 Z M 246212.8 26489.6 L 246212.8 19091.6 L 244222 19091.6 L 244222 17396 L 246310 17274.8 L 246580 13539.2 L 248448.4 13539.2 L 248448.4 17274.8 L 252061.6 17274.8 L 252061.6 19092.8 L 248448.4 19092.8 L 248448.4 26538.8 Q 248448.4 29120 250512.4 29120 Q 251150.8 29120 252035.2 28775.6 L 252478 30446 Q 250952.8 30939.2 250020.4 30939.2 Q 246210.4 30939.2 246210.4 26490.8 L 246212.8 26489.6 Z M 260564.8 11054 L 262801.6 11054 L 262801.6 16412 L 262728.4 19163.6 Q 264965.2 16926.8 267152.8 16926.8 Q 271231.6 16926.8 271231.6 22162.4 L 271231.6 30616.4 L 268996 30616.4 L 268996 22456.4 Q 268996 18893.6 266465.2 18893.6 Q 264842.8 18893.6 262802.8 20933.6 L 262802.8 30616.4 L 260566 30616.4 L 260566 11052.8 L 260564.8 11054 Z M 276324.4 29094.8 Q 274456 27152 274456 23956.4 Q 274456 20836.4 276299.2 18820.4 Q 278045.2 16928 280478.8 16928 Q 282984.4 16928 284410 18623.6 Q 285786.4 20295.2 285786.4 23194.4 Q 285786.4 23834 285689.2 24472.4 L 276694 24472.4 Q 276793.6 26609.6 278022.4 27863.6 Q 279226 29140.4 281118.4 29140.4 Q 282888.4 29140.4 284461.6 28084.4 L 285272.8 29559.2 Q 283133.2 30935.6 280848.4 30935.6 Q 278096.8 30935.6 276326.8 29092.4 L 276324.4 29094.8 Z M 283820.8 22876.4 Q 283820.8 18723.2 280502.8 18723.2 Q 279028 18723.2 277972 19804.4 Q 276866.8 20960 276670 22876.4 L 283822 22876.4 L 283820.8 22876.4 Z M 289032 17273.6 L 290875.2 17273.6 L 291072 19706 L 291145.2 19706 Q 292668 16928 294930 16928 Q 295789.2 16928 296354.4 17224.4 L 295936.8 19191.2 Q 295371.6 18969.2 294633.6 18969.2 Q 292446 18969.2 291266.4 22041.2 L 291266.4 30618.8 L 289029.6 30618.8 L 289029.6 17274.8 L 289032 17273.6 Z M 299415.6 29094.8 Q 297547.2 27152 297547.2 23956.4 Q 297547.2 20836.4 299390.4 18820.4 Q 301136.4 16928 303570 16928 Q 306075.6 16928 307501.2 18623.6 Q 308877.6 20295.2 308877.6 23194.4 Q 308877.6 23834 308780.4 24472.4 L 299785.2 24472.4 Q 299884.8 26609.6 301113.6 27863.6 Q 302317.2 29140.4 304209.6 29140.4 Q 305979.6 29140.4 307552.8 28084.4 L 308364 29559.2 Q 306224.4 30935.6 303939.6 30935.6 Q 301188 30935.6 299418 29092.4 L 299415.6 29094.8 Z M 306912 22876.4 Q 306912 18723.2 303594 18723.2 Q 302119.2 18723.2 301063.2 19804.4 Q 299958 20960 299761.2 22876.4 L 306913.2 22876.4 L 306912 22876.4 Z M 317922.8 29954 Q 316817.6 28922 316817.6 27152 Q 316817.6 24990.8 318784.4 23810 Q 320724.8 22654.4 325025.6 22163.6 Q 325025.6 18797.6 322274 18797.6 Q 320381.6 18797.6 318268.4 20223.2 L 317384 18674 Q 320111.6 16928 322642.4 16928 Q 327263.6 16928 327263.6 22409.6 L 327263.6 30617.6 L 325420.4 30617.6 L 325223.6 29020.4 L 325150.4 29020.4 Q 322840.4 30936.8 320727.2 30936.8 Q 319007.6 30936.8 317926.4 29952.8 L 317922.8 29954 Z M 325025.6 27372.8 L 325025.6 23638.4 Q 319005.2 24350 319005.2 27004.4 Q 319005.2 29141.6 321363.2 29141.6 Q 323034.8 29141.6 325025.6 27371.6 L 325025.6 27372.8 Z M 332018 29118.8 Q 330519.2 27251.6 330519.2 23957.6 Q 330519.2 20812.4 332265.2 18821.6 Q 333911.6 16929.2 336296 16929.2 Q 338163.2 16929.2 340055.6 18503.6 L 339932 16193.6 L 339932 11056.4 L 342168.8 11056.4 L 342168.8 30620 L 340349.6 30620 L 340128.8 29046.8 L 340079.6 29046.8 Q 338139.2 30939.2 336026 30939.2 Q 333495.2 30939.2 332020.4 29120 L 332018 29118.8 Z M 339930.8 27225.2 L 339930.8 20222 Q 338357.6 18820.4 336686 18820.4 Q 335039.6 18820.4 333958.4 20222 Q 332829.2 21671.6 332829.2 23932.4 Q 332829.2 26366 333788 27718.4 Q 334746.8 29068.4 336516.8 29068.4 Q 338286.8 29068.4 339933.2 27225.2 L 339930.8 27225.2 Z M 347224.4 29118.8 Q 345725.6 27251.6 345725.6 23957.6 Q 345725.6 20812.4 347471.6 18821.6 Q 349118 16929.2 351502.4 16929.2 Q 353369.6 16929.2 355262 18503.6 L 355138.4 16193.6 L 355138.4 11056.4 L 357375.2 11056.4 L 357375.2 30620 L 355556 30620 L 355335.2 29046.8 L 355286 29046.8 Q 353345.6 30939.2 351232.4 30939.2 Q 348701.6 30939.2 347226.8 29120 L 347224.4 29118.8 Z M 355137.2 27225.2 L 355137.2 20222 Q 353564 18820.4 351892.4 18820.4 Q 350246 18820.4 349164.8 20222 Q 348035.6 21671.6 348035.6 23932.4 Q 348035.6 26366 348994.4 27718.4 Q 349953.2 29068.4 351723.2 29068.4 Q 353493.2 29068.4 355139.6 27225.2 L 355137.2 27225.2 Z M 367812.8 26489.6 L 367812.8 19091.6 L 365822 19091.6 L 365822 17396 L 367910 17274.8 L 368180 13539.2 L 370048.4 13539.2 L 370048.4 17274.8 L 373661.6 17274.8 L 373661.6 19092.8 L 370048.4 19092.8 L 370048.4 26538.8 Q 370048.4 29120 372112.4 29120 Q 372750.8 29120 373635.2 28775.6 L 374078 30446 Q 372552.8 30939.2 371620.4 30939.2 Q 367810.4 30939.2 367810.4 26490.8 L 367812.8 26489.6 Z M 377495.6 29094.8 Q 375627.2 27152 375627.2 23956.4 Q 375627.2 20836.4 377470.4 18820.4 Q 379216.4 16928 381650 16928 Q 384155.6 16928 385581.2 18623.6 Q 386957.6 20295.2 386957.6 23194.4 Q 386957.6 23834 386860.4 24472.4 L 377865.2 24472.4 Q 377964.8 26609.6 379193.6 27863.6 Q 380397.2 29140.4 382289.6 29140.4 Q 384059.6 29140.4 385632.8 28084.4 L 386444 29559.2 Q 384304.4 30935.6 382019.6 30935.6 Q 379268 30935.6 377498 29092.4 L 377495.6 29094.8 Z M 384992 22876.4 Q 384992 18723.2 381674 18723.2 Q 380199.2 18723.2 379143.2 19804.4 Q 378038 20960 377841.2 22876.4 L 384993.2 22876.4 L 384992 22876.4 Z M 392710 23662.4 L 388654 17273.6 L 391063.6 17273.6 L 394183.6 22433.6 L 394283.2 22433.6 L 397134.4 17273.6 L 399468.4 17273.6 L 395412.4 23883.2 L 399812.8 30617.6 L 397355.2 30617.6 L 395388.4 27496.4 Q 394774 26367.2 393962.8 25113.2 L 393839.2 25113.2 L 390670 30618.8 L 388309.6 30618.8 L 392710 23663.6 L 392710 23662.4 Z M 402884.8 26489.6 L 402884.8 19091.6 L 400894 19091.6 L 400894 17396 L 402982 17274.8 L 403252 13539.2 L 405120.4 13539.2 L 405120.4 17274.8 L 408733.6 17274.8 L 408733.6 19092.8 L 405120.4 19092.8 L 405120.4 26538.8 Q 405120.4 29120 407184.4 29120 Q 407822.8 29120 408707.2 28775.6 L 409150 30446 Q 407624.8 30939.2 406692.4 30939.2 Q 402882.4 30939.2 402882.4 26490.8 L 402884.8 26489.6 Z M 417236.8 11054 L 419473.6 11054 L 419473.6 16412 L 419400.4 19163.6 Q 421637.2 16926.8 423824.8 16926.8 Q 427903.6 16926.8 427903.6 22162.4 L 427903.6 30616.4 L 425668 30616.4 L 425668 22456.4 Q 425668 18893.6 423137.2 18893.6 Q 421514.8 18893.6 419474.8 20933.6 L 419474.8 30616.4 L 417238 30616.4 L 417238 11052.8 L 417236.8 11054 Z M 432996.4 29094.8 Q 431128 27152 431128 23956.4 Q 431128 20836.4 432971.2 18820.4 Q 434717.2 16928 437150.8 16928 Q 439656.4 16928 441082 18623.6 Q 442458.4 20295.2 442458.4 23194.4 Q 442458.4 23834 442361.2 24472.4 L 433366 24472.4 Q 433465.6 26609.6 434694.4 27863.6 Q 435898 29140.4 437790.4 29140.4 Q 439560.4 29140.4 441133.6 28084.4 L 441944.8 29559.2 Q 439805.2 30935.6 437520.4 30935.6 Q 434768.8 30935.6 432998.8 29092.4 L 432996.4 29094.8 Z M 440492.8 22876.4 Q 440492.8 18723.2 437174.8 18723.2 Q 435700 18723.2 434644 19804.4 Q 433538.8 20960 433342 22876.4 L 440494 22876.4 L 440492.8 22876.4 Z M 445704 17273.6 L 447547.2 17273.6 L 447744 19706 L 447817.2 19706 Q 449340 16928 451602 16928 Q 452461.2 16928 453026.4 17224.4 L 452608.8 19191.2 Q 452043.6 18969.2 451305.6 18969.2 Q 449118 18969.2 447938.4 22041.2 L 447938.4 30618.8 L 445701.6 30618.8 L 445701.6 17274.8 L 445704 17273.6 Z M 456087.6 29094.8 Q 454219.2 27152 454219.2 23956.4 Q 454219.2 20836.4 456062.4 18820.4 Q 457808.4 16928 460242 16928 Q 462747.6 16928 464173.2 18623.6 Q 465549.6 20295.2 465549.6 23194.4 Q 465549.6 23834 465452.4 24472.4 L 456457.2 24472.4 Q 456556.8 26609.6 457785.6 27863.6 Q 458989.2 29140.4 460881.6 29140.4 Q 462651.6 29140.4 464224.8 28084.4 L 465036 29559.2 Q 462896.4 30935.6 460611.6 30935.6 Q 457860 30935.6 456090 29092.4 L 456087.6 29094.8 Z M 463584 22876.4 Q 463584 18723.2 460266 18723.2 Q 458791.2 18723.2 457735.2 19804.4 Q 456630 20960 456433.2 22876.4 L 463585.2 22876.4 L 463584 22876.4 Z M 4578.8 66408.4 Q 3473.6 65376.4 3473.6 63606.4 Q 3473.6 61445.2 5440.4 60264.4 Q 7380.8 59108.8 11681.6 58618 Q 11681.6 55252 8930 55252 Q 7037.6 55252 4924.4 56677.6 L 4040 55128.4 Q 6767.6 53382.4 9298.4 53382.4 Q 13919.6 53382.4 13919.6 58864 L 13919.6 67072 L 12076.4 67072 L 11879.6 65474.8 L 11806.4 65474.8 Q 9496.4 67391.2 7383.2 67391.2 Q 5663.6 67391.2 4582.4 66407.2 L 4578.8 66408.4 Z M 11681.6 63827.2 L 11681.6 60092.8 Q 5661.2 60804.4 5661.2 63458.8 Q 5661.2 65596 8019.2 65596 Q 9690.8 65596 11681.6 63826 L 11681.6 63827.2 Z M 18674 65573.2 Q 17175.2 63706 17175.2 60412 Q 17175.2 57266.8 18921.2 55276 Q 20567.6 53383.6 22952 53383.6 Q 24819.2 53383.6 26711.6 54958 L 26588 52648 L 26588 47510.8 L 28824.8 47510.8 L 28824.8 67074.4 L 27005.6 67074.4 L 26784.8 65501.2 L 26735.6 65501.2 Q 24795.2 67393.6 22682 67393.6 Q 20151.2 67393.6 18676.4 65574.4 L 18674 65573.2 Z M 26586.8 63679.6 L 26586.8 56676.4 Q 25013.6 55274.8 23342 55274.8 Q 21695.6 55274.8 20614.4 56676.4 Q 19485.2 58126 19485.2 60386.8 Q 19485.2 62820.4 20444 64172.8 Q 21402.8 65522.8 23172.8 65522.8 Q 24942.8 65522.8 26589.2 63679.6 L 26586.8 63679.6 Z M 33880.4 65573.2 Q 32381.6 63706 32381.6 60412 Q 32381.6 57266.8 34127.6 55276 Q 35774 53383.6 38158.4 53383.6 Q 40025.6 53383.6 41918 54958 L 41794.4 52648 L 41794.4 47510.8 L 44031.2 47510.8 L 44031.2 67074.4 L 42212 67074.4 L 41991.2 65501.2 L 41942 65501.2 Q 40001.6 67393.6 37888.4 67393.6 Q 35357.6 67393.6 33882.8 65574.4 L 33880.4 65573.2 Z M 41793.2 63679.6 L 41793.2 56676.4 Q 40220 55274.8 38548.4 55274.8 Q 36902 55274.8 35820.8 56676.4 Q 34691.6 58126 34691.6 60386.8 Q 34691.6 62820.4 35650.4 64172.8 Q 36609.2 65522.8 38379.2 65522.8 Q 40149.2 65522.8 41795.6 63679.6 L 41793.2 63679.6 Z M 54468.8 62944 L 54468.8 55546 L 52478 55546 L 52478 53850.4 L 54566 53729.2 L 54836 49993.6 L 56704.4 49993.6 L 56704.4 53729.2 L 60317.6 53729.2 L 60317.6 55547.2 L 56704.4 55547.2 L 56704.4 62993.2 Q 56704.4 65574.4 58768.4 65574.4 Q 59406.8 65574.4 60291.2 65230 L 60734 66900.4 Q 59208.8 67393.6 58276.4 67393.6 Q 54466.4 67393.6 54466.4 62945.2 L 54468.8 62944 Z M 64151.6 65549.2 Q 62283.2 63606.4 62283.2 60410.8 Q 62283.2 57290.8 64126.4 55274.8 Q 65872.4 53382.4 68306 53382.4 Q 70811.6 53382.4 72237.2 55078 Q 73613.6 56749.6 73613.6 59648.8 Q 73613.6 60288.4 73516.4 60926.8 L 64521.2 60926.8 Q 64620.8 63064 65849.6 64318 Q 67053.2 65594.8 68945.6 65594.8 Q 70715.6 65594.8 72288.8 64538.8 L 73100 66013.6 Q 70960.4 67390 68675.6 67390 Q 65924 67390 64154 65546.8 L 64151.6 65549.2 Z M 71648 59330.8 Q 71648 55177.6 68330 55177.6 Q 66855.2 55177.6 65799.2 56258.8 Q 64694 57414.4 64497.2 59330.8 L 71649.2 59330.8 L 71648 59330.8 Z M 79366 60116.8 L 75310 53728 L 77719.6 53728 L 80839.6 58888 L 80939.2 58888 L 83790.4 53728 L 86124.4 53728 L 82068.4 60337.6 L 86468.8 67072 L 84011.2 67072 L 82044.4 63950.8 Q 81430 62821.6 80618.8 61567.6 L 80495.2 61567.6 L 77326 67073.2 L 74965.6 67073.2 L 79366 60118 L 79366 60116.8 Z M 89540.8 62944 L 89540.8 55546 L 87550 55546 L 87550 53850.4 L 89638 53729.2 L 89908 49993.6 L 91776.4 49993.6 L 91776.4 53729.2 L 95389.6 53729.2 L 95389.6 55547.2 L 91776.4 55547.2 L 91776.4 62993.2 Q 91776.4 65574.4 93840.4 65574.4 Q 94478.8 65574.4 95363.2 65230 L 95806 66900.4 Q 94280.8 67393.6 93348.4 67393.6 Q 89538.4 67393.6 89538.4 62945.2 L 89540.8 62944 Z M 103892.8 47508.4 L 106129.6 47508.4 L 106129.6 52866.4 L 106056.4 55618 Q 108293.2 53381.2 110480.8 53381.2 Q 114559.6 53381.2 114559.6 58616.8 L 114559.6 67070.8 L 112324 67070.8 L 112324 58910.8 Q 112324 55348 109793.2 55348 Q 108170.8 55348 106130.8 57388 L 106130.8 67070.8 L 103894 67070.8 L 103894 47507.2 L 103892.8 47508.4 Z M 119652.4 65549.2 Q 117784 63606.4 117784 60410.8 Q 117784 57290.8 119627.2 55274.8 Q 121373.2 53382.4 123806.8 53382.4 Q 126312.4 53382.4 127738 55078 Q 129114.4 56749.6 129114.4 59648.8 Q 129114.4 60288.4 129017.2 60926.8 L 120022 60926.8 Q 120121.6 63064 121350.4 64318 Q 122554 65594.8 124446.4 65594.8 Q 126216.4 65594.8 127789.6 64538.8 L 128600.8 66013.6 Q 126461.2 67390 124176.4 67390 Q 121424.8 67390 119654.8 65546.8 L 119652.4 65549.2 Z M 127148.8 59330.8 Q 127148.8 55177.6 123830.8 55177.6 Q 122356 55177.6 121300 56258.8 Q 120194.8 57414.4 119998 59330.8 L 127150 59330.8 L 127148.8 59330.8 Z M 132360 53728 L 134203.2 53728 L 134400 56160.4 L 134473.2 56160.4 Q 135996 53382.4 138258 53382.4 Q 139117.2 53382.4 139682.4 53678.8 L 139264.8 55645.6 Q 138699.6 55423.6 137961.6 55423.6 Q 135774 55423.6 134594.4 58495.6 L 134594.4 67073.2 L 132357.6 67073.2 L 132357.6 53729.2 L 132360 53728 Z M 142743.6 65549.2 Q 140875.2 63606.4 140875.2 60410.8 Q 140875.2 57290.8 142718.4 55274.8 Q 144464.4 53382.4 146898 53382.4 Q 149403.6 53382.4 150829.2 55078 Q 152205.6 56749.6 152205.6 59648.8 Q 152205.6 60288.4 152108.4 60926.8 L 143113.2 60926.8 Q 143212.8 63064 144441.6 64318 Q 145645.2 65594.8 147537.6 65594.8 Q 149307.6 65594.8 150880.8 64538.8 L 151692 66013.6 Q 149552.4 67390 147267.6 67390 Q 144516 67390 142746 65546.8 L 142743.6 65549.2 Z M 150240 59330.8 Q 150240 55177.6 146922 55177.6 Q 145447.2 55177.6 144391.2 56258.8 Q 143286 57414.4 143089.2 59330.8 L 150241.2 59330.8 L 150240 59330.8 Z M 161250.8 66408.4 Q 160145.6 65376.4 160145.6 63606.4 Q 160145.6 61445.2 162112.4 60264.4 Q 164052.8 59108.8 168353.6 58618 Q 168353.6 55252 165602 55252 Q 163709.6 55252 161596.4 56677.6 L 160712 55128.4 Q 163439.6 53382.4 165970.4 53382.4 Q 170591.6 53382.4 170591.6 58864 L 170591.6 67072 L 168748.4 67072 L 168551.6 65474.8 L 168478.4 65474.8 Q 166168.4 67391.2 164055.2 67391.2 Q 162335.6 67391.2 161254.4 66407.2 L 161250.8 66408.4 Z M 168353.6 63827.2 L 168353.6 60092.8 Q 162333.2 60804.4 162333.2 63458.8 Q 162333.2 65596 164691.2 65596 Q 166362.8 65596 168353.6 63826 L 168353.6 63827.2 Z M 175346 65573.2 Q 173847.2 63706 173847.2 60412 Q 173847.2 57266.8 175593.2 55276 Q 177239.6 53383.6 179624 53383.6 Q 181491.2 53383.6 183383.6 54958 L 183260 52648 L 183260 47510.8 L 185496.8 47510.8 L 185496.8 67074.4 L 183677.6 67074.4 L 183456.8 65501.2 L 183407.6 65501.2 Q 181467.2 67393.6 179354 67393.6 Q 176823.2 67393.6 175348.4 65574.4 L 175346 65573.2 Z M 183258.8 63679.6 L 183258.8 56676.4 Q 181685.6 55274.8 180014 55274.8 Q 178367.6 55274.8 177286.4 56676.4 Q 176157.2 58126 176157.2 60386.8 Q 176157.2 62820.4 177116 64172.8 Q 178074.8 65522.8 179844.8 65522.8 Q 181614.8 65522.8 183261.2 63679.6 L 183258.8 63679.6 Z M 190552.4 65573.2 Q 189053.6 63706 189053.6 60412 Q 189053.6 57266.8 190799.6 55276 Q 192446 53383.6 194830.4 53383.6 Q 196697.6 53383.6 198590 54958 L 198466.4 52648 L 198466.4 47510.8 L 200703.2 47510.8 L 200703.2 67074.4 L 198884 67074.4 L 198663.2 65501.2 L 198614 65501.2 Q 196673.6 67393.6 194560.4 67393.6 Q 192029.6 67393.6 190554.8 65574.4 L 190552.4 65573.2 Z M 198465.2 63679.6 L 198465.2 56676.4 Q 196892 55274.8 195220.4 55274.8 Q 193574 55274.8 192492.8 56676.4 Q 191363.6 58126 191363.6 60386.8 Q 191363.6 62820.4 192322.4 64172.8 Q 193281.2 65522.8 195051.2 65522.8 Q 196821.2 65522.8 198467.6 63679.6 L 198465.2 63679.6 Z M 211140.8 62944 L 211140.8 55546 L 209150 55546 L 209150 53850.4 L 211238 53729.2 L 211508 49993.6 L 213376.4 49993.6 L 213376.4 53729.2 L 216989.6 53729.2 L 216989.6 55547.2 L 213376.4 55547.2 L 213376.4 62993.2 Q 213376.4 65574.4 215440.4 65574.4 Q 216078.8 65574.4 216963.2 65230 L 217406 66900.4 Q 215880.8 67393.6 214948.4 67393.6 Q 211138.4 67393.6 211138.4 62945.2 L 211140.8 62944 Z M 220823.6 65549.2 Q 218955.2 63606.4 218955.2 60410.8 Q 218955.2 57290.8 220798.4 55274.8 Q 222544.4 53382.4 224978 53382.4 Q 227483.6 53382.4 228909.2 55078 Q 230285.6 56749.6 230285.6 59648.8 Q 230285.6 60288.4 230188.4 60926.8 L 221193.2 60926.8 Q 221292.8 63064 222521.6 64318 Q 223725.2 65594.8 225617.6 65594.8 Q 227387.6 65594.8 228960.8 64538.8 L 229772 66013.6 Q 227632.4 67390 225347.6 67390 Q 222596 67390 220826 65546.8 L 220823.6 65549.2 Z M 228320 59330.8 Q 228320 55177.6 225002 55177.6 Q 223527.2 55177.6 222471.2 56258.8 Q 221366 57414.4 221169.2 59330.8 L 228321.2 59330.8 L 228320 59330.8 Z M 236038 60116.8 L 231982 53728 L 234391.6 53728 L 237511.6 58888 L 237611.2 58888 L 240462.4 53728 L 242796.4 53728 L 238740.4 60337.6 L 243140.8 67072 L 240683.2 67072 L 238716.4 63950.8 Q 238102 62821.6 237290.8 61567.6 L 237167.2 61567.6 L 233998 67073.2 L 231637.6 67073.2 L 236038 60118 L 236038 60116.8 Z M 246212.8 62944 L 246212.8 55546 L 244222 55546 L 244222 53850.4 L 246310 53729.2 L 246580 49993.6 L 248448.4 49993.6 L 248448.4 53729.2 L 252061.6 53729.2 L 252061.6 55547.2 L 248448.4 55547.2 L 248448.4 62993.2 Q 248448.4 65574.4 250512.4 65574.4 Q 251150.8 65574.4 252035.2 65230 L 252478 66900.4 Q 250952.8 67393.6 250020.4 67393.6 Q 246210.4 67393.6 246210.4 62945.2 L 246212.8 62944 Z M 260564.8 47508.4 L 262801.6 47508.4 L 262801.6 52866.4 L 262728.4 55618 Q 264965.2 53381.2 267152.8 53381.2 Q 271231.6 53381.2 271231.6 58616.8 L 271231.6 67070.8 L 268996 67070.8 L 268996 58910.8 Q 268996 55348 266465.2 55348 Q 264842.8 55348 262802.8 57388 L 262802.8 67070.8 L 260566 67070.8 L 260566 47507.2 L 260564.8 47508.4 Z M 276324.4 65549.2 Q 274456 63606.4 274456 60410.8 Q 274456 57290.8 276299.2 55274.8 Q 278045.2 53382.4 280478.8 53382.4 Q 282984.4 53382.4 284410 55078 Q 285786.4 56749.6 285786.4 59648.8 Q 285786.4 60288.4 285689.2 60926.8 L 276694 60926.8 Q 276793.6 63064 278022.4 64318 Q 279226 65594.8 281118.4 65594.8 Q 282888.4 65594.8 284461.6 64538.8 L 285272.8 66013.6 Q 283133.2 67390 280848.4 67390 Q 278096.8 67390 276326.8 65546.8 L 276324.4 65549.2 Z M 283820.8 59330.8 Q 283820.8 55177.6 280502.8 55177.6 Q 279028 55177.6 277972 56258.8 Q 276866.8 57414.4 276670 59330.8 L 283822 59330.8 L 283820.8 59330.8 Z M 289032 53728 L 290875.2 53728 L 291072 56160.4 L 291145.2 56160.4 Q 292668 53382.4 294930 53382.4 Q 295789.2 53382.4 296354.4 53678.8 L 295936.8 55645.6 Q 295371.6 55423.6 294633.6 55423.6 Q 292446 55423.6 291266.4 58495.6 L 291266.4 67073.2 L 289029.6 67073.2 L 289029.6 53729.2 L 289032 53728 Z M 299415.6 65549.2 Q 297547.2 63606.4 297547.2 60410.8 Q 297547.2 57290.8 299390.4 55274.8 Q 301136.4 53382.4 303570 53382.4 Q 306075.6 53382.4 307501.2 55078 Q 308877.6 56749.6 308877.6 59648.8 Q 308877.6 60288.4 308780.4 60926.8 L 299785.2 60926.8 Q 299884.8 63064 301113.6 64318 Q 302317.2 65594.8 304209.6 65594.8 Q 305979.6 65594.8 307552.8 64538.8 L 308364 66013.6 Q 306224.4 67390 303939.6 67390 Q 301188 67390 299418 65546.8 L 299415.6 65549.2 Z M 306912 59330.8 Q 306912 55177.6 303594 55177.6 Q 302119.2 55177.6 301063.2 56258.8 Q 299958 57414.4 299761.2 59330.8 L 306913.2 59330.8 L 306912 59330.8 Z M 317922.8 66408.4 Q 316817.6 65376.4 316817.6 63606.4 Q 316817.6 61445.2 318784.4 60264.4 Q 320724.8 59108.8 325025.6 58618 Q 325025.6 55252 322274 55252 Q 320381.6 55252 318268.4 56677.6 L 317384 55128.4 Q 320111.6 53382.4 322642.4 53382.4 Q 327263.6 53382.4 327263.6 58864 L 327263.6 67072 L 325420.4 67072 L 325223.6 65474.8 L 325150.4 65474.8 Q 322840.4 67391.2 320727.2 67391.2 Q 319007.6 67391.2 317926.4 66407.2 L 317922.8 66408.4 Z M 325025.6 63827.2 L 325025.6 60092.8 Q 319005.2 60804.4 319005.2 63458.8 Q 319005.2 65596 321363.2 65596 Q 323034.8 65596 325025.6 63826 L 325025.6 63827.2 Z M 332018 65573.2 Q 330519.2 63706 330519.2 60412 Q 330519.2 57266.8 332265.2 55276 Q 333911.6 53383.6 336296 53383.6 Q 338163.2 53383.6 340055.6 54958 L 339932 52648 L 339932 47510.8 L 342168.8 47510.8 L 342168.8 67074.4 L 340349.6 67074.4 L 340128.8 65501.2 L 340079.6 65501.2 Q 338139.2 67393.6 336026 67393.6 Q 333495.2 67393.6 332020.4 65574.4 L 332018 65573.2 Z M 339930.8 63679.6 L 339930.8 56676.4 Q 338357.6 55274.8 336686 55274.8 Q 335039.6 55274.8 333958.4 56676.4 Q 332829.2 58126 332829.2 60386.8 Q 332829.2 62820.4 333788 64172.8 Q 334746.8 65522.8 336516.8 65522.8 Q 338286.8 65522.8 339933.2 63679.6 L 339930.8 63679.6 Z M 347224.4 65573.2 Q 345725.6 63706 345725.6 60412 Q 345725.6 57266.8 347471.6 55276 Q 349118 53383.6 351502.4 53383.6 Q 353369.6 53383.6 355262 54958 L 355138.4 52648 L 355138.4 47510.8 L 357375.2 47510.8 L 357375.2 67074.4 L 355556 67074.4 L 355335.2 65501.2 L 355286 65501.2 Q 353345.6 67393.6 351232.4 67393.6 Q 348701.6 67393.6 347226.8 65574.4 L 347224.4 65573.2 Z M 355137.2 63679.6 L 355137.2 56676.4 Q 353564 55274.8 351892.4 55274.8 Q 350246 55274.8 349164.8 56676.4 Q 348035.6 58126 348035.6 60386.8 Q 348035.6 62820.4 348994.4 64172.8 Q 349953.2 65522.8 351723.2 65522.8 Q 353493.2 65522.8 355139.6 63679.6 L 355137.2 63679.6 Z M 367812.8 62944 L 367812.8 55546 L 365822 55546 L 365822 53850.4 L 367910 53729.2 L 368180 49993.6 L 370048.4 49993.6 L 370048.4 53729.2 L 373661.6 53729.2 L 373661.6 55547.2 L 370048.4 55547.2 L 370048.4 62993.2 Q 370048.4 65574.4 372112.4 65574.4 Q 372750.8 65574.4 373635.2 65230 L 374078 66900.4 Q 372552.8 67393.6 371620.4 67393.6 Q 367810.4 67393.6 367810.4 62945.2 L 367812.8 62944 Z M 377495.6 65549.2 Q 375627.2 63606.4 375627.2 60410.8 Q 375627.2 57290.8 377470.4 55274.8 Q 379216.4 53382.4 381650 53382.4 Q 384155.6 53382.4 385581.2 55078 Q 386957.6 56749.6 386957.6 59648.8 Q 386957.6 60288.4 386860.4 60926.8 L 377865.2 60926.8 Q 377964.8 63064 379193.6 64318 Q 380397.2 65594.8 382289.6 65594.8 Q 384059.6 65594.8 385632.8 64538.8 L 386444 66013.6 Q 384304.4 67390 382019.6 67390 Q 379268 67390 377498 65546.8 L 377495.6 65549.2 Z M 384992 59330.8 Q 384992 55177.6 381674 55177.6 Q 380199.2 55177.6 379143.2 56258.8 Q 378038 57414.4 377841.2 59330.8 L 384993.2 59330.8 L 384992 59330.8 Z M 392710 60116.8 L 388654 53728 L 391063.6 53728 L 394183.6 58888 L 394283.2 58888 L 397134.4 53728 L 399468.4 53728 L 395412.4 60337.6 L 399812.8 67072 L 397355.2 67072 L 395388.4 63950.8 Q 394774 62821.6 393962.8 61567.6 L 393839.2 61567.6 L 390670 67073.2 L 388309.6 67073.2 L 392710 60118 L 392710 60116.8 Z M 402884.8 62944 L 402884.8 55546 L 400894 55546 L 400894 53850.4 L 402982 53729.2 L 403252 49993.6 L 405120.4 49993.6 L 405120.4 53729.2 L 408733.6 53729.2 L 408733.6 55547.2 L 405120.4 55547.2 L 405120.4 62993.2 Q 405120.4 65574.4 407184.4 65574.4 Q 407822.8 65574.4 408707.2 65230 L 409150 66900.4 Q 407624.8 67393.6 406692.4 67393.6 Q 402882.4 67393.6 402882.4 62945.2 L 402884.8 62944 Z M 417236.8 47508.4 L 419473.6 47508.4 L 419473.6 52866.4 L 419400.4 55618 Q 421637.2 53381.2 423824.8 53381.2 Q 427903.6 53381.2 427903.6 58616.8 L 427903.6 67070.8 L 425668 67070.8 L 425668 58910.8 Q 425668 55348 423137.2 55348 Q 421514.8 55348 419474.8 57388 L 419474.8 67070.8 L 417238 67070.8 L 417238 47507.2 L 417236.8 47508.4 Z M 432996.4 65549.2 Q 431128 63606.4 431128 60410.8 Q 431128 57290.8 432971.2 55274.8 Q 434717.2 53382.4 437150.8 53382.4 Q 439656.4 53382.4 441082 55078 Q 442458.4 56749.6 442458.4 59648.8 Q 442458.4 60288.4 442361.2 60926.8 L 433366 60926.8 Q 433465.6 63064 434694.4 64318 Q 435898 65594.8 437790.4 65594.8 Q 439560.4 65594.8 441133.6 64538.8 L 441944.8 66013.6 Q 439805.2 67390 437520.4 67390 Q 434768.8 67390 432998.8 65546.8 L 432996.4 65549.2 Z M 440492.8 59330.8 Q 440492.8 55177.6 437174.8 55177.6 Q 435700 55177.6 434644 56258.8 Q 433538.8 57414.4 433342 59330.8 L 440494 59330.8 L 440492.8 59330.8 Z M 445704 53728 L 447547.2 53728 L 447744 56160.4 L 447817.2 56160.4 Q 449340 53382.4 451602 53382.4 Q 452461.2 53382.4 453026.4 53678.8 L 452608.8 55645.6 Q 452043.6 55423.6 451305.6 55423.6 Q 449118 55423.6 447938.4 58495.6 L 447938.4 67073.2 L 445701.6 67073.2 L 445701.6 53729.2 L 445704 53728 Z M 456087.6 65549.2 Q 454219.2 63606.4 454219.2 60410.8 Q 454219.2 57290.8 456062.4 55274.8 Q 457808.4 53382.4 460242 53382.4 Q 462747.6 53382.4 464173.2 55078 Q 465549.6 56749.6 465549.6 59648.8 Q 465549.6 60288.4 465452.4 60926.8 L 456457.2 60926.8 Q 456556.8 63064 457785.6 64318 Q 458989.2 65594.8 460881.6 65594.8 Q 462651.6 65594.8 464224.8 64538.8 L 465036 66013.6 Q 462896.4 67390 460611.6 67390 Q 457860 67390 456090 65546.8 L 456087.6 65549.2 Z M 463584 59330.8 Q 463584 55177.6 460266 55177.6 Q 458791.2 55177.6 457735.2 56258.8 Q 456630 57414.4 456433.2 59330.8 L 463585.2 59330.8 L 463584 59330.8 Z " fill-rule="nonzero" style="fill:#333333;;fill-opacity:1;"/>
</svg>