<svg version="1.1" x="0" y="0" width="100%" height="100%" viewBox="0 0 33792 64972.8" xmlns="http://www.w3.org/2000/svg">
  <path d="M 26556.05 21974.4 Q 26556.05 23833.35 25969.55 25363.35 Q 25383.05 26893.35 24324.8 28015.35 Q 23266.55 29137.35 21787.55 29864.1 Q 20308.55 30590.85 18500.6 30896.85 L 18500.6 31049.85 Q 23011.55 31610.85 25357.55 33918.6 Q 27703.55 36226.35 27703.55 39926.4 Q 27703.55 42374.4 26874.8 44414.4 Q 26046.05 46454.4 24363.05 47933.4 Q 22680.05 49412.4 20104.55 50228.4 Q 17529.05 51044.4 14010.05 51044.4 Q 11228 51044.4 8767.25 50610.9 Q 6306.5 50177.4 4136.45 49027.35 L 4136.45 44692.35 Q 6357.5 45865.35 8945.75 46502.85 Q 11534 47140.35 13908.05 47140.35 Q 16254.05 47140.35 17962.55 46630.35 Q 19671.05 46120.35 20780.3 45176.85 Q 21889.55 44233.35 22412.3 42856.35 Q 22935.05 41479.35 22935.05 39773.4 Q 22935.05 38039.4 22259.3 36802.65 Q 21583.55 35565.9 20334.05 34762.65 Q 19084.55 33959.4 17286.8 33576.9 Q 15489.05 33194.4 13217 33194.4 L 9828.05 33194.4 L 9828.05 29341.35 L 13217 29341.35 Q 15285.05 29341.35 16891.55 28831.35 Q 18498.05 28321.35 19581.8 27377.85 Q 20665.55 26434.35 21226.55 25133.85 Q 21787.55 23833.35 21787.55 22280.4 Q 21787.55 20954.4 21328.55 19908.9 Q 20869.55 18863.4 20028.05 18136.65 Q 19186.55 17409.9 18013.55 17027.4 Q 16840.55 16644.9 15412.55 16644.9 Q 12686.6 16644.9 10608.35 17499.15 Q 8530.1 18353.4 6643.1 19730.4 L 4297.1 16540.35 Q 5266.1 15752.4 6451.85 15063.9 Q 7637.6 14375.4 9040.1 13852.65 Q 10442.6 13329.9 12036.35 13023.9 Q 13630.1 12717.9 15415.1 12717.9 Q 18169.1 12717.9 20247.35 13406.4 Q 22325.6 14094.9 23728.1 15331.65 Q 25130.6 16568.4 25844.6 18264.15 Q 26558.6 19959.9 26558.6 21976.95 L 26556.05 21974.4 Z " fill-rule="nonzero" style="fill:#000000;;fill-opacity:1;"/>
</svg>